<?xml version="1.0" encoding="utf-8"?>
<svg xmlns="http://www.w3.org/2000/svg" version="1.1" viewBox="0 0 242 240">
	<title>Stylized page marking third section of the book. At the top of the page is an incomplete circle, composed of two thick black curves situated opposite of each other.</title>
	<path d="m233.91 114.71c-.30251-.78804-.55013-2.7114-.55013-4.274 0-4.2511-3.1562-18.195-5.7394-25.356-10.353-28.705-31.285-51.613-58.216-63.714-11.49-5.1629-26.672-8.8405-43.294-10.487-4.2209-.41821-8.2672-1.2526-8.9922-1.8543-.80529-.66835-1.3182-2.5881-1.3182-4.9345 0-3.8405 0-3.8405 4.1673-3.9786 5.4866-.18189 4.8695-.20418 13.863.49944 20.271 1.5861 43.242 10.572 60.489 23.662 6.7966 5.1589 20.801 19.483 25.831 26.421 11.931 16.456 20.668 40.703 21.337 59.218.20532 5.7024.20532 5.7024-3.4115 5.9669-2.7044.19753-3.7562-.0974-4.1671-1.1684z"/>
	<path d="m108.78 240.11c-23.317-4.1949-31.334-6.809-46.436-15.14-12.785-7.0533-21.231-13.619-30.464-23.68-12.56-13.687-22.201-29.312-26.652-43.19-2.9615-9.2352-5.2358-20.622-5.2358-26.212 0-5.6748 1.0854-7.0586 5.5372-7.0586 3.278 0 4.1321 1.7882 5.0381 10.546 1.2885 12.452 2.777 17.09 10.414 32.443 5.5504 11.158 8.0849 15.099 14.386 22.371 15.094 17.42 30.756 28.355 49.285 34.409 12.957 4.2341 15.508 4.7225 31.583 6.0451 3.86.31714 7.7093.93258 8.5538 1.3666 1.721.8849 2.1705 6.3723.60139 7.3422-1.1666.72121-13.651 1.2906-16.612.75741z"/>
	<path d="m223.52 597.98c-1.2286-1.4804-.0417-3.3568 2.1223-3.3568 1.3455 0 1.6167.34052 1.6167 2.0285 0 1.5417-.33871 2.0769-1.4115 2.2303-.77631.111-1.8237-.29479-2.3274-.90195z"/>
	<path d="m212.02 587.39c1.5864-1.7029 1.0327-2.7107-1.1724-2.134-1.0295.26913-1.5098.90732-1.5098 2.0062 0 2.0085.8905 2.0509 2.6822.12733z"/>
	<path d="m212.78 595.75c-.36474-.68127-1.1324-1.6285-1.7062-2.1047-.86268-.7157-1.1162-.67579-1.465.23319-.53729 1.3998.86005 3.1103 2.5408 3.1103 1.0442 0 1.1657-.23848.63021-1.2389z"/>
	<path d="m202.35 598.7c-.28671-.74753.12733-1.2852 1.3491-1.7498 1.5876-.60381 1.7219-.92174 1.3469-3.1901-.22933-1.386-.42004-3.7919-.42405-5.3465-.003-2.4099-.23102-2.8588-1.5219-3.0428-.83293-.11865-1.616-.74848-1.7401-1.3995-.2006-1.0532.46751-1.1936 6.0787-1.2763 3.4673-.0491 7.6734-.12666 9.347-.16945 3.4261-.0856 4.2144 1.3283 1.4961 2.6838-2.0638 1.0289-4.8769 3.7143-4.8769 4.6552 0 .96181 5.3624 6.1206 6.9309 6.6677 1.6583.57792 1.4739 1.7219-.33799 2.0951-.83688.17213-5.0567.50136-9.3777.73235-6.8195.36363-7.9106.27576-8.2703-.66079z"/>
	<path d="m156.94 590.22c0-1.3524-.33832-1.6904-1.6905-1.6904-1.3523 0-1.7342.3822-1.9091 1.9093-.19904 1.7365-.0491 1.8894 1.6903 1.6903 1.5274-.17526 1.9093-.55696 1.9093-1.9092z"/>
	<path d="m172.15 592.21c0-.7659-.30467-1.2042-.67642-.9744-.37264.2303-.67638.85634-.67638 1.3923 0 .53589.30354.9743.67638.9743.37154 0 .67642-.62688.67642-1.3922z"/>
	<path d="m155.92 598.08c0-.51283-.45604-1.3103-1.0143-1.7732-.84282-.69953-1.0143-.61802-1.0143.48079 0 .72752.20262 1.5253.45069 1.7732.75465.75473 1.5778.50473 1.5778-.48132z"/>
	<path d="m147.85 601.43c-.64235-.7731-.52298-1.1167.59369-1.7142 1.1878-.63575 1.396-1.394 1.396-5.0838 0-3.7177-.24813-4.6035-1.7343-6.2078-1.5574-1.6806-1.6229-1.9528-.64251-2.6701.70606-.51563 2.9352-.6981 6.2986-.51499 4.5288.24685 5.4041.50618 6.7276 1.9969 1.9581 2.2048 1.9158 3.0937-.2717 5.6937-1.7933 2.1313-1.7933 2.1313-.0711 3.8553 1.5371 1.5373 4.7048 2.3191 5.6331 1.3908.18425-.18445 1.3118-3.3405 2.5076-7.0154 1.8202-5.5941 2.4197-6.7168 3.6823-6.8964 1.5677-.22189 2.2416.87752 5.3077 8.6666 1.7682 4.4919 3.0094 5.6253 5.2344 4.7794 1.7281-.65738 1.8114-.90822 1.8114-5.4554 0-4.4984-.0984-4.8041-1.7396-5.4283-2.7763-1.0555-1.8903-2.9803 1.4859-3.2277 2.6416-.19252 2.9523-.003 6.3643 3.888 1.973 2.2503 3.8394 4.0918 4.1478 4.0918 1.0698 0 .55363-3.2076-.79147-4.9179-.7435-.94551-1.3522-2.019-1.3522-2.3855 0-.87443 1.6715-1.4871 4.057-1.4871 3.9817 0 5.463 1.9047 2.6519 3.4091-1.2994.69567-1.3698 1.1286-.93656 5.7535.51768 5.5258.0802 8.418-1.2795 8.418-.49066 0-2.69-2.1241-4.8895-4.7202-2.1993-2.5959-4.2269-4.7261-4.5058-4.7332-.279-.003-.50747 1.3637-.50747 3.0464 0 2.6414.23103 3.1475 1.6905 3.7022 1.8437.70124 2.1686 1.6518.84531 2.4738-.46505.28925-4.3022.61-8.5274.71483-7.6822.19005-7.6822.19005-7.2384-2.1755.43992-2.3417.42004-2.3655-1.9535-2.3655-1.8577 0-2.3973.27391-2.3973 1.2171 0 .66888.33029 1.548.73554 1.9523.5292.52914.49313.88428-.12733 1.2683-1.2819.79223-11.323 1.0095-11.789.25536-.23754-.38607-.99535-.2344-1.8603.37119-1.8726 1.3115-7.4834 1.3472-8.5565.0543z"/>
	<path d="m126.85 601.07c0-.9289.4417-1.3797 1.3524-1.3797 1.2798 0 1.3524-.45115 1.3524-8.4075 0-8.4072 0-8.4072-1.8539-8.6213-2.0472-.23657-2.9563-2.3637-1.4246-3.3344 1.1121-.7045 17.518-.7764 18.564-.0807 1.2456.82748 1.7759 5.2723.73239 6.1383-.70615.58611-1.3503.30064-2.8442-1.2587-1.6256-1.6968-2.4531-2.0161-5.2232-2.0161-3.2914 0-3.2914 0-3.0854 3.2058.24532 3.8107 2.0294 4.8124 3.362 1.8873.46252-1.0148 1.256-1.6789 1.867-1.5624 1.4607.27826 1.971 9.3168.52647 9.3168-.51497 0-1.2832-.7603-1.7068-1.6904-.83007-1.8216-3.1287-2.2913-3.7166-.75941-.1968.51225-.19253 2.1529.003 3.6464.27207 2.0334.78272 2.9061 2.0284 3.4741 3.1024 1.4135 1.4133 2.4186-4.4127 2.6257-5.1741.184-5.5242.10823-5.5242-1.1834z"/>
	<path d="m107.93 599.31c1.0664-2.805.76344-6.0653-.74201-7.9789-2.7568-3.5048-6.0366-1.244-6.0366 4.1608 0 4.2016.91489 5.5527 3.7596 5.5527 1.9106 0 2.485-.32995 3.0191-1.7346z"/>
	<path d="m90.413 600.29c1.1874-1.1874 1.3758-2.0053 1.1067-4.8054-.35116-3.6558-1.2631-4.692-3.8898-4.4197-1.6515.17056-1.685.28411-1.4517 4.9085.13061 2.6033.37835 4.9614.54681 5.2405.57055.93778 2.246.51831 3.6879-.92364z"/>
	<path d="m83.573 604.55c-3.1228-.29478-3.9035-1.1333-2.4993-2.6851.91015-1.0058 1.0411-2.0861.69802-5.7618-.23321-2.5006-.83243-4.8639-1.3392-5.2844-1.523-1.264-1.0379-2.4305 1.1964-2.8772 6.3136-1.2627 11.5.32954 13.288 4.0788 1.3211 2.7703 1.9432 2.8492 2.4991.31675.78754-3.5839 5.1499-6.4743 8.7522-5.7986 6.3246 1.1865 9.0117 10.588 4.2906 15.01-4.5266 4.2401-10.593 2.9146-12.95-2.8301-.81468-1.9858-.81468-1.9858-1.9534.41393-.62627 1.3198-1.5836 2.769-2.1275 3.2204-1.4362 1.1918-7.1075 2.4563-9.8554 2.1972z"/>
	<path d="m54.496 596.65c0-.55831-.30351-1.0142-.67634-1.0142-.37269 0-.67635.45667-.67635 1.0142 0 .55833.30357 1.0143.67635 1.0143.37265 0 .67634-.45653.67634-1.0143z"/>
	<path d="m46.711 605.09c-.23461-.37946.28052-1.5297 1.1434-2.556.86353-1.0263 2.2983-4.2912 3.1883-7.255.89016-2.9642 1.8485-5.6477 2.1295-5.9635 1.1984-1.3467 3.174.41608 4.6302 4.1312 2.7053 6.9028 3.3748 8.1858 4.6086 8.8329 1.7122.8976 4.5185-.24892 3.9887-1.6305-.22426-.5861-.40888-2.8662-.40888-5.0672 0-2.9482-.24505-4.0017-.93144-4.0017-.51285 0-1.2928-.43557-1.7341-.96711-1.1595-1.3972 1.0668-2.4137 5.286-2.4137 3.8854 0 4.9997 1.0371 2.8539 2.656-1.3305 1.0034-1.4615 1.6341-1.2805 6.1619.2015 5.0439.2015 5.0439 2.1848 4.8998 1.2263-.0896 2.5388-.84066 3.4382-1.9686 1.5733-1.9733 3.0307-1.7294 3.0307.50608 0 3.9996-1.7521 4.5687-14.876 4.8314-7.7761.156-7.7761.156-7.7761-2.211 0-2.2265-.12035-2.3538-2.0285-2.1516-2.7143.28706-3.7412 1.3566-2.1602 2.2483.9646.54412 1.0537.89007.42405 1.6483-.9152 1.1029-5.0746 1.2992-5.7109.26947z"/>
	<path d="m27.388 593.27c.81347-3.635.54678-6.429-.61334-6.429-.31965 0-1.069-.48624-1.6637-1.0815-.86475-.86466-1.2809-.91579-2.0769-.25585-1.277 1.0597-1.2541 2.3476.11455 6.4568 2.0473 6.1457 3.085 6.4665 4.239 1.309z"/>
	<path d="m23.476 605.94c-.37524-.70122-2.2306-5.0416-4.1229-9.6451-1.8923-4.6033-4.0429-8.931-4.7794-9.6171-1.0558-.98376-1.1893-1.5262-.63227-2.5672.80329-1.5008 5.3019-1.8351 8.4731-.62955 1.1272.42887 2.1064.45154 2.5798.0614.71713-.59163 4.2428-.96535 7.7151-.81789 2.0002.0852 2.6394 1.8141 1.2416 3.3584-1.016 1.1227-1.0012 1.4978.19702 4.9802.71247 2.0712 1.6633 4.4529 2.1127 5.2925 1.0489 1.9598 1.4902 1.1296 2.6479-4.98.81074-4.2787.78346-4.6653-.39234-5.5388-1.0046-.74668-1.1111-1.1898-.519-2.1619 1.3365-2.1951 7.7075-1.78 7.7075.50206 0 .2999-.43335.97884-.96401 1.5091-1.5036 1.5037-2.9048 5.3472-4.9031 13.451-2.5518 10.348-3.9069 10.547-7.2812 1.0646-1.0258-2.8821-2.1168-5.2402-2.4247-5.2402-.30724 0-.90987 1.7496-1.3379 3.888-1.4727 7.3576-1.6995 7.9357-3.2 8.1553-.87057.12733-1.7041-.29112-2.1181-1.0652z"/>
	<path d="m-2.7136 604.03c1.2609-3.2858-.13583-9.1088-2.1736-9.0628-2.9023.0603-4.248 6.399-1.9732 9.2872.94246 1.1966 3.6581 1.0497 4.1469-.22452z"/>
	<path d="m-7.4576 607.67c-4.8875-2.6194-6.1094-6.0196-3.9878-11.097 2.0718-4.9583 6.6523-6.414 10.946-3.4788 2.7703 1.8939 3.8862 4.4773 3.4234 7.9262-.47879 3.572-2.5964 6.3692-5.4948 7.2586-2.0051.616-2.7833.51827-4.8868-.60856z"/>
	<path d="m-18.858 608.1c-1.077-.81408-1.3904-2.0083-1.596-6.0805-.20754-4.1146-.49594-5.1958-1.5335-5.751-1.7741-.94956-1.607-2.1089.82289-5.7094 2.4211-3.5875 4.0095-3.7634 4.9574-.54959.34894 1.1828 1.1855 2.2949 1.8595 2.4711 1.8853.49267 1.5509 3.0444-.46454 3.5503-1.5308.38377-1.6895.75233-1.68 3.901.003 3.9752.65186 5.3897 2.1729 4.8059 1.801-.69086 2.0983 1.0495.47436 2.7779-1.7618 1.8755-3.098 2.0313-5.0123.58482z"/>
</svg>
