<?xml version="1.0" encoding="utf-8"?>
<svg xmlns="http://www.w3.org/2000/svg" viewBox="0 0 210 297">
	<title>A stylized page marking the first section of the book. An enlarged reproduction of the word “Cane” is printed off-center and askew on an otherwise blank page.</title>
	<path d="m77.718 288.97c-0.14205-0.11156-0.21464-0.2458-0.16132-0.29833 0.05333-0.0525 0.01878-0.0955-0.07677-0.0955s-0.17373-0.066-0.17373-0.14667c0-0.0807 0.28479-0.1506 0.63286-0.15541 0.34808-5e-3 0.96791-0.0637 1.3774-0.13083 0.4095-0.0671 0.76654-0.10205 0.79342-0.0776 0.02688 0.0245-0.05419 0.23186-0.18017 0.46083-0.12598 0.22896-0.23276 0.3503-0.2373 0.26963-0.0045-0.0807-0.06252-0.0624-0.12886 0.0405-0.18183 0.2822-1.5318 0.37969-1.8455 0.13328zm2.4919-0.39382c0.05062-0.0807 0.15904-0.14667 0.24094-0.14667s0.1075 0.066 0.05688 0.14667c-0.05062 0.0807-0.15904 0.14667-0.24094 0.14667s-0.1075-0.066-0.05688-0.14667zm41.539-1.0375c-0.0692-0.11019-0.0523-0.14385 0.0429-0.0859 0.18888 0.11497 1.1006-0.0463 1.0168-0.17981-0.074-0.11797 0.94491-0.078 1.0666 0.0418 0.0491 0.0484 7e-3 0.088-0.0932 0.088-0.10039 0-0.1411 0.066-0.0905 0.14666 0.0506 0.0807 0.0211 0.14667-0.0657 0.14667-0.0867 0-0.1577-0.0742-0.1577-0.165 0-0.1589-0.29138-0.13609-1.2321 0.0965-0.22816 0.0564-0.41762 0.0218-0.4871-0.0889zm2.704-0.0161c0.043-0.0685 0.14057-0.0866 0.21681-0.0402 0.19483 0.1186 0.17289 0.16486-0.0782 0.16486-0.11925 0-0.18163-0.0561-0.13862-0.12463zm1.0424 0c0.043-0.0685 0.14057-0.0866 0.21681-0.0402 0.19483 0.1186 0.17289 0.16486-0.0782 0.16486-0.11925 0-0.18163-0.0561-0.13862-0.12463zm36.621 0.037c-0.0471-0.0751-0.0287-0.17119 0.0408-0.21355 0.0696-0.0424 0.12653 0.0191 0.12653 0.13653 0 0.24732-0.047 0.26892-0.16737 0.077zm2.2012 0.04c0.0539-0.0531 0.0147-0.20158-0.0869-0.33-0.16328-0.20626-0.15464-0.21017 0.0741-0.0335 0.23296 0.17989 0.23616 0.46005 5e-3 0.46005-0.0498 0-0.0464-0.0434 7e-3 -0.0965zm3.0787-0.0328c0-0.0807 0.067-0.18745 0.14891-0.23731 0.0819-0.0498 0.14891-0.0246 0.14891 0.056 0 0.0807-0.067 0.18746-0.14891 0.23731-0.0819 0.0498-0.14891 0.0246-0.14891-0.056zm3.4496 1e-3c-0.15705-0.0981-0.14405-0.14465 0.0621-0.22257 0.14341-0.0542 0.3333-0.0265 0.42197 0.0616 0.1163 0.11552 0.0818 0.13035-0.12377 0.0532-0.19893-0.0746-0.2525-0.0551-0.17735 0.0646 0.12685 0.20215 0.0869 0.21157-0.18298 0.0431zm-4.6409-0.22308c0-0.0317 0.104-0.0969 0.23109-0.145 0.13253-0.0501 0.1923-0.0255 0.14012 0.0577-0.0874 0.13936-0.37121 0.20612-0.37121 0.0873zm-41.981-0.32125c7e-3 -0.17087 0.0424-0.20561 0.09-0.0886 0.043 0.10588 0.0377 0.23238-0.0117 0.28112-0.0495 0.0487-0.0847-0.0379-0.0782-0.1925zm34.834-0.0589c-0.17528-0.10788-0.18365-0.1746-0.0397-0.31637 0.21688-0.21362 0.38288-0.0938 0.31221 0.22545-0.0359 0.16215-0.11427 0.1883-0.2725 0.0909zm-36.457-0.1905c-0.10846-0.12873-0.11065-0.25627-7e-3 -0.40333 0.11493-0.16293 0.17004-0.17064 0.22725-0.0318 0.0916 0.22243 0.89818 0.24589 0.97182 0.0283 0.0289-0.0853 0.17136-0.11013 0.31666-0.0552 0.24883 0.0941 0.24949 0.11584 0.0113 0.37508-0.29497 0.32102-1.2756 0.37712-1.5201 0.087zm2.3102 0.0945c-0.13897-0.13687 0.029-0.34621 0.27774-0.34621 0.11802 0 0.21457 0.099 0.21457 0.22 0 0.22091-0.31434 0.30151-0.49231 0.12621zm32.284-0.0276c0.0819-0.0776 0.37462-0.18794 0.65051-0.24527 0.38804-0.0806 0.48657-0.0593 0.43521 0.0945-0.0369 0.1104-0.32617 0.21947-0.65051 0.24527-0.37672 0.03-0.53124-4e-3 -0.43521-0.0945zm3.4994-0.0986c0-0.15107 0.0976-0.22299 0.2606-0.19207 0.31387 0.0595 0.29408 0.31983-0.0294 0.38616-0.13491 0.0277-0.23123-0.0532-0.23123-0.19409zm0.97834 0.0899c-0.0449-0.0715 0.0233-0.21578 0.15147-0.32057 0.19201-0.15695 0.25558-0.15466 0.3608 0.013 0.0703 0.11196 0.0947 0.25622 0.0543 0.32058-0.0987 0.15724-0.46502 0.14881-0.56659-0.0131zm1.5545-0.0883c-0.1012-0.1201-0.24342-0.18222-0.31604-0.13801-0.0726 0.0442-0.13204 6e-3 -0.13204-0.0848 0-0.1043 0.12282-0.12681 0.33309-0.0611 0.1832 0.0573 0.72942 0.0924 1.2138 0.0781 0.77645-0.023 0.85826 0 0.69104 0.19908-0.25339 0.30072-1.5381 0.30556-1.7899 7e-3zm2.2647 0.0491c0.0367-0.10854 0.18615-0.22015 0.33211-0.24802 0.16978-0.0324 0.24137 0.0204 0.19869 0.14667-0.0367 0.10853-0.18615 0.22015-0.33211 0.24801-0.16977 0.0324-0.24136-0.0204-0.19869-0.14666zm1.9943-0.0613c-0.0627-0.16085-0.0149-0.21633 0.15786-0.18333 0.13625 0.026 0.27563 0.12981 0.30971 0.23065 0.0912 0.26968-0.36194 0.22381-0.46757-0.0473zm0.80254 0.0106c0-0.121 0.10052-0.22 0.22337-0.22s0.22336 0.099 0.22336 0.22-0.10051 0.22-0.22336 0.22-0.22337-0.099-0.22337-0.22zm1.446-0.0733c-0.0892-0.33593 0.30914-0.41268 0.60899-0.11734 0.27438 0.27025 0.21412 0.41067-0.17621 0.41067-0.22967 0-0.38239-0.1035-0.43278-0.29333zm-129.01-2.9881c-0.0932-0.10485-0.2018-0.46634-0.24131-0.8033-0.05918-0.50456-0.03614-0.58344 0.1306-0.44714 0.11134 0.091 0.16572 0.224 0.12084 0.29553-0.04488 0.0715 0.12733 0.13005 0.3827 0.13005 0.27162 0 0.42611 0.0609 0.37227 0.14667-0.05062 0.0807-0.22936 0.14667-0.3972 0.14667-0.25116 0-0.28864 0.0649-0.21174 0.36667 0.10541 0.41368 0.08456 0.43568-0.15616 0.16485zm0.13121-1.3077c-0.32563-0.41577-0.31053-0.49493 0.09444-0.49493 0.43922 0 0.53876 0.21713 0.22983 0.50137-0.14125 0.12996-0.21864 0.12842-0.32427-6e-3zm40.589-1.9005c-0.03177-0.22031-0.1342-0.31567-0.30817-0.28691-0.15082 0.0249-0.26059-0.0486-0.26059-0.17467 0-0.28113 0.15023-0.36602 0.72396-0.40908 0.27614-0.0207 0.46731-0.1163 0.46731-0.23362 0-0.13008 0.14124-0.18254 0.4095-0.15213 0.32822 0.0372 0.40216 0.11359 0.3725 0.38492-0.02135 0.19529 0.02591 0.30023 0.11168 0.24802 0.08178-0.0498 0.14868-0.0206 0.14868 0.0648s-0.096 0.15532-0.21333 0.15532c-0.11733 0-0.25357 0.12488-0.30275 0.2775-0.08162 0.25329-0.48021 0.44877-0.92543 0.45383-0.09668 1e-3 -0.19719-0.14649-0.22336-0.32799zm-12.33-120.97c0.0746-0.13728 0.08773-0.30185 0.02918-0.36573-0.05854-0.0639-0.01398-0.0634 0.09901 1e-3 0.14136 0.0807 0.18201 0.0537 0.1303-0.0865-0.04134-0.11207-0.15552-0.18562-0.25375-0.16345-0.09822 0.0222-0.13796-0.0245-0.0883-0.10359 0.1201-0.19141 0.52748-0.0293 0.52748 0.20996 0 0.10373 0.10051 0.2266 0.22336 0.27303 0.12285 0.0464 0.22336 0.1564 0.22336 0.24435 0 0.0913-0.07994 0.11075-0.18614 0.0454-0.30996-0.19072-0.5859-0.18489-0.50967 0.0107 0.03948 0.10134-0.01872 0.18425-0.12934 0.18425-0.14323 0-0.16208-0.0719-0.0655-0.24962zm0.73875-0.51172c-0.1036-0.12295-0.15952-0.25195-0.12428-0.28666 0.03525-0.0347 0.14588 0.0659 0.24585 0.22355 0.21619 0.34096 0.14409 0.37839-0.12157 0.0631zm57.62-133.02c-6e-3 -0.0032-0.0346-0.1876-0.0644-0.40973-0.049-0.36602-0.0323-0.3824 0.17836-0.1749 0.12786 0.12593 0.31944 0.19609 0.42574 0.15591 0.1063-0.04018 0.27339 0.02203 0.37131 0.13823 0.0979 0.11621 0.15307 0.21828 0.12256 0.22683-0.0557 0.0156-1.0144 0.07464-1.0336 0.06365zm0.90371-0.16832c0-0.12139-0.28914-0.19003-0.35543-0.08438-0.043 0.06854 0.0194 0.12462 0.13862 0.12462 0.11924 0 0.21681-0.01811 0.21681-0.04023zm1.7811 0.0088c-0.15365-0.18235-0.21799-0.18955-0.32739-0.03667-0.10468 0.14627-0.12063 0.1394-0.069-0.02972 0.037-0.121 0.14257-0.2035 0.2347-0.18334 0.0921 0.02017 0.16753-0.04679 0.16753-0.1488 0-0.1244-0.29912-0.20007-0.9084-0.22981-0.50963-0.02488-0.87218 0.01336-0.8259 0.08712 0.0706 0.11257-0.0567 0.12144-0.67544 0.04704-0.0559-0.0067-0.14418-0.14422-0.19617-0.30555-0.052-0.16134-0.20727-0.2948-0.34508-0.2966-0.1378-0.0018-0.41808-0.13233-0.62282-0.29007-0.20475-0.15775-0.47279-0.28364-0.59564-0.27977-0.14652 0.0046-0.1209 0.05041 0.0744 0.1331 0.21108 0.08934 0.2306 0.12905 0.067 0.13636-0.12694 0.0057-0.32108-0.07219-0.43141-0.17303-0.164-0.14988-0.18333-0.13511-0.10594 0.08095 0.064 0.17874 0.0388 0.2303-0.0779 0.15927-0.11302-0.0688-0.14166-0.02585-0.0831 0.12458 0.0613 0.15725 0.0119 0.21838-0.15669 0.19401-0.37108-0.05364-0.32715-0.74024 0.0479-0.749 0.16131-0.0038 0.27655-0.08627 0.25607-0.18334-0.0205-0.09707 0.0369-0.17648 0.12761-0.17648 0.0907 0 0.12758 0.09564 0.082 0.21253-0.0549 0.14087-0.0112 0.18548 0.12944 0.13231 0.1684-0.06365 0.13607-0.17858-0.15649-0.55638-0.2028-0.26189-0.36874-0.55243-0.36874-0.64565 0-0.09322-0.0747-0.16949-0.16603-0.16949-0.10197 0-0.0732 0.13949 0.0744 0.36151 0.31531 0.47398 0.30607 0.60404-0.0201 0.28278-0.29967-0.29517-0.33666-0.49474-0.13981-0.75429 0.0872-0.11493 0.0849-0.18334-6e-3 -0.18334-0.1855 0-0.19858-2.617-0.0136-2.7296 0.0785-0.04778 0.0624-0.17133-0.0377-0.29015-0.13792-0.16368-0.12387-0.20694 0.0672-0.20694 0.30365 0 0.31596-0.23384 0.0182-0.34638-0.29649-0.11206-0.28636-0.38696 0.0143-0.38696 0.39138 0 1.1124-0.49098 1.0726-0.73037-0.0477-0.28705 0.14646-0.59096 0.37378-0.58498 0.0975 0.0026 0.0473 0.10157-0.1117 0.22-0.15898 0.11844-0.2141 0.21534-0.12249 0.21534 0.0916 0 0.30544-0.1739 0.47518-0.38645 0.17787-0.22272 0.31064-0.30039 0.31337-0.18334 3e-3 0.14468 0.0633 0.12704 0.20832-0.06133 0.15235-0.19789 0.22315-0.21634 0.28132-0.07333 0.0556 0.13666 0.0811 0.14018 0.0895 0.01238 6e-3 -0.0983 0.10363-0.14401 0.21592-0.10157 0.24074 0.09099 0.73013-0.34263 0.60741-0.5382-0.14388-0.2293 0.0341-0.14855 0.24978 0.11331 0.17618 0.21392 0.17356 0.23091-0.019 0.12315-0.12715-0.07116-0.17219-0.06973-0.10455 0.0033 0.0653 0.07058 0.26638 0.14326 0.44673 0.16153 0.5238 0.05305 0.83272 0.13218 0.94405 0.24183 0.17709 0.17443 0.37533 0.11184 0.25751-0.08131-0.0887-0.14548-0.0652-0.1462 0.11389-0.0035 0.17823 0.14202 0.26714 0.14202 0.4227 0 0.15587-0.1423 0.17505-0.14157 0.0919 0.0035-0.11099 0.19362 0.088 0.25487 0.26425 0.08131 0.16895-0.1664 0.54169-0.1774 0.54169-0.01598 0 0.08216-0.10051 0.11139-0.22336 0.06496-0.12285-0.04643-0.22336-0.02049-0.22336 0.05764s0.13006 0.14206 0.28902 0.14206c0.15897 0 0.33685 0.0762 0.39528 0.16933 0.0721 0.11494 0.0391 0.12945-0.10289 0.04518-0.16226-0.09632-0.17413-0.07674-0.053 0.08734 0.12989 0.17589 0.17763 1.355 0.065 1.6048-0.0182 0.04033-0.0188 0.13934-1e-3 0.22 0.12122 0.55986 0.11804 0.66001-0.021 0.66001-0.086 0-0.11638-0.10243-0.0676-0.22762 0.0509-0.13052 0.0259-0.1894-0.0585-0.13801-0.0809 0.04928-0.14717 0.18082-0.14717 0.2923 0 0.11148-0.0662 0.24301-0.1472 0.2923-0.0844 0.05138-0.10937-0.0075-0.0585-0.13801 0.057-0.14636 5e-3 -0.22762-0.14594-0.22762-0.16018 0-0.20464 0.08144-0.14012 0.25667 0.059 0.16036-0.0226 0.11909-0.21747-0.11-0.25856-0.30389-0.34565-0.33349-0.50867-0.17286-0.12205 0.12025-0.13171 0.17592-0.0255 0.14667 0.0942-0.02593 0.16119 0.01525 0.1489 0.09152-0.0123 0.07627-0.19286 0.14652-0.40129 0.15612-0.35916 0.01655-0.37768-0.01944-0.35437-0.68867 0.0135-0.38837-0.0337-0.70613-0.105-0.70613s-0.13061 0.0825-0.13186 0.18334c-1e-3 0.11354-0.0439 0.1275-0.11168 0.03667-0.17224-0.23091-0.51553-0.25373-0.66821-0.04441-0.10158 0.13926-0.11664 0.12147-0.0555-0.06559 0.055-0.16847 6e-3 -0.25667-0.14365-0.25667-0.12511 0-0.18654 0.06524-0.1365 0.14499 0.05 0.07974 2e-3 0.11125-0.10736 0.07002-0.28557-0.10794-0.31255 0.60212-0.0385 1.014 0.18798 0.28259 0.19005 0.33542 0.0131 0.33542-0.1277 0-0.17711-0.09104-0.12605-0.23223 0.0462-0.12772 0.0345-0.18855-0.0259-0.13517-0.15367 0.13577-0.21968 0.85629-0.0785 0.85629 0.0638 0 0.14282-0.07916 0.17556-0.17592 0.0366-0.10813 0.0981-0.07694 0.15962 0.08095 0.0598 0.15359 0.0409 0.22084-0.0471 0.16726-0.20886-0.12713-0.18266 0.12261 0.0389 0.37115 0.10238 0.11483 0.0435 0.09207-0.13076-0.05056l-0.31691-0.25934 0.0191 0.92323c0.0155 0.7479 0.0643 0.92007 0.25707 0.90657 0.18437-0.01291 0.2347 0.11928 0.22337 0.58667l-0.0146 0.60333 0.59244-0.02967c0.37163-0.01861 0.6654-0.12794 0.78818-0.29334 0.10766-0.14502 0.22637-0.24717 0.26379-0.227 0.21829 0.11763 0.22108-0.0086 7e-3 -0.33-0.13415-0.20167-0.20066-0.36667-0.1478-0.36667 0.0529 0 0.0209-0.08934-0.0712-0.19852-0.092-0.10919-0.15365-0.36068-0.137-0.55886 0.0267-0.3176 0.0694-0.34218 0.3597-0.20722 0.18118 0.08422 0.297 0.20478 0.25739 0.26792-0.0396 0.06314-0.12978 0.07964-0.20037 0.03668-0.20498-0.12478-0.34835 0.22889-0.16571 0.40878 0.1064 0.1048 0.16571 0.10897 0.16571 0.01166 0-0.08336 0.10754-0.15156 0.23897-0.15156 0.18598 0 0.16798 0.05274-0.0812 0.23784-0.28348 0.21061-0.28769 0.44661-8e-3 0.44661 0.16066 0 0.38674-0.62717 0.37198-1.0319-9e-3 -0.2558 0.0645-0.37191 0.23658-0.37191 0.14264 0 0.21857 0.08104 0.17668 0.18857-0.0404 0.10371-0.15006 0.18958-0.24368 0.19082-0.0936 0.0012-0.0697 0.06573 0.0532 0.14332 0.12285 0.07759 0.33117 0.10809 0.46293 0.06778 0.13177-0.04031 0.32425 0.02719 0.42774 0.15002 0.10349 0.12282 0.13825 0.22331 0.0772 0.22331-0.061 0-0.0471 0.0825 0.031 0.18334 0.078 0.10083 0.12989 0.63912 0.11522 1.1962-0.0219 0.83004-0.0873 1.0749-0.36265 1.3567-0.39028 0.3994-0.53794 0.42785-0.65542 0.1263-0.0525-0.13474-0.1812-0.18107-0.33818-0.12174-0.18514 0.06998-0.22058 0.04344-0.13154-0.09847 0.0811-0.12925 0.0644-0.15923-0.05-0.0896-0.2464 0.14999-0.21458 0.53426 0.0364 0.43941 0.11457-0.0433 0.25356-0.0066 0.30889 0.08157 0.0553 0.08817 0.0453 0.15085-0.0222 0.1393-0.0675-0.01156-0.24822-0.01319-0.40157-0.0036-0.23054 0.01436-0.24672 0.05547-0.0935 0.23737 0.10195 0.121 0.15187 0.22 0.11092 0.22-0.0409 0-0.16051-0.10212-0.26568-0.22694zm-2.1472-0.78997c-0.054-0.08603-0.16385-0.15642-0.24414-0.15642-0.0803 0-0.0596 0.09234 0.046 0.20521 0.21378 0.22848 0.35092 0.19472 0.19813-0.04878zm-2.612-0.74309c0-0.08067-0.071-0.14667-0.15769-0.14667-0.0867 0-0.11629 0.066-0.0657 0.14667 0.0506 0.08067 0.12158 0.14667 0.1577 0.14667 0.0361 0 0.0657-0.066 0.0657-0.14667zm5.0909-4.84c0.0723 0 0.0597-0.132-0.028-0.29334-0.0877-0.16133-0.23224-0.29334-0.32129-0.29334-0.11315 0-0.11101 0.06039 7e-3 0.20054 0.12822 0.15217 0.11679 0.2432-0.0474 0.37739-0.119 0.09727-0.17491 0.28323-0.12426 0.41324 0.0773 0.19836 0.11545 0.18484 0.23727-0.08406 0.0798-0.17624 0.2043-0.32044 0.27657-0.32044zm-4.81-0.78658c0.13666-0.16218 0.0954-0.18615-0.21882-0.12699-0.28263 0.05322-0.33328 0.10662-0.18744 0.19766 0.25002 0.15608 0.20923 0.16317 0.40626-0.07067zm3.8886-0.13583c0-0.0771 0.10213-0.0567 0.22696 0.04534 0.24931 0.2038 0.456 0.10821 0.3008-0.13912-0.0537-0.08563-0.31172-0.15522-0.57332-0.15464-1.1292 0.0025-1.2235-0.01117-1.003-0.14545 0.12752-0.07762 0.32675-0.07023 0.49483 0.01838 0.15475 0.08157 0.31886 0.11139 0.36469 0.06625 0.16241-0.15997-0.62731-0.34844-0.8906-0.21254-0.42583 0.21978-0.31217 0.51117 0.18614 0.47719 0.2457-0.01675 0.44672 0.01796 0.44672 0.07715s0.10052 0.10761 0.22337 0.10761 0.22336-0.06308 0.22336-0.14018zm1.1051 7.3572c-0.0467-0.07441-0.0297-0.12009 0.0379-0.1015 0.0675 0.01858 0.34507-0.08279 0.61679-0.22528 0.27173-0.14249 0.55003-0.23856 0.61846-0.21349 0.0684 0.02507-0.17094 0.18732-0.53191 0.36057-0.36204 0.17376-0.69437 0.25433-0.7412 0.1797zm10.037-0.14566c-0.13728-0.1397-0.21567-0.38151-0.17424-0.53754 0.0628-0.23642-0.0258-0.29952-0.53223-0.37929-0.33414-0.05263-0.61311-0.17741-0.61994-0.27729-7e-3 -0.09988-0.0288-0.32505-0.0487-0.50038-0.0233-0.20424 0.0839-0.38216 0.29834-0.49519 0.18734-0.09875 0.30031-0.26456 0.25664-0.37666-0.0429-0.11014 0.0252-0.23927 0.1514-0.28696 0.12617-0.04769 0.19708-0.16967 0.15758-0.27107-0.0395-0.1014 0.0326-0.2697 0.16015-0.37399 0.1894-0.15482 0.19747-0.23148 0.044-0.41763-0.1587-0.19249-0.14767-0.21313 0.0708-0.13249 0.14235 0.05253 0.24537 0.04839 0.22896-0.0092-0.0164-0.0576 0.0603-0.2653 0.17051-0.46156 0.1794-0.31948 0.16678-0.38363-0.12047-0.61273-0.17646-0.14074-0.25702-0.29474-0.17902-0.34222 0.078-0.04748 0.1821-0.02214 0.23133 0.05632 0.0492 0.07846 0.19077 0.10438 0.31453 0.05761 0.12376-0.04678 0.19506-0.11456 0.15843-0.15063-0.0366-0.03607 0.0247-0.23894 0.13634-0.45082 0.15198-0.28853 0.16075-0.43528 0.0349-0.58458-0.1289-0.15298-0.11881-0.18888 0.0434-0.15439 0.1422 0.03024 0.21341-0.09003 0.21766-0.36759 3e-3 -0.22689 0.0705-0.45789 0.14891-0.51334 0.0784-0.05545 0.15439-0.23281 0.16881-0.39414 0.0254-0.28381 0.0196-0.28443-0.17847-0.01895-0.1866 0.25013-0.20209 0.22868-0.17513-0.24265 0.0163-0.28437 0.0803-0.48616 0.1423-0.44842 0.062 0.03774 0.14865-0.02357 0.19254-0.13624 0.0439-0.11267 0.18446-0.20485 0.31237-0.20485 0.1748 0 0.15306 0.05907-0.0876 0.23784-0.17607 0.13081-0.27947 0.27789-0.22977 0.32683 0.0497 0.04895 0.25585-0.06208 0.45814-0.24673l0.36779-0.33573 0.59604 0.28364c0.32782 0.156 0.55447 0.3499 0.50365 0.43088-0.0508 0.08098-6e-3 0.25 0.10004 0.37561 0.18581 0.22051 0.24098 0.37808 0.35208 1.0055 0.0286 0.16134 0.0627 0.29334 0.0757 0.29334 0.0131 0 0.0472 0.12155 0.0757 0.27011 0.0656 0.34127 0.1924 0.46907 0.33052 0.33303 0.059-0.05816 0.04-0.15166-0.0422-0.20778-0.0823-0.05611-0.1429-0.20103-0.13474-0.32203 8e-3 -0.121-0.0477-0.34551-0.12402-0.49891-0.11401-0.22899-0.0936-0.26178 0.11426-0.18324 0.16757 0.06334 0.23005 0.03367 0.18485-0.08776-0.0376-0.10089-0.1325-0.1706-0.21099-0.15492-0.0785 0.01568-0.14271-0.06709-0.14271-0.18394 0-0.18211 0.0354-0.1809 0.24786 0.0085 0.13632 0.12151 0.27832 0.19093 0.31555 0.15426 0.0372-0.03667 0.0677 0.05748 0.0677 0.20921 0 0.15173-0.0663 0.26409-0.14745 0.24968-0.19082-0.03389-0.21453 0.38392-0.029 0.5112 0.0781 0.05356 0.14909 0.25802 0.15781 0.45436 0.0121 0.27333-0.0461 0.34101-0.24865 0.28885-0.28165-0.07255-0.36706 0.17968-0.11318 0.33423 0.0832 0.05067 0.10639 0.16376 0.0514 0.25132-0.0611 0.09731-0.0302 0.1168 0.0793 0.05014 0.13885-0.08452 0.13727-0.16385-7e-3 -0.35266-0.15627-0.20447-0.15302-0.21452 0.0202-0.06257 0.22019 0.19313 0.33401 0.81006 0.1261 0.6835-0.20576-0.12525-0.13841 0.09508 0.10122 0.3311 0.1236 0.12174 0.18666 0.28203 0.14012 0.35619-0.0465 0.07416 0.0701 0.13383 0.25922 0.1326 0.27662-0.0018 0.30017-0.03004 0.12047-0.14442-0.14268-0.09082-0.15751-0.14299-0.0411-0.14442 0.25139-0.0031 0.67908 0.83464 0.48609 0.95212-0.0822 0.05006-0.26626-0.02501-0.40895-0.1668-0.24671-0.24515-0.24627-0.2529 9e-3 -0.1577 0.16149 0.06025 0.2321 0.04239 0.17735-0.04487-0.10746-0.17127-0.52012-0.19583-0.52012-0.03095 0 0.06272 0.0982 0.25205 0.21811 0.42074 0.11996 0.16869 0.1758 0.34837 0.12409 0.3993-0.0517 0.05093-0.0119 0.0926 0.0885 0.0926 0.10038 0 0.14157 0.06525 0.0915 0.14499-0.0547 0.0871 0.0162 0.10542 0.17734 0.04587 0.24422-0.09021 0.24826-0.07441 0.045 0.17581-0.20259 0.24936-0.19912 0.26598 0.0372 0.17873 0.14333-0.05291 0.26059-0.03226 0.26059 0.04587 0 0.07814-0.071 0.14206-0.15769 0.14206-0.0867 0-0.11268 0.07175-0.0576 0.15945 0.055 0.08769 0.23179 0.12551 0.39282 0.08403 0.21316-0.0549 0.26998-0.01689 0.20893 0.13978-0.0475 0.12193-4e-3 0.20511 0.0999 0.19192 0.35338-0.04475 0.52475 0.01297 0.5982 0.20149 0.0439 0.11275-0.0456 0.19888-0.22018 0.21183-0.20446 0.01517-0.26813-0.04512-0.20871-0.19762 0.047-0.1207 0.0235-0.18172-0.0522-0.13561-0.0757 0.04611-0.13717 0.19804-0.13648 0.33762 2e-3 0.35986-0.0933 0.7413-0.21444 0.86065-0.057 0.05611-0.10255 0.17352-0.1013 0.26092 1e-3 0.08739 0.0595 0.06994 0.12946-0.03877 0.10548-0.16394 0.16192-0.16102 0.33086 0.01711 0.17853 0.18823 0.22812 0.18547 0.40141-0.02235 0.17412-0.20883 0.18038-0.20272 0.0524 0.05121-0.0928 0.18419-0.30353 0.29207-0.58342 0.29868-0.37635 0.0089-0.43598-0.04212-0.42281-0.36166 0.0138-0.33565-0.0465-0.37642-0.61754-0.41712-0.57668-0.0411-0.66734 0.01134-0.62014 0.35871 0.0186 0.13671-0.34954 0.34226-0.60835 0.33969-0.17315-0.0017-0.16408-0.03621 0.0404-0.15344 0.14504-0.08317 0.22485-0.21316 0.17734-0.28888-0.0475-0.07571 1e-3 -0.13966 0.10855-0.14211 0.11974-0.0027 0.094-0.06237-0.0668-0.1546-0.32696-0.18754-0.55723-0.05762-0.55723 0.31439 0 0.16006-0.10163 0.28468-0.23215 0.28468-0.12769 0-0.19902 0.0528-0.15853 0.11733 0.0405 0.06453-0.0852 0.11733-0.27941 0.11733-0.19417 0-0.31923-0.05388-0.27791-0.11973 0.0413-0.06585 0.1375-0.08176 0.21375-0.03534 0.0762 0.04641 0.13861 0.01449 0.13861-0.07094s0.10052-0.15532 0.22337-0.15532 0.21807-0.1155 0.2116-0.25667c-8e-3 -0.1658-0.0393-0.18901-0.0895-0.06556-0.0582 0.1431-0.12936 0.12467-0.28323-0.07333-0.15671-0.20167-0.23482-0.22084-0.32902-0.08075-0.0909 0.13526-0.23673 0.06732-0.55281-0.25764-0.33257-0.3419-0.38925-0.48077-0.25158-0.61637 0.20163-0.19859 0.24249-0.46645 0.0536-0.35148-0.0683 0.04155-0.12409-0.02056-0.12409-0.13801 0-0.26142 0.19791-0.28193 0.29161-0.03021 0.0531 0.14255 0.1138 0.13847 0.273-0.01833 0.15999-0.15758 0.16386-0.21643 0.0177-0.2692-0.10289-0.03714-0.1526-0.12245-0.11048-0.18958 0.0598-0.09522-0.81199-0.10333-1.4362-0.01336-0.0527 0.0076-0.13997 0.12729-0.19401 0.266-0.054 0.13871-0.0542 0.20878-3e-4 0.15572 0.0539-0.05306 0.24938 0.06445 0.43445 0.26114 0.34345 0.36501 0.69147 0.51107 0.40354 0.16936-0.10996-0.1305-0.11124-0.25424-4e-3 -0.40334 0.12793-0.17816 0.14036-0.17183 0.0724 0.03689-0.0451 0.13858-8e-3 0.29716 0.083 0.35239 0.10947 0.06664 0.0727 0.16689-0.10942 0.29803-0.15091 0.10869-0.21769 0.19761-0.14839 0.19761s0.0116 0.12448-0.12817 0.27662c-0.17607 0.19164-0.40806 0.26193-0.75512 0.2288-0.50894-0.04858-0.83655 0.25886-0.49645 0.46588 0.0964 0.05869 0.12374 0.03428 0.0655-0.0585-0.0549-0.08756-0.0318-0.20065 0.0514-0.25132 0.0832-0.05067 0.15134-0.02223 0.15134 0.0632s0.071 0.15532 0.15769 0.15532c0.0867 0 0.12457-0.0528 0.0841-0.11734-0.0405-0.06453 0.0873-0.11733 0.28406-0.11733 0.19673 0 0.32084 0.0363 0.27579 0.08067-0.045 0.04437-0.15449 0.08067-0.24322 0.08067-0.0887 0-0.18925 0.08255-0.22339 0.18343-0.042 0.12418 0.0261 0.15052 0.21095 0.08154 0.24399-0.09106 0.24909-0.07807 0.0479 0.12212-0.29255 0.2911-0.60722 0.27805-0.91786-0.03806zm0.54736 0.01763c-0.0506-0.08067-0.17184-0.14566-0.26938-0.14442-0.10656 0.0013-0.0882 0.05899 0.046 0.14442 0.28607 0.18209 0.33762 0.18209 0.22336 0zm1.3571-4.0011c0.055-0.05416 0.024-0.18865-0.0688-0.29885-0.0929-0.11021-0.11917-0.25813-0.0585-0.32871 0.0607-0.07059-0.0236-0.03369-0.18743 0.08199-0.1638 0.11568-0.31615 0.21956-0.33855 0.23084s-1e-3 0.12245 0.0475 0.24704c0.087 0.22341 0.41092 0.2596 0.60576 0.06769zm-0.38918-0.26089c0-0.08543 0.067-0.11453 0.14891-0.06468 0.0819 0.04986 0.1489 0.11975 0.1489 0.15532 0 0.03557-0.067 0.06468-0.1489 0.06468s-0.14891-0.0699-0.14891-0.15532zm-0.44485 4.4044c0.27226-0.16955 0.44485-0.18001 0.44485-0.02697 0 0.0635-0.14993 0.12658-0.33317 0.14018-0.26184 0.01943-0.28575-0.0048-0.11168-0.11321zm0.81712-0.02159c0.1638-0.10258 0.34807-0.19648 0.4095-0.20867 0.30708-0.06094 0.31233-0.08818 0.0374-0.19387-0.20283-0.07797-0.35965-0.03963-0.49217 0.12031-0.16252 0.19616-0.16535 0.17448-0.0172-0.13193 0.24991-0.51686 0.25044-0.51704 0.59186-0.21271 0.26337 0.23476 0.32768 0.24346 0.44536 0.06021 0.0756-0.11779 0.13856-0.13926 0.13981-0.0477 3e-3 0.20173-0.53093 0.56062-1.0401 0.6994-0.3471 0.09461-0.35213 0.08886-0.0744-0.08503zm10.996-0.01059c-0.1402-0.22344 0.0796-0.30731 0.31055-0.11852 0.12124 0.09911 0.28576 0.14044 0.36559 0.09184 0.0798-0.04859 0.1797-0.03328 0.22193 0.03404 0.0422 0.06732-0.12422 0.12239-0.36992 0.12239s-0.48337-0.05839-0.52815-0.12976zm2.5943 0.01172c0.0865-0.08523 0.24524-0.1261 0.35267-0.09083 0.11153 0.03662 0.044 0.1031-0.15733 0.15496-0.24769 0.0638-0.30583 0.04471-0.19534-0.06413zm3.4223-0.14476c0.039-0.14698 0.11679-0.23934 0.17281-0.20524 0.056 0.03411 0.19918 0.0013 0.31811-0.07274 0.17479-0.10891 0.15916-0.13851-0.0815-0.15436-0.1638-0.01079-0.3391-0.01475-0.38955-0.0088-0.0505 6e-3 -0.084-0.13474-0.0744-0.31264 0.0184-0.34479-0.41174-0.46394-0.75798-0.20995-0.0988 0.07247-0.24662 0.09096-0.32854 0.0411-0.19955-0.12148-0.0486-0.47644 0.25074-0.58957 0.19776-0.07475 0.19158-0.03751-0.0346 0.20866-0.15143 0.1648-0.20612 0.29965-0.12156 0.29965 0.0846 0 0.23656-0.09827 0.33777-0.21839 0.1012-0.12011 0.2534-0.17615 0.33822-0.12452 0.0848 0.05163-2e-3 -0.1801-0.19321-0.51495-0.19106-0.33485-0.45232-0.60983-0.58056-0.61107-0.20492-2e-3 -0.20611-0.01948-0.01-0.14442 0.14891-0.09478 0.16131-0.14292 0.0372-0.14442-0.10238-0.0012-0.18614-0.10222-0.18614-0.2244 0-0.12219-0.18575-0.33669-0.41278-0.47667-0.22702-0.13998-0.40677-0.35351-0.39943-0.47452 0.0158-0.26013-0.39583-1.0267-0.55129-1.0267-0.27113 0-0.44141 0.56049-0.24877 0.8189 0.07 0.09389 0.0335 0.15889-0.0892 0.15889-0.12033 0-0.18581-0.11177-0.1557-0.26581 0.0286-0.14619-3e-3 -0.29908-0.0695-0.33973-0.0668-0.04066-0.13297 0.58496-0.14706 1.3903-0.0142 0.8053 0.0279 1.4632 0.0934 1.4619 0.0654-0.0012 0.21948-0.06482 0.34231-0.1413 0.16136-0.10047 0.25142-0.06932 0.32458 0.11225 0.15725 0.3903 0.13918 1.2046-0.0267 1.2046-0.0819 0-0.14891 0.0699-0.14891 0.15532 0 0.08543 0.0611 0.11811 0.13584 0.07263 0.16847-0.10255 0.1189 0.30758-0.0561 0.46447-0.0701 0.06283-0.0875 0.04496-0.0388-0.03973 0.0488-0.08469-0.048-0.23806-0.21507-0.34083-0.16768-0.10314-0.2595-0.11629-0.20494-0.02935 0.0543 0.08662 0.0279 0.1575-0.0589 0.1575-0.0867 0-0.15769-0.10491-0.15769-0.23312 0-0.19587-0.16611-0.22462-1.0394-0.17994-0.78338 0.04008-1.0588 0.0034-1.1181-0.14876-0.0433-0.11107-0.16746-0.16839-0.27597-0.12738-0.10851 0.04101-0.19729-0.01524-0.19729-0.125 0-0.10976 0.0558-0.16558 0.1241-0.12403 0.0683 0.04154 0.12409-0.0057 0.12409-0.1049 0-0.09924 0.11726-0.31074 0.26059-0.47 0.25155-0.27951 0.24982-0.284-0.0496-0.12947-0.23649 0.12203-0.31024 0.11601-0.31024-0.02533 0-0.10497 0.1796-0.18541 0.41397-0.18541 0.22768 0 0.37595 0.06058 0.32949 0.13463-0.0465 0.07405 0.0576 0.05973 0.2313-0.03183 0.26078-0.13746 0.31579-0.30183 0.31579-0.94353 0-0.42739-0.0461-0.82241-0.1023-0.87783-0.15205-0.14975-0.16577-0.68067-0.0152-0.58903 0.0712 0.04335 0.11005-0.50421 0.0863-1.2168-0.038-1.1395-0.0753-1.2931-0.30903-1.2744-0.21525 0.01719-0.23192-0.01901-0.0876-0.19028 0.14416-0.17107 0.20362-0.17513 0.31106-0.02123 0.0947 0.1357 0.11942 0.10613 0.0861-0.10306-0.0268-0.16836-0.18222-0.31245-0.36473-0.3382-0.17487-0.02467-0.43092-0.1678-0.56899-0.31807-0.23653-0.25743-0.23242-0.29155 0.0713-0.5907 0.17729-0.17462 0.29122-0.34813 0.25321-0.38559-0.038-0.03745-0.16148 0.02285-0.27434 0.13401-0.2183 0.21502-0.5748 0.17635-0.5748-0.06235 0-0.07871 0.061-0.10599 0.13548-0.06064 0.21562 0.13126 0.61776-0.07878 0.50517-0.26386-0.0562-0.09238 0.0164-0.0731 0.1614 0.04284 0.14498 0.11594 0.52967 0.2256 0.85487 0.24368 0.4942 0.02747 0.56264-0.0011 0.41686-0.17414-0.1054-0.12509-0.11459-0.20701-0.0232-0.20701 0.0832 0 0.18977 0.099 0.23691 0.22 0.0471 0.121 0.22579 0.22 0.39699 0.22 0.2078 0 0.27511-0.06095 0.20244-0.18333-0.0599-0.10084 0.0367-0.0576 0.21458 0.09606 0.31907 0.27565 0.46811 0.14178 0.16955-0.15229-0.10589-0.1043-0.0853-0.15156 0.0662-0.15156 0.12104 0 0.21585 0.0385 0.21069 0.08556-0.0316 0.28853 0.0521 0.45223 0.23111 0.45223 0.11286 0 0.317 0.1485 0.45362 0.33 0.13664 0.1815 0.20786 0.2475 0.15829 0.14667-0.0496-0.10083-0.0192-0.18334 0.0676-0.18334 0.0867 0 0.1577-0.06889 0.1577-0.1531 0-0.0842-0.10966-0.1337-0.24368-0.11-0.13911 0.0246-0.26126-0.06705-0.28464-0.21357-0.0225-0.14117 0.0201-0.25667 0.0948-0.25667s0.13573 0.06989 0.13573 0.15532c0 0.08543 0.0681 0.11387 0.15133 0.0632 0.0832-0.05067 0.12032-0.14157 0.0824-0.202-0.14882-0.23717 1.0144-0.0456 1.1943 0.19669 0.15482 0.20854 0.35618 0.24151 1.1299 0.18501 0.51781-0.03782 1.0755-0.11876 1.2393-0.17988l0.29782-0.11112-0.29782 0.25171c-0.19973 0.16881-0.22202 0.22892-0.0677 0.1825 0.16559-0.04979 0.23915 0.04702 0.2622 0.34506 0.0176 0.22784-0.0357 0.45549-0.11847 0.50589-0.0828 0.0504-0.1495 0.17024-0.14825 0.26631 1e-3 0.1055 0.0605 0.08755 0.14932-0.04532 0.1167-0.17459 0.1375-0.15266 0.10083 0.10622-0.0254 0.17942-0.10336 0.37742-0.1732 0.44-0.0698 0.06258-0.0809 0.03459-0.0245-0.0622 0.13937-0.23926-0.44248-0.55005-0.5899-0.3151-0.0661 0.1053-0.0412 0.13 0.0654 0.06508 0.0946-0.05756 0.17192-0.03476 0.17192 0.05067s-0.0595 0.15532-0.1322 0.15532-0.11825 0.2145-0.1012 0.47667c0.0171 0.26217-9e-3 0.88578-0.0587 1.3858-0.0493 0.50002-0.0651 0.88495-0.0351 0.85539 0.10024-0.09874 0.6109 0.4127 0.53416 0.53499-0.0416 0.06628-0.0103 0.1205 0.0697 0.1205 0.0799 0 0.1791-0.0825 0.2204-0.18334 0.0481-0.11727 0.0794-0.12335 0.0869-0.01687 6e-3 0.09156-0.16403 0.2799-0.37886 0.41855-0.25488 0.16449-0.34688 0.1831-0.26477 0.05354 0.20424-0.3223 0.19663-0.56522-0.0177-0.56522-0.27295 0-0.18621 0.68873 0.11584 0.91968 0.27219 0.20814 0.59009 1.243 0.41464 1.3498-0.0649 0.0395-0.16065-0.19098-0.2128-0.51219-0.14542-0.89576-0.34543-0.69364-0.32917 0.33267 0.011 0.6912-0.0496 0.97981-0.24607 1.1733-0.14333 0.14117-0.31736 0.25667-0.38675 0.25667-0.0694 0-0.20548 0.1485-0.30242 0.33-0.10616 0.19872-0.14478 0.22302-0.0971 0.06108 0.0516-0.17538 0.0143-0.24553-0.10708-0.20167-0.10244 0.03699-0.17321 0.13051-0.1573 0.20781 0.0159 0.07731-0.0586 0.14056-0.1657 0.14056-0.115 0-0.16562-0.10935-0.1237-0.26724zm-2.8168-5.1663c0.033-0.16893-9e-3 -0.23462-0.10997-0.173-0.0976 0.0594-0.16322-0.01862-0.16322-0.19398 0-0.16134-0.0527-0.32543-0.11716-0.36465-0.0644-0.03922-0.12023 0.1906-0.12398 0.51071-5e-3 0.45225 0.0453 0.57213 0.22713 0.53765 0.12867-0.02441 0.25792-0.16694 0.2872-0.31673zm3.1058-1.1421c0.0116-0.70569-0.032-1.1153-0.10628-0.99701-0.0693 0.11044-0.0958 0.24889-0.0589 0.30767 0.0369 0.05878-0.0115 0.15463-0.10729 0.213-0.10492 0.06387-0.13456 0.04274-0.0744-0.05307 0.0549-0.08756 0.0246-0.20501-0.0674-0.261-0.12084-0.07356-0.11605-0.13296 0.0173-0.2141 0.12971-0.07897 0.0902-0.14176-0.13302-0.21155-0.17461-0.05459-0.32261-0.1443-0.32888-0.19937-6e-3 -0.05506-0.0339-0.21562-0.0613-0.35679s0.0112-0.25667 0.0858-0.25667c0.16201 0 0.18519-0.43503 0.0241-0.45123-0.0614-0.0062-0.21997-0.03203-0.35232-0.05747s-0.33281 0.0099-0.44548 0.07845c-0.16314 0.09931-0.16721 0.16177-0.02 0.30681 0.14724 0.14503 0.18488 0.14057 0.18488-0.02192 0-0.13652 0.0698-0.10996 0.21105 0.08025 0.13744 0.18514 0.16163 0.34295 0.0693 0.4525-0.0935 0.11093-0.0603 0.24843 0.0974 0.40375 0.13153 0.12955 0.1841 0.23655 0.11682 0.23779-0.0673 0.0012-0.0314 0.05898 0.0797 0.12833 0.12979 0.081 0.14693 0.15963 0.0479 0.21989-0.0848 0.05159-0.19724-0.04012-0.24998-0.2038-0.0528-0.16368-0.15346-0.26256-0.2238-0.21974-0.0703 0.04282-0.16999 0.01078-0.22143-0.0712-0.0514-0.08198-0.0247-0.14906 0.0595-0.14906s0.11445-0.099 0.0673-0.22c-0.0471-0.121-8e-3 -0.22 0.0879-0.22 0.0955 0 0.13404-0.06312 0.0856-0.14026-0.14902-0.23749-0.52534 0.0067-0.52282 0.33929 1e-3 0.17287 0.20234 0.53776 0.44672 0.81086 0.24439 0.2731 0.44435 0.5866 0.44435 0.69667s0.13006 0.20013 0.28903 0.20013c0.36867 0 0.54103 0.26817 0.31459 0.48945-0.13308 0.13004-0.15097 0.10959-0.0753-0.08611 0.0699-0.18084 0.0259-0.25667-0.14886-0.25667-0.15567 0-0.20864 0.06829-0.1422 0.18334 0.0986 0.17065 0.53049 0.69667 0.57204 0.69667 0.0103 0 0.0274-0.53902 0.0383-1.1978zm-0.42539 0.07244c-0.31076-0.08106-0.46399-0.44521-0.24375-0.57927 0.10342-0.06295 0.12327-0.03353 0.053 0.07851-0.0716 0.11405 1e-3 0.2085 0.20035 0.25977 0.17204 0.04431 0.3128 0.13887 0.3128 0.21013 0 0.07126-0.0168 0.12191-0.0372 0.11255-0.0205-0.0094-0.14879-0.04612-0.28515-0.08168zm-0.71999-2.4033c0-0.08543 0.067-0.11453 0.14891-0.06468 0.0819 0.04986 0.14891 0.11975 0.14891 0.15532 0 0.03557-0.067 0.06468-0.14891 0.06468-0.0819 0-0.14891-0.0699-0.14891-0.15532zm1.8122 8.6156c0.11061-0.20357 0.19556-0.23473 0.31614-0.11596 0.0907 0.08933 0.26022 0.16241 0.37671 0.16241 0.17399 0 0.17779-0.0404 0.0212-0.22622-0.15073-0.17888-0.15231-0.26328-8e-3 -0.40334 0.10067-0.09742 0.1703-0.11112 0.15475-0.03045-0.0614 0.31837 0.0158 0.50201 0.19313 0.45944 0.10238-0.02458 0.13588-0.01701 0.0745 0.01683-0.0614 0.03383-0.11168 0.12591-0.11168 0.20462 0 0.07871 0.0838 0.09562 0.18613 0.0376 0.10238-0.05803 0.13497-0.05002 0.0724 0.01779-0.0625 0.06781-0.40919 0.13057-0.77032 0.13947-0.60079 0.0148-0.64375-0.0075-0.50535-0.2622zm7.3209 0.08557c0-0.23913 0.20083-0.24077 0.29847-0.0024 0.057 0.13912 0.0779 0.14023 0.0869 0.0046 6e-3 -0.0983 0.1082-0.14228 0.22608-0.09773 0.11787 0.04455 0.3133 0.02598 0.43429-0.04127 0.19077-0.10603 0.18633-0.16124-0.0334-0.41561-0.35123-0.40666-0.68316-0.4698-0.43814-0.08334 0.0992 0.1564 0.23391 0.25174 0.29943 0.21187 0.0655-0.03988 0.1191-0.0026 0.1191 0.08282 0 0.26052-0.24813 0.17383-0.49992-0.17468-0.15553-0.21528-0.20808-0.24077-0.15114-0.07333 0.0624 0.18353 8e-3 0.25603-0.18923 0.25442-0.23303-0.0019-0.2414-0.02461-0.0532-0.14442 0.12285-0.0782 0.16491-0.14319 0.0935-0.14442-0.0715-0.0012-0.0512-0.09573 0.0451-0.20999 0.13685-0.16241 0.12777-0.21842-0.0416-0.25667-0.18554-0.0419-0.18667-0.07606-8e-3 -0.23804 0.17178-0.15565 0.20871-0.14916 0.20871 0.03667 0 0.12418 0.071 0.22578 0.15769 0.22578 0.0867 0 0.11628-0.066 0.0657-0.14667-0.0506-0.08067-0.0211-0.14667 0.0657-0.14667 0.0867 0 0.15769 0.066 0.15769 0.14667 0 0.08067 0.13646 0.01226 0.30326-0.15202 0.16677-0.16428 0.36019-0.26402 0.42979-0.22165 0.23348 0.14213 0.30524-0.56461 0.30728-3.0265 2e-3 -2.2614-0.019-2.4534-0.27614-2.5338-0.15301-0.04783-0.39678-0.21604-0.54173-0.3738-0.20499-0.2231-0.22506-0.33253-0.0903-0.49246 0.13445-0.15956 0.12407-0.22422-0.0463-0.28862-0.14255-0.05388-0.19257-0.01364-0.14257 0.1147 0.0424 0.10873 1e-3 0.244-0.092 0.30058-0.10707 0.06517-0.15172 0.0047-0.12184-0.16502 0.0324-0.18367-0.045-0.269-0.24612-0.27139-0.37532-0.0045-0.4195-0.69192-0.0479-0.74563 0.16859-0.02437 0.21795 0.03676 0.15669 0.19401-0.0586 0.15043-0.03 0.19339 0.0831 0.12458 0.11752-0.07154 0.14044-0.02076 0.0719 0.15928-0.0884 0.23222-0.0701 0.23986 0.15062 0.06299 0.18699-0.14982 0.30235-0.15952 0.45108-0.03794 0.10991 0.08985 0.24366 0.12019 0.29723 0.06743 0.18896-0.18612 1.0364-0.19454 1.2603-0.01253 0.18119 0.14724 0.23944 0.14744 0.28949 9.97e-4 0.0344-0.10083 0.12802-0.18334 0.20794-0.18334 0.0799 0 0.10298 0.06741 0.0513 0.1498-0.0949 0.15116 0.75561 0.16602 1.0364 0.01811 0.0776-0.04085 0.45686-0.05776 0.84291-0.03758 0.57823 0.03023 0.71774-0.01248 0.79182-0.24238 0.0891-0.27653 0.53234-0.39991 0.53234-0.14819 0 0.07198 0.0823 0.08078 0.18287 0.01956 0.28367-0.17268 0.90735-0.13125 0.97366 0.06468 0.0328 0.0968-0.0109 0.176-0.0971 0.176s-0.11822 0.09862-0.0712 0.21916c0.047 0.12054 0.15675 0.17571 0.24398 0.12261 0.0975-0.05934 0.12412-8e-3 0.0691 0.13317-0.0492 0.12635-0.0438 0.27468 0.0119 0.32962 0.11571 0.11397 0.13148 0.19594 0.15727 0.81745 0.0119 0.28666 0.0779 0.41253 0.18296 0.34861 0.0904-0.05503 0.0532 0.06697-0.0825 0.2711-0.18646 0.2803-0.20284 0.39797-0.0669 0.48072 0.11033 0.06716 0.14133 0.04795 0.0801-0.04962-0.0549-0.08756-0.0452-0.19249 0.0217-0.23319 0.0669-0.0407 0.12155 0.07083 0.12155 0.24784 0 0.2807-0.0914 0.32731-0.71476 0.3646-0.42768 0.02558-0.71476-0.01912-0.71476-0.11131 0-0.08474-0.0912-0.15407-0.20271-0.15407-0.13594 0-0.17927-0.12079-0.13156-0.36667 0.0433-0.22293 3e-3 -0.36667-0.10388-0.36667-0.0963 0-0.1365 0.06144-0.0894 0.13653 0.0471 0.07509 0.023 0.17468-0.0536 0.22131-0.0816 0.04966-0.0525 0.25601 0.0701 0.49812 0.3697 0.72992 0.26527 2.8899-0.15433 3.1921-0.14958 0.10773-0.34584 0.15232-0.43615 0.09908-0.0903-0.05323-0.0637 0.02755 0.0592 0.17952 0.12285 0.15197 0.14663 0.23102 0.0528 0.17566-0.23938-0.14128-0.37339 0.28318-0.14766 0.46769 0.13378 0.10936 0.29782 0.0487 0.59001-0.21815 0.22259-0.20329 0.36867-0.42707 0.32461-0.49728-0.0441-0.07021-0.0149-0.16733 0.0647-0.21582 0.0797-0.04849 0.10286-0.19588 0.0516-0.32753-0.0596-0.15309-0.0342-0.2034 0.0707-0.13958 0.0901 0.05488 0.20602 0.03271 0.25745-0.04928 0.10765-0.17155 0.82189-0.19669 1.046-0.03681 0.17321 0.12356 0.20128 1.4229 0.0343 1.5874-0.15056 0.14829-0.14124 0.38947 0.0115 0.29652 0.16082-0.0979 0.11891 0.75179-0.0443 0.89788-0.0692 0.06195-0.0758 0.01363-0.0146-0.10737 0.0612-0.121-0.0119-0.08544-0.16226 0.07902-0.20304 0.22198-0.43954 0.29353-0.91784 0.2777-0.35439-0.01173-0.56112 0.02933-0.45942 0.09124 0.10169 0.06191 0.30967 0.0889 0.46217 0.05997 0.15248-0.02893 0.24082 0.0055 0.19626 0.07649-0.11058 0.17623-1.2566 0.10662-1.3862-0.0842-0.0573-0.08446-0.3586-0.14368-0.66941-0.1316-0.31082 0.01208-0.59957-0.03291-0.64165-0.09999-0.0421-0.06708-0.14997-0.12196-0.23973-0.12196-0.0898 0-0.0419 0.132 0.10632 0.29334 0.15284 0.16635 0.19507 0.29334 0.0975 0.29334-0.0946 0-0.17199-0.066-0.17199-0.14667 0-0.08067-0.071-0.14667-0.1577-0.14667s-0.12319 0.055-0.081 0.12222c0.0422 0.06722-0.01 0.12222-0.1153 0.12222-0.10561 0-0.19201-0.0851-0.19201-0.18911 0-0.10401 0.0558-0.15511 0.1241-0.11357 0.0683 0.04154 0.12409 0.0036 0.12409-0.08438 0-0.09157-0.22275-0.14514-0.52118-0.12535-0.28665 0.01901-0.52118 0.09153-0.52118 0.16114 0 0.06962 0.14194 0.0822 0.31543 0.02797 0.22208-0.06943 0.29649-0.04264 0.25143 0.09052-0.0358 0.1058-0.30995 0.19534-0.6222 0.20321-0.4527 0.01141-0.51428-0.01755-0.32588-0.15324 0.34479-0.24833 0.29403-0.28267-0.40085-0.2712-0.66652 0.011-1.1936 0.17399-1.0911 0.33738 0.0335 0.05339-0.19024 0.09708-0.49722 0.09708-0.35115 0-0.55814-0.0689-0.55814-0.18578zm5.3837-1.805c-0.0466-0.14455-0.0147-0.30537 0.0707-0.35739 0.279-0.16983-0.12277-0.66192-0.55799-0.68342-0.34889-0.01724-0.35857-0.02865-0.0706-0.08335 0.31893-0.06059 0.32368-0.08229 0.10785-0.49336-0.25916-0.49363-0.51592-0.56393-0.51592-0.14125 0 0.20866 0.0723 0.26583 0.26059 0.20616 0.21891-0.06936 0.22487-0.05776 0.0372 0.07256-0.26137 0.18152-0.32684 1.3564-0.0847 1.5203 0.10099 0.06836 0.0775 0.11234-0.0642 0.12031-0.14753 0.0083-0.12306 0.05114 0.0721 0.12621 0.452 0.17388 0.84476 0.02269 0.74505-0.28678zm-0.39832 0.05232c0.1075-0.04237 0.23594-0.03716 0.28542 0.01157 0.0495 0.04874-0.0385 0.0834-0.19545 0.07703-0.17347-7e-3 -0.20875-0.04179-0.09-0.08861zm-0.4188-0.24937c0-0.03092 0.13411-0.09077 0.29802-0.13299s0.26048-0.01692 0.21458 0.05623c-0.0802 0.12774-0.5126 0.19249-0.5126 0.07676zm0.16066-0.46933c7e-3 -0.17086 0.0424-0.20561 0.09-0.08861 0.043 0.10588 0.0377 0.23238-0.0118 0.28111-0.0495 0.04874-0.0847-0.03789-0.0782-0.1925zm0.53699-3.2847c0.23641-0.32911 0.54901-0.5894 0.71698-0.59698 0.28731-0.01297 0.28775-0.01733 0.0127-0.12355-0.15685-0.06056-0.30173-0.22124-0.32197-0.35706-0.0202-0.13582 0.0254-0.20908 0.10146-0.16279 0.0761 0.04629 0.0997 0.14561 0.0526 0.2207-0.0471 0.07509 0.0149 0.13653 0.1377 0.13653 0.33671 0 0.42383-0.24837 0.1284-0.36609-0.70333-0.28024-1.9539-0.15367-1.6304 0.165 0.0604 0.05951 0.18915 0.0301 0.28607-0.06536 0.23949-0.23589 0.36521-0.21816 0.47639 0.06719 0.0749 0.1922 0.0521 0.20663-0.11322 0.07153-0.15869-0.12972-0.24808-0.12049-0.38291 0.03953-0.12007 0.14249-0.12634 0.23892-0.0198 0.3038 0.0859 0.05228 0.16144 0.0087 0.1679-0.09694 8e-3 -0.12638 0.0356-0.13466 0.0816-0.02423 0.0384 0.09227 0.21739 0.14042 0.39774 0.10699 0.30657-0.05682 0.30852-0.05223 0.0301 0.07055-0.1638 0.07223-0.34104 0.10696-0.39389 0.07719-0.1454-0.08192-0.2909 0.38653-0.18038 0.58075 0.0654 0.11498 0.0461 0.12258-0.0595 0.02343-0.086-0.08067-0.1884-0.27867-0.22761-0.44-0.0392-0.16134-0.0625-0.01288-0.0517 0.32991 0.0247 0.7854 0.24816 0.79666 0.79174 0.03989zm-0.60786 0.31465c-0.0422-0.06722 0.0179-0.12222 0.13357-0.12222 0.11564 0 0.17576 0.055 0.13357 0.12222-0.0422 0.06722-0.10228 0.12222-0.13357 0.12222-0.0313 0-0.0914-0.055-0.13357-0.12222zm0.20803-0.38596c0-0.03749 0.15077-0.1473 0.33504-0.24401 0.3038-0.15945 0.31599-0.15309 0.13068 0.06817-0.19029 0.22719-0.46572 0.33119-0.46572 0.17584zm2.472-2.6596c-0.0364-0.09343 0.0124-0.25199 0.10831-0.35236 0.13884-0.1452 0.10519-0.14735-0.16471-0.01051-0.20661 0.10475-0.29618 0.24077-0.22912 0.34796 0.0605 0.09679-0.0692 0.06048-0.28841-0.08069-0.46687-0.3007-0.75727-0.33251-0.66957-0.07333 0.0341 0.10083 0.13465 0.18333 0.22337 0.18333 0.0887 0 0.21002 0.04798 0.26955 0.10662 0.17399 0.17136 0.82368 0.06662 0.75058-0.12101zm-6.9393-0.05894c0-0.08067-0.0295-0.14667-0.0657-0.14667-0.0361 0-0.10708 0.066-0.15769 0.14667-0.0506 0.08067-0.0211 0.14667 0.0657 0.14667 0.0867 0 0.15769-0.066 0.15769-0.14667zm6.552-0.29334c0-0.08067-0.0295-0.14667-0.0657-0.14667-0.0361 0-0.10708 0.066-0.15769 0.14667-0.0506 0.08067-0.0211 0.14667 0.0657 0.14667 0.0867 0 0.1577-0.066 0.1577-0.14667zm-2.1581 8.9484c-0.0522-0.08314 8e-3 -0.10773 0.14012-0.05764 0.25797 0.0975 0.30516 0.20263 0.091 0.20263-0.0771 0-0.18106-0.06525-0.23109-0.14499zm2.6048 0.0029c0-0.07813 0.10051-0.10407 0.22336-0.05764 0.12285 0.04643 0.22336 0.11036 0.22336 0.14206 0 0.0317-0.10051 0.05764-0.22336 0.05764s-0.22336-0.06393-0.22336-0.14206zm0.5513-0.05349c-0.0419-0.10756 0.0116-0.19556 0.11878-0.19556 0.10723 0 0.16069 0.088 0.11879 0.19556-0.0419 0.10756-0.0954 0.19556-0.11879 0.19556-0.0234 0-0.0769-0.088-0.11878-0.19556zm-21.771-0.24444c-0.0506-0.08067-0.0211-0.14667 0.0657-0.14667 0.0867 0 0.1577 0.066 0.1577 0.14667 0 0.08067-0.0296 0.14667-0.0657 0.14667s-0.10708-0.066-0.1577-0.14667zm0.37228 0.01802c0-0.07076 0.31829-0.0983 0.70731-0.06119 1.0551 0.10063 1.1091 0.16528 0.14891 0.17826-0.47092 0.0064-0.85622-0.04631-0.85622-0.11707zm15.012 0.02846c0.1075-0.04237 0.23593-0.03716 0.28542 0.01157 0.0495 0.04874-0.0385 0.0834-0.19545 0.07703-0.17348-7e-3 -0.20875-0.04179-0.09-0.08861zm-27.368-0.27002c0.1036-0.12295 0.21903-0.19334 0.25651-0.15642 0.10327 0.10171-0.10655 0.37997-0.28651 0.37997-0.0987 0-0.0875-0.08415 0.03-0.22355zm4.8366-0.06979c0.0506-0.08067 0.12158-0.14667 0.1577-0.14667 0.0361 0 0.0657 0.066 0.0657 0.14667 0 0.08067-0.071 0.14667-0.1577 0.14667s-0.11628-0.066-0.0657-0.14667zm0.46534-0.117c-0.0404-0.06435-0.0138-0.21202 0.0591-0.32815 0.0999-0.15922 0.12632-0.13044 0.10739 0.117-0.0272 0.35604-0.0541 0.39017-0.16647 0.21115zm-4.9574-0.38988c0-0.11745 0.0569-0.17889 0.12652-0.13653 0.0696 0.04236 0.088 0.13846 0.0409 0.21355-0.12041 0.1919-0.16737 0.17029-0.16737-0.07702zm4.5665 0.06688c0-0.08067 0.071-0.14667 0.15769-0.14667 0.0867 0 0.11629 0.066 0.0657 0.14667-0.0506 0.08067-0.12158 0.14667-0.1577 0.14667-0.0361 0-0.0657-0.066-0.0657-0.14667zm14.593 0c0-0.08067 0.071-0.14667 0.15769-0.14667 0.0867 0 0.11628 0.066 0.0657 0.14667-0.0506 0.08067-0.12158 0.14667-0.15769 0.14667-0.0361 0-0.0657-0.066-0.0657-0.14667zm-35.538-0.1831c-0.0546-0.08703-0.0275-0.11287 0.0616-0.05865 0.0876 0.0533 0.18168 0.03261 0.20915-0.04597 0.0283-0.08097 0.13605-0.09018 0.24867-0.02126 0.15038 0.09204 0.12325 0.14106-0.11154 0.20153-0.17064 0.04395-0.35418 0.0099-0.40786-0.07565zm42.834-0.55024c0.12285-0.0782 0.18986-0.14869 0.14891-0.15664-0.41409-0.08047-0.74455-0.06516-0.74455 0.03449 0 0.06719-0.10051 0.12216-0.22336 0.12216s-0.22336-0.09225-0.22336-0.205c0-0.14307 0.15757-0.19463 0.52162-0.17068 0.28689 0.01888 0.5661 0.07813 0.62045 0.13166 0.2784 0.27421 0.33729-0.11067 0.3776-2.4678 0.0428-2.5015 0.0365-2.5634-0.25395-2.4947-0.1638 0.03873-0.21364 0.0324-0.11076-0.01408 0.1029-0.04648 0.14395-0.15322 0.0913-0.23719-0.0649-0.10334-0.0127-0.10688 0.16134-0.01094 0.22935 0.12642 0.25529 0.41793 0.23973 2.6952-0.015 2.1973-0.052 2.5791-0.26521 2.7368-0.13626 0.10083-0.31871 0.18232-0.40542 0.18109-0.0867-0.0012-0.0572-0.06622 0.0657-0.14442zm-10.488-0.13005c-0.0449-0.07153 0.0104-0.20521 0.12273-0.29708 0.15634-0.1278 0.22413-0.11623 0.2886 0.04925 0.0597 0.15311 0.0142 0.18976-0.15595 0.12549-0.15999-0.06047-0.20424-0.03349-0.13253 0.0808 0.0592 0.09438 0.0742 0.17159 0.0332 0.17159s-0.11118-0.05852-0.15606-0.13005zm15.433-0.22183c0.1056-0.11287 0.21547-0.18326 0.24413-0.15643 0.0883 0.08264-0.13552 0.36164-0.29015 0.36164-0.0803 0-0.0596-0.09234 0.046-0.20521zm-32.101-0.16146c-0.0517-0.13267-7.4e-4 -0.22 0.1283-0.22 0.12906 0 0.18 0.08733 0.12831 0.22-0.0471 0.121-0.10488 0.22-0.12831 0.22-0.0234 0-0.0812-0.099-0.1283-0.22zm14.69-0.44c1e-3 -0.40334 0.03-0.55093 0.0643-0.32799 0.0342 0.22294 0.0333 0.55295-2e-3 0.73334-0.0353 0.18039-0.0633-2e-3 -0.0622-0.40535zm-17.031 0.33c-0.0937-0.27693-0.0518-0.72916 0.0741-0.79973 0.0889-0.04985 0.11204-0.03663 0.0513 0.02938-0.0607 0.06601-0.0358 0.20859 0.0555 0.31685 0.12283 0.14577 0.12022 0.19683-0.0101 0.19683-0.0968 0-0.13451 0.066-0.0839 0.14667 0.0506 0.08067 0.0546 0.14667 9e-3 0.14667-0.0458 0-0.0888-0.0165-0.0957-0.03667zm34.789-0.09987c-0.0471-0.07509-0.0287-0.17119 0.0408-0.21355 0.0696-0.04236 0.12653 0.01908 0.12653 0.13653 0 0.24731-0.047 0.26891-0.16737 0.07702zm-44.456-0.4588c0-0.08543 0.067-0.11453 0.14891-0.06468 0.0819 0.04986 0.14891 0.11975 0.14891 0.15532 0 0.03557-0.067 0.06468-0.14891 0.06468-0.0819 0-0.14891-0.0699-0.14891-0.15532zm10.013-0.06434c0.0607-0.06601 0.0294-0.22509-0.0695-0.35352-0.099-0.12842-0.12011-0.18339-0.047-0.12215 0.0731 0.06124 0.30544-0.03776 0.51627-0.22l0.38332-0.33134-0.33641 0.37755c-0.18503 0.20765-0.29783 0.41554-0.25069 0.46198 0.0472 0.04644-2e-3 0.13462-0.11031 0.19597-0.10783 0.06134-0.14637 0.05753-0.0857-0.0085zm17.052-0.63698c-0.0548-0.20629-0.018-0.272 0.12233-0.21895 0.13837 0.0523 0.18198-0.01936 0.14062-0.23098-0.033-0.16873 3e-3 -0.30679 0.0804-0.30679 0.0772 0 0.14875 0.066 0.15898 0.14667 0.0103 0.08067 0.027 0.21799 0.0372 0.30516 0.0103 0.08717 0.14869 0.25217 0.30766 0.36667 0.15899 0.1145 0.22042 0.20818 0.13651 0.20818-0.0839 0-0.20281-0.0495-0.26424-0.11-0.15293-0.15064-0.43989-0.14673-0.55016 0.0075-0.0501 0.07002-0.12623-0.0053-0.16928-0.16746zm-17.534 0.02911c0-0.07869 0.10421-0.2712 0.23158-0.42778 0.21835-0.26845 0.22146-0.26377 0.0543 0.08197-0.21708 0.44895-0.28586 0.53216-0.28586 0.34581zm35.367-0.0508c-0.0522-0.08314 8e-3 -0.10773 0.14013-0.05764 0.25797 0.0975 0.30515 0.20263 0.091 0.20263-0.0771 0-0.18105-0.06525-0.23109-0.14499zm-34.92-0.12173c0-0.17726 0.28251-0.38392 0.38578-0.2822 0.0375 0.03692-0.034 0.15061-0.15882 0.25265-0.14152 0.11568-0.22696 0.12681-0.22696 0.02956zm-8.5275-0.33815c0.10101-0.10024 0.22116-0.1453 0.26701-0.10014 0.0458 0.04516-0.0368 0.12717-0.18365 0.18225-0.21223 0.07959-0.22933 0.06275-0.0834-0.0821zm0.48643-0.05513c0-0.09411 0.0893-0.17111 0.19855-0.17111 0.1092 0 0.19854 0.077 0.19854 0.17111 0 0.09411-0.0893 0.17111-0.19854 0.17111-0.1092 0-0.19855-0.077-0.19855-0.17111zm42.946-0.08224c0.0367-0.19677 0.0801-0.37426 0.0964-0.39443 0.0982-0.12127 0.0541-0.42126-0.077-0.5245-0.0942-0.07413-0.0672-0.09785 0.0695-0.06111 0.22817 0.06135 0.3061 0.35925 0.16276 0.62228-0.044 0.08067-0.0935 0.23522-0.11017 0.34344-0.0166 0.10823-0.0703 0.23622-0.11924 0.28443-0.049 0.04821-0.059-0.07334-0.0222-0.27011zm-28.433-8.8e-4c-0.054-0.08603-0.0662-0.18788-0.0272-0.22633 0.039-0.03845 0.11065 0.03195 0.15915 0.15642 0.10069 0.25844 0.0149 0.3039-0.13196 0.0699zm-6.8089-0.15511c0.10101-0.10024 0.22117-0.1453 0.26701-0.10014 0.0459 0.04516-0.0368 0.12717-0.18365 0.18225-0.21223 0.07959-0.22933 0.06275-0.0834-0.08211zm0.48644 0.04944c0-0.0635 0.14992-0.12658 0.33316-0.14018 0.26184-0.01943 0.28575 0.0048 0.11168 0.11321-0.27226 0.16955-0.44484 0.18001-0.44484 0.02697zm21.683-0.05805c0.043-0.06854 0.14057-0.08664 0.21682-0.04023 0.19483 0.1186 0.17289 0.16485-0.0782 0.16485-0.11924 0-0.18162-0.05608-0.13862-0.12462zm-21.038-0.64363c0-0.09987 0.0893-0.1478 0.19854-0.10653 0.1092 0.04127 0.19855 0.12298 0.19855 0.18157 0 0.05859-0.0893 0.10653-0.19855 0.10653-0.1092 0-0.19854-0.08171-0.19854-0.18158zm33.989-0.59695c-0.0817-0.2096-0.0596-0.21497 0.1702-0.0415 0.1452 0.10958 0.29192 0.21792 0.32605 0.24075 0.0341 0.02283-0.0425 0.0415-0.1702 0.0415-0.12775 0-0.27447-0.10834-0.32605-0.24075zm-13.042-0.34592c-0.14732-0.27113-0.0972-0.35477 0.18613-0.3107 0.0614 0.0095 0.11169-0.05308 0.11169-0.13918 0-0.09272-0.12862-0.11635-0.31544-0.05794-0.21052 0.06581-0.29595 0.04105-0.25686-0.07445 0.0322-0.09518 0.10715-0.16811 0.16652-0.16206 0.0594 0.0061 0.20773 0.011 0.32965 0.011 0.14367 0 0.21117 0.12534 0.19178 0.3561-0.0165 0.19585-0.0941 0.31702-0.17255 0.26928-0.0814-0.04952-0.10178 0.01802-0.0475 0.15724 0.13233 0.33968 0 0.30585-0.19339-0.04927zm-20.83-0.01871c-0.01-0.13129 0.0825-0.32027 0.20445-0.41995 0.12195-0.09969 0.18501-0.23977 0.14012-0.3113-0.13005-0.20727 0.0854-0.15054 0.32512 0.08562 0.19268 0.18978 0.17451 0.22665-0.15134 0.30721-0.20366 0.05035-0.39972 0.2008-0.43569 0.33434-0.0591 0.21966-0.067 0.22005-0.0827 0.0041zm0.28055-0.03893c0-0.0317 0.10051-0.09563 0.22336-0.14207 0.12285-0.04643 0.22336-0.02049 0.22336 0.05764 0 0.07814-0.10051 0.14207-0.22336 0.14207s-0.22336-0.02594-0.22336-0.05764zm12.657-1.051c0-0.12576 0.0624-0.19068 0.13862-0.14428 0.0762 0.04641 0.18072 0.01731 0.23215-0.06468 0.0515-0.08198-0.0135-0.14906-0.14448-0.14906-0.19621 0-0.20429-0.03612-0.046-0.20557 0.16462-0.17626 0.19891-0.176 0.24051 0.0018 0.0267 0.11405 0.12718 0.16292 0.22336 0.10859 0.0962-0.05433 0.0124 0.07686-0.18614 0.29154-0.42043 0.45457-0.458 0.46783-0.458 0.16166zm15.055-0.02134c0.10842-0.17783 0.22919-0.29176 0.26836-0.25318 0.0392 0.03858-0.0495 0.18408-0.19714 0.32333-0.2564 0.2419-0.25957 0.23877-0.0712-0.07016zm-0.54588-0.05888c-0.067-0.10683-0.0479-0.13822 0.0485-0.07954 0.0876 0.0533 0.18925 0.01399 0.22598-0.08734 0.0367-0.10134 0.11109-0.14415 0.16523-0.09515 0.0541 0.049 2e-3 0.16771-0.11527 0.26379-0.16545 0.13525-0.2387 0.13485-0.32442-0.0018zm-0.21134-0.46113c6e-3 -0.44247 0.22288-0.52264 0.59379-0.21901 0.22069 0.18064 0.26785 0.26727 0.11602 0.2131-0.14071-0.0502-0.29542-0.02816-0.34383 0.04899-0.1264 0.20144-0.36866 0.17292-0.36598-0.04307zm-42.812-0.10832c-0.0522-0.08314 8e-3 -0.10773 0.14012-0.05764 0.25797 0.0975 0.30517 0.20263 0.091 0.20263-0.0771 0-0.18106-0.06524-0.23109-0.14499zm0.52012-0.14835c0-0.08067 0.071-0.14667 0.1577-0.14667s0.11628 0.066 0.0657 0.14667c-0.0506 0.08067-0.12158 0.14667-0.1577 0.14667-0.0361 0-0.0657-0.066-0.0657-0.14667zm50.469-0.03667c-0.18827-0.60589-0.29091-1.3538-0.15875-1.1567 0.11321 0.1688 0.14666 0.1688 0.21481 0 0.0563-0.1394 0.0843-0.12222 0.0925 0.05674 6e-3 0.14117-0.072 0.25768-0.17439 0.25891-0.11527 0.0014-0.12944 0.04327-0.0372 0.11 0.13873 0.10039 0.2513 0.76776 0.12951 0.76776-0.0303 0-0.0602-0.0165-0.0664-0.03667zm-4.5222-0.88459c0.15064-0.38663 0.51466-0.43321 0.50133-0.06415-6e-3 0.17897-0.0465 0.24014-0.0889 0.13594-0.0599-0.147-0.12474-0.15057-0.28946-0.01592-0.17071 0.13954-0.19479 0.1286-0.12293-0.05587zm-44.83-0.10542c-0.0506-0.08067-0.0211-0.14667 0.0657-0.14667 0.0867 0 0.15769 0.066 0.15769 0.14667 0 0.08067-0.0296 0.14667-0.0657 0.14667s-0.10708-0.066-0.1577-0.14667zm34.07-0.06111c-0.0505-0.08739-0.037-0.10996 0.0301-0.05016 0.067 0.0598 0.20061 0.04435 0.29686-0.03434 0.11902-0.0973 0.17503-0.08125 0.17503 0.05016 0 0.23254-0.37276 0.25804-0.50197 0.03434zm8.6264-0.02377c0.14137-0.14538 0.28909-0.23276 0.32827-0.19417 0.0392 0.03859-0.0765 0.15753-0.25705 0.26433-0.31365 0.18552-0.31682 0.1824-0.0712-0.07016zm1.2526 0.01155c0.0471-0.121 0.11204-0.22 0.14423-0.22 0.0322 0 0.0585 0.099 0.0585 0.22 0 0.121-0.0649 0.22-0.14423 0.22-0.0793 0-0.10567-0.099-0.0585-0.22zm1.5547-0.01222c7e-3 -0.17086 0.0424-0.20561 0.09-0.08861 0.043 0.10588 0.0377 0.23238-0.0118 0.28111-0.0495 0.04874-0.0847-0.03789-0.0782-0.1925zm-1.203-0.06977c0-0.08543 0.067-0.11453 0.14891-0.06468 0.0819 0.04986 0.14891 0.11975 0.14891 0.15532 0 0.03557-0.067 0.06468-0.14891 0.06468-0.0819 0-0.14891-0.06989-0.14891-0.15532zm-27.725-0.09154c0.10749-0.04237 0.23593-0.03716 0.28541 0.01158 0.0495 0.04874-0.0385 0.0834-0.19545 0.07703-0.17347-7e-3 -0.20875-0.04179-0.09-0.08861zm-13.799-0.59648c-0.16249-0.37401-0.15881-0.38264 0.0506-0.11864 0.12418 0.15659 0.22578 0.33809 0.22578 0.40334 0 0.22292-0.10101 0.11885-0.27634-0.2847zm-0.46522 0.04021c-0.11745-0.13939-0.12875-0.22355-0.03-0.22355 0.17997 0 0.38979 0.27826 0.28652 0.37997-0.0375 0.03692-0.15291-0.03347-0.25651-0.15642zm-0.29892-0.51264c-0.17407-0.1084-0.15016-0.13264 0.11168-0.11321 0.18324 0.0136 0.33316 0.07667 0.33316 0.14018 0 0.15305-0.17258 0.14259-0.44484-0.02696zm0.74266-0.0042c-0.13421-0.08543-0.15257-0.14307-0.046-0.14442 0.0975-0.0012 0.21876 0.06375 0.26938 0.14442 0.11425 0.18209 0.0627 0.18209-0.22337 0z" fill="#fcfcfc"/><path d="m78.572 288.76c-0.58031-0.0814-0.85416-0.33285-0.36483-0.33502 0.20066-1e-3 0.62653-0.0442 0.94639-0.0962 0.42138-0.0686 0.55226-0.0479 0.47516 0.075-0.05852 0.0933-0.24041 0.16956-0.40421 0.16956-0.1638 0-0.2564 0.066-0.20579 0.14667 0.05062 0.0807 0.07132 0.13678 0.04602 0.12469-0.02531-0.012-0.24704-0.0502-0.49274-0.0846zm44.18-1.9866c-0.14016-0.16633-0.0408-0.19953 0.57104-0.19074 0.8384 0.012 0.9315 0.27967 0.12107 0.34806-0.31044 0.0262-0.59128-0.0376-0.69211-0.15732zm2.3264 0.0864c0.10749-0.0424 0.23593-0.0372 0.28541 0.0116 0.0495 0.0487-0.0385 0.0834-0.19545 0.077-0.17347-7e-3 -0.20875-0.0418-0.09-0.0886zm33.905-0.0465c0.0506-0.0807 0.15509-0.14667 0.23215-0.14667 0.0771 0 0.14013 0.066 0.14013 0.14667 0 0.0807-0.10448 0.14666-0.23215 0.14666-0.12769 0-0.19074-0.066-0.14013-0.14666zm1.7124 0c0-0.0807 0.0631-0.14667 0.14013-0.14667 0.0771 0 0.18153 0.066 0.23215 0.14667 0.0506 0.0807-0.0124 0.14666-0.14013 0.14666-0.12767 0-0.23215-0.066-0.23215-0.14666zm1.1168 0c0.0506-0.0807 0.15509-0.14667 0.23215-0.14667 0.0771 0 0.14012 0.066 0.14012 0.14667 0 0.0807-0.10447 0.14666-0.23215 0.14666-0.12769 0-0.19073-0.066-0.14012-0.14666zm1.638 0c-0.057-0.0908 0.20889-0.14582 0.69853-0.14443 0.56535 2e-3 0.72693 0.0428 0.56719 0.14443-0.29353 0.18684-1.1485 0.18684-1.2657 0zm2.0862-2e-3c0.0514-0.082 0.15591-0.11109 0.23215-0.0647 0.20654 0.12572 0.16803 0.21374-0.0935 0.21374-0.12769 0-0.19006-0.0671-0.13862-0.14906zm2.0088 2e-3c0-0.0807 0.0631-0.14667 0.14012-0.14667 0.0771 0 0.18154 0.066 0.23215 0.14667 0.0506 0.0807-0.0124 0.14666-0.14012 0.14666-0.12768 0-0.23215-0.066-0.23215-0.14666zm0.819 0c0.0506-0.0807 0.15509-0.14667 0.23215-0.14667 0.0771 0 0.14012 0.066 0.14012 0.14667 0 0.0807-0.10448 0.14666-0.23215 0.14666-0.12769 0-0.19074-0.066-0.14012-0.14666zm1.5635-0.0687c0-0.13121 0.0873-0.18241 0.22336-0.13098 0.12285 0.0464 0.22337 0.14336 0.22337 0.2154 0 0.072-0.10052 0.13097-0.22337 0.13097s-0.22336-0.0969-0.22336-0.21539zm-129.4-3.598c0-0.20259 0.09927-0.29334 0.3209-0.29334 0.31146 0 0.31297 9e-3 0.05138 0.29334-0.14824 0.16133-0.29264 0.29333-0.3209 0.29333-0.02826 0-0.05138-0.132-0.05138-0.29333zm40.884-2.8909c-0.04052-0.104-0.17629-0.1891-0.30171-0.1891-0.12542 0-0.22804-0.0589-0.22804-0.13097 0-0.17957 0.38308-0.30903 0.91442-0.30903 0.24384 0 0.4079-0.0565 0.3646-0.12547-0.04331-0.069 0.08676-0.0943 0.28903-0.0563 0.4357 0.082 0.42346 0.0267 0.13276 0.60065-0.19114 0.37739-0.31549 0.45795-0.6662 0.43163-0.23716-0.0178-0.46434-0.11746-0.50486-0.22146zm-11.984-121.28c0.0071-0.17087 0.04243-0.20561 0.08996-0.0886 0.04301 0.10587 0.03773 0.23238-0.01175 0.28111-0.04948 0.0487-0.08468-0.0379-0.07821-0.1925zm58.601-133.12c0.043-0.06854 0.14057-0.08664 0.21681-0.04023 0.19483 0.1186 0.17289 0.16485-0.0782 0.16485-0.11925 0-0.18163-0.05608-0.13862-0.12462zm13.42-0.13803c0.10101-0.10024 0.22117-0.1453 0.26702-0.10014 0.0458 0.04516-0.0368 0.12717-0.18366 0.18225-0.21222 0.07959-0.22933 0.06275-0.0834-0.0821zm27.399 0c0.10102-0.10024 0.22118-0.1453 0.26703-0.10014 0.0458 0.04516-0.0368 0.12717-0.18367 0.18225-0.21222 0.07959-0.22932 0.06275-0.0834-0.0821zm4.9985 0.0037c-0.1-0.09849-1.046-0.17954-2.4324-0.2084-1.7472-0.03636-2.3191-0.09671-2.4873-0.26247-0.28723-0.2829-0.11987-0.79011 0.30364-0.92023 0.18007-0.05533 0.37665-0.17421 0.43682-0.26417 0.0602-0.08996 0.11043-1.3367 0.11168-2.7706l2e-3 -2.607-0.35782-0.13399c-0.47729-0.17874-0.57644-0.36857-0.46155-0.88375l0.0961-0.43117 1.5385 0.07696c0.84619 0.04232 1.5733 0.02153 1.6158-0.04621 0.0425-0.06774 0.53478-0.06987 1.0939-0.0047 2.2913 0.26691 2.2784 0.26345 2.3737 0.63731 0.0494 0.1937 0.15927 0.30827 0.24543 0.25583 0.0858-0.05224 0.11508-0.02973 0.065 0.05003-0.05 0.07975-0.12518 0.48872-0.16698 0.90882-0.0949 0.95387-0.15326 1.0448-0.67006 1.0448-0.35877 0-0.45434-0.09449-0.67736-0.66965-0.29034-0.74881-0.69449-0.98576-1.5593-0.91419l-0.52955 0.04382-0.0437 1.0633c-0.0358 0.86916-3e-3 1.0633 0.1809 1.0633 0.29332 0 0.55588-0.4925 0.44391-0.83272-0.0733-0.22267-0.0611-0.23056 0.0727-0.04729 0.15225 0.20846 0.23607 0.10029 0.17046-0.22-0.0165-0.08067 0.0179-0.09949 0.0764-0.04183s0.22496 0.04237 0.3698-0.03398c0.19336-0.10192 0.28683-0.07859 0.35165 0.08779 0.0486 0.12464 0.14383 0.1928 0.21172 0.15147 0.0679-0.04133 0.11862 0.70064 0.11272 1.6488l-0.0107 1.7239-0.41733 0.03149c-0.42831 0.03232-1.0694-0.29443-0.90174-0.45959 0.12135-0.11951-0.35289-0.83476-0.55347-0.83476-0.0946 0-0.1423 0.44641-0.12469 1.1662 0.0283 1.1576 0.0317 1.1669 0.45823 1.2591 0.52932 0.11451 1.5488-0.36804 1.5186-0.71876-0.0112-0.1302 0.039-0.20054 0.11168-0.15632 0.12552 0.07641 0.15746 0.0075 0.19166-0.41357 0.0218-0.26783 0.41326-0.53998 0.78449-0.54534 0.67512-0.0098 0.73571 0.09152 0.63554 1.0622-0.0518 0.50221-0.0867 1.1218-0.0776 1.377 9e-3 0.25512-0.0299 0.43555-0.0868 0.40094-0.0568-0.03461-0.14546 0.0042-0.19689 0.08614-0.0514 0.08198-0.37772 0.14906-0.72505 0.14906-0.34735 0-0.69853 0.066-0.78043 0.14667-0.0993 0.09778-0.20346 0.09294-0.31255-0.01451zm-45.955-0.34275c-0.14823-0.11069-0.2119-0.23632-0.14149-0.27918 0.0704-0.04286 0.209 0.04981 0.30799 0.20592 0.21143 0.33346 0.19286 0.34163-0.1665 0.07326zm32.209-0.03048c-0.12387-0.0332-0.41913-0.40505-0.65613-0.82633-0.46149-0.82029-2.8596-4.4821-3.095-4.726-0.20021-0.20739-0.11134 1.2641 0.0925 1.5315 0.12169 0.15966 0.11558 0.1845-0.0249 0.10134-0.1434-0.08485-0.18614 0.19268-0.18614 1.2088v1.3189l0.4095 0.04641c0.32943 0.03733 0.41928 0.13103 0.4595 0.47918 0.0304 0.26314-0.0374 0.49572-0.173 0.59338-0.28654 0.20637-2.6012 0.13484-2.8748-0.08885-0.43794-0.35799-0.12784-1.0106 0.4802-1.0106 0.17961 0 0.36724-0.1044 0.41694-0.232 0.0497-0.1276 0.0904-1.4146 0.0904-2.86v-2.628h-0.34249c-0.18837 0-0.43642 0.0825-0.55123 0.18334-0.17445 0.15322-0.17991 0.14542-0.0333-0.04749 0.12516-0.16469 0.12954-0.27602 0.0153-0.38857-0.17793-0.17525-0.0408-0.77395 0.17727-0.77395 0.0764 0 0.13888-0.0699 0.13888-0.15532 0-0.08543-0.0558-0.12133-0.12409-0.07979-0.0683 0.04155-0.1241-0.02083-0.1241-0.13862 0-0.17912 0.0386-0.18248 0.23578-0.02054 0.12967 0.10649 0.50381 0.20674 0.8314 0.22277 0.3276 0.01603 0.99769 0.07344 1.4891 0.12757 0.4914 0.05413 0.94869 0.08452 1.0162 0.06754 0.0675-0.01698 0.0807 0.03612 0.0293 0.11802-0.0776 0.12362 0.46515 0.96455 1.1115 1.7222 0.0831 0.09743 0.15111 0.24593 0.15111 0.33 0 0.08407 0.071 0.15286 0.15769 0.15286 0.0867 0 0.11928 0.06122 0.0723 0.13605-0.047 0.07483 0.0715 0.31566 0.26318 0.53517l0.34856 0.39912 0.0192-0.9798c0.0143-0.72596-0.0273-0.95403-0.1603-0.88033-0.12936 0.07168-0.1275 0.04429 7e-3 -0.09804 0.25912-0.27496 0.23224-0.43179-0.0744-0.43443-0.14333-0.0012-0.34592-0.05559-0.45021-0.12078-0.22985-0.14371-0.37089-0.75698-0.17403-0.75698 0.0772 0 0.14138-0.1155 0.14264-0.25667 2e-3 -0.19841 0.0311-0.21185 0.12932-0.05921 0.0926 0.14399 0.41124 0.18292 1.1766 0.14376 0.57724-0.02954 1.022-0.0098 0.98833 0.04384-0.0336 0.05365 0.0389 0.13539 0.1613 0.18164 0.37616 0.14217 0.25684 0.65496-0.2074 0.89142-0.42615 0.21705-0.43009 0.23133-0.45136 1.6308-0.0118 0.7765-0.0273 1.4552-0.0344 1.5081-7e-3 0.05298-2e-3 0.12933 0.0122 0.16966 0.0647 0.18844 0.15129 1.6356 0.14925 2.4934-3e-3 1.1609-0.23764 1.4392-1.0345 1.2256zm-29.248-0.21589c0.0342-0.05444-0.0359-0.13601-0.15563-0.18128-0.11976-0.04526-0.255-0.02292-0.30054 0.04966-0.15771 0.25134-2.1999 0.0722-3.0538-0.26789-0.87193-0.34724-1.818-1.3436-2.0169-2.1241-0.0548-0.21492-0.15022-0.35994-0.21212-0.32226-0.19549 0.119-0.0955-2.7717 0.10404-3.0075 0.10069-0.119 0.50275-0.6369 0.89345-1.1509 0.60992-0.80237 0.82617-0.97372 1.5294-1.2118 0.45045-0.1525 0.84053-0.3401 0.86684-0.41687 0.0286-0.08331 0.14864-0.08781 0.29782-0.01117 0.24086 0.12375 1.2975 0.34989 2.432 0.5205 0.6035 0.09076 0.78885 0.35594 0.71795 1.0272-0.0256 0.242-0.0519 0.66381-0.0586 0.93734-0.0239 0.97981-1.0739 1.0183-1.4721 0.054-0.39355-0.95298-1.3463-1.455-1.9441-1.0244-0.33868 0.24392-0.50609 1.5062-0.48377 3.6478 0.0137 1.3152 0.061 1.61 0.29994 1.87 0.57539 0.62616 1.6213 0.24469 2.1679-0.79072 0.29917-0.56666 0.4581-0.71814 0.76444-0.72853 0.65868-0.02235 0.76976 0.23997 0.74216 1.7526-0.0204 1.118-0.19674 1.4349-0.81326 1.4615-0.20191 0.0087-0.33917-0.02871-0.30501-0.08315zm10.19-0.15048c-1.8226-0.31306-1.6546-0.21694-1.6174-0.92559 0.0226-0.43072 0.0923-0.61513 0.21475-0.56883 0.26131 0.09877 0.41561-0.22244 0.21897-0.45581-0.13006-0.15436-0.10822-0.19345 0.0989-0.17691 0.15351 0.01226 0.26677-0.07882 0.26806-0.21556 1e-3 -0.13024 0.0791-0.32824 0.17313-0.44 0.29715-0.35338 1.1086-2.5116 1.025-2.7262-0.0441-0.11307-0.0243-0.17164 0.0438-0.13014 0.14495 0.08824 0.49207-0.93033 0.37865-1.1111-0.0423-0.06736-6e-3 -0.12247 0.0808-0.12247 0.0867 0 0.1577-0.16243 0.1577-0.36096 0-0.71576 0.83971-1.0954 1.4283-0.64581 0.0894 0.06832 0.21745 0.07528 0.28447 0.01548 0.067-0.0598 0.0768-0.03117 0.0216 0.06362-0.13454 0.23137 0.20521 0.94264 0.39507 0.82707 0.0843-0.0513 0.10437-0.01844 0.0458 0.07492-0.12368 0.1971 0.2039 1.365 0.35676 1.272 0.0579-0.03525 0.0732 0.10122 0.034 0.30328-0.0449 0.23117 0.0321 0.48357 0.20765 0.68078 0.15342 0.17237 0.19175 0.26307 0.0852 0.20155-0.13941-0.08047-0.12442 0.04621 0.0534 0.45146 0.13596 0.30982 0.28104 0.67807 0.32239 0.81833 0.0414 0.14026 0.13382 0.21933 0.20547 0.17572 0.0717-0.04362 0.093 0.01645 0.0474 0.13348-0.0456 0.11703-0.0102 0.25702 0.0786 0.31109 0.0888 0.05407 0.12293 0.15974 0.0758 0.23484-0.0471 0.07509-0.0108 0.13653 0.0808 0.13653s0.11803 0.07722 0.0588 0.17159c-0.0741 0.11807-0.0238 0.1399 0.16119 0.06998 0.23494-0.0888 0.24327-0.07126 0.066 0.13909-0.17664 0.20964-0.14574 0.28569 0.23953 0.5893 0.24329 0.19173 0.48414 0.34893 0.53522 0.34933 0.0511 4.4e-4 0.0477 0.21523-8e-3 0.4774l-0.10043 0.47667-1.8148-0.01724c-1.89-0.01796-2.2651-0.12715-2.2651-0.65948 0-0.15077 0.13402-0.35657 0.29782-0.45732 0.31515-0.19385 0.40612-0.55263 0.14012-0.55263-0.0867 0-0.11642-0.06577-0.066-0.14616 0.0573-0.09129-0.22358-0.13901-0.74805-0.1271-0.97503 0.02214-1.1951 0.27208-0.62701 0.7122 0.84775 0.65681 0.46988 1.3434-0.63489 1.1537zm1.6084-3.3363c0.0454-0.13572 4e-3 -0.16488-0.12303-0.08734-0.12809 0.07798-0.15469 0.05819-0.0806-0.05994 0.0609-0.097 0.0664-0.28869 0.0124-0.426-0.09-0.22852-0.11628-0.22556-0.31101 0.03506-0.33105 0.44305-0.27471 0.84469 0.11065 0.78884 0.17786-0.02578 0.35408-0.13856 0.39159-0.25062zm25.474 2.3025c0.16407-0.21429 0.6148-0.22455 0.6148-0.01401 0 0.04033-0.0924 0.03843-0.20521-0.0042-0.11288-0.04266-0.29392-2.93e-4 -0.40232 0.09431-0.16255 0.14174-0.16382 0.1284-7e-3 -0.07608zm-22.128-1.8889c-0.0258-0.33683 0.0444-0.36646 0.16076-0.06787 0.0461 0.11842 0.0337 0.24585-0.0276 0.28318-0.0613 0.03733-0.12124-0.05956-0.13315-0.21531zm15.35-2.448c0.0541-0.08624 0.0143-0.1864-0.0887-0.22258-0.10288-0.03618-0.14635-0.10941-0.0966-0.16274 0.0497-0.05333 0.17028-0.0022 0.26783 0.11353 0.13731 0.16297 0.1369 0.23511-2e-3 0.31954-0.10847 0.06603-0.14032 0.04719-0.0807-0.04775zm7.3282-0.95819c0.0559-0.14465 0.13918-0.22605 0.18503-0.18089 0.0459 0.04516 9e-5 0.1635-0.10167 0.263-0.14706 0.14377-0.16417 0.12693-0.0834-0.0821zm-27.037-1.3568c0-0.01701 0.0893-0.10396 0.19855-0.19323 0.14836-0.12128 0.19854-0.11346 0.19854 0.03093 0 0.10628-0.0893 0.19323-0.19854 0.19323-0.1092 0-0.19855-0.01392-0.19855-0.03093z" fill="#fafafa"/><path d="m169.45 25.48c-0.21924-0.02496-0.47605-0.13729-0.57071-0.24963-0.23815-0.28262-0.05-0.76952 0.34407-0.89061 0.18007-0.05533 0.37665-0.17421 0.43682-0.26417 0.0602-0.08996 0.11043-1.3315 0.11168-2.7589l2e-3 -2.5954-0.4095-0.19271c-0.46382-0.21827-0.60326-0.7115-0.28874-1.0213 0.16808-0.16555 0.70797-0.20073 2.6511-0.17275 1.342 0.01933 2.7575 0.07823 3.1456 0.1309 0.65792 0.08929 0.71539 0.13192 0.85088 0.63114 0.1604 0.5911 0.0877 1.7613-0.12224 1.9681-0.32376 0.31889-0.8369 0.03081-1.1669-0.65513-0.27566-0.57296-0.41695-0.70486-0.83832-0.78272-0.27872-0.0515-0.66633-0.07142-0.86133-0.04426-0.33141 0.04616-0.35741 0.11877-0.3983 1.1127-0.0508 1.2343 0.17708 1.4131 0.69621 0.54651 0.84389-1.4088 1.4728-0.47961 1.2434 1.8368-0.1084 1.0945-0.11116 1.1-0.54569 1.1-0.35673 0-0.49314-0.10558-0.74454-0.57632-0.51526-0.96472-0.68009-0.8486-0.68009 0.4791v1.1739l0.4313 0.0933c0.74024 0.16014 1.4509-0.24616 1.8391-1.0514 0.31023-0.64362 0.38531-0.70526 0.85892-0.70526h0.51896l-0.0315 1.2981c-0.018 0.74441-0.10726 1.3881-0.20916 1.509-0.1456 0.17279-0.69154 0.20325-3.0212 0.16855-1.5639-0.02329-3.0228-0.06277-3.2421-0.08773zm-9.3893-0.18479c-0.14173-0.08135-0.43848-0.45884-0.65941-0.83888-0.45614-0.78462-2.8497-4.4315-3.0478-4.6437-0.0747-0.08001-0.13009 0.7709-0.13009 1.9984v2.1377l0.44673 0.088c0.37683 0.07423 0.44672 0.15661 0.44672 0.52651 0 0.6069-0.30496 0.71182-1.7715 0.60944-0.96414-0.0673-1.2877-0.14602-1.4139-0.34395-0.21774-0.34163 0.0425-0.75263 0.52018-0.82146 0.1964-0.0283 0.4063-0.1273 0.46647-0.22 0.0602-0.0927 0.11043-1.3731 0.11168-2.8452l2e-3 -2.6767h-0.34249c-0.64008 0-0.89643-0.51879-0.46587-0.94286 0.25202-0.24823 1.3919-0.30692 2.6534-0.13661 0.68349 0.09227 0.71036 0.11659 1.5795 1.43 0.4863 0.73488 1.018 1.5011 1.1815 1.7028l0.29728 0.36667 5e-3 -1.1998c5e-3 -1.117-0.0167-1.203-0.31448-1.2467-0.39106-0.0573-0.65386-0.43604-0.52752-0.76027 0.0744-0.19095 0.30923-0.23994 1.1503-0.23994 0.58125 0 1.1864 0.06832 1.3448 0.15183 0.43172 0.22756 0.35488 0.6866-0.15869 0.94818l-0.44673 0.22754-0.0176 1.4996c-0.01 0.82477-8e-3 1.5547 4e-3 1.622 0.0121 0.06734 0.0643 0.85246 0.11609 1.7447 0.0855 1.4722 0.0687 1.6406-0.18158 1.8209-0.32472 0.23387-0.49926 0.24247-0.84887 0.04182zm-32.549-0.48796c-0.51711-0.19347-0.95696-0.37504-0.97744-0.40349-0.0205-0.02845-0.2754-0.34874-0.56648-0.71174-0.71963-0.89744-1.0738-2.0138-0.97591-3.0765 0.0865-0.93953 0.33765-1.5021 1.1492-2.5743 0.45522-0.60143 0.73361-0.80512 1.509-1.104 0.7326-0.28243 1.0874-0.34313 1.5464-0.26452 0.3276 0.05611 0.99143 0.16378 1.4752 0.23927 1.1691 0.18242 1.3312 0.40479 1.2006 1.6468-0.11869 1.1291-0.14024 1.174-0.56264 1.1711-0.47004-0.0032-0.65796-0.15964-0.91237-0.75935-0.40478-0.95421-1.309-1.4015-1.9296-0.95457-0.34257 0.24673-0.52052 1.5866-0.48438 3.6471 0.0228 1.3026 0.0744 1.6154 0.30833 1.87 0.57499 0.62579 1.7014 0.21622 2.1495-0.78159 0.26275-0.58505 0.36073-0.6727 0.75198-0.6727 0.60664 0 0.75815 0.33155 0.75815 1.6591 0 1.238-0.17662 1.5186-0.85537 1.359-0.22569-0.05307-0.47736-0.0932-0.55926-0.08918-0.0819 4e-3 -0.58447 0.03974-1.1168 0.07939-0.78235 0.05826-1.1481 0.0046-1.9081-0.27968zm16.049 0.20678c-0.28943-0.05071-0.60773-0.1418-0.70732-0.20242-0.28283-0.17217-0.21292-0.64099 0.13098-0.87824 0.22208-0.15321 0.28359-0.30361 0.21332-0.52165-0.0842-0.26147-0.21796-0.30637-0.91236-0.30637-0.97637 0-1.2003 0.27965-0.59782 0.74646 0.8257 0.63972 0.3574 1.2513-0.84032 1.0975-1.3956-0.17928-1.4509-0.2084-1.4509-0.76441 0-0.31252 0.0849-0.53414 0.22493-0.58706 0.36387-0.13753 1.7295-3.3025 2.3746-5.5035 0.28242-0.96353 0.49797-1.1883 1.0769-1.1229 0.34058 0.03846 0.49415 0.19747 0.82476 0.85394 0.22344 0.44367 0.51606 1.2357 0.65025 1.76 0.41232 1.6111 1.4011 3.8479 1.883 4.2599 0.3346 0.28604 0.42488 0.47446 0.3865 0.80667l-0.0501 0.43346-1.3402 0.01043c-0.7371 0.0057-1.577-0.03105-1.8664-0.08176zm-0.8884-3.2192c0-0.07542-0.072-0.32292-0.16003-0.55-0.15435-0.39823-0.16757-0.40278-0.37227-0.12818-0.33994 0.456-0.26942 0.81531 0.16003 0.81531 0.20475 0 0.37227-0.0617 0.37227-0.13712z" fill="#c0c0c0"/><path d="m169.48 25.474c-0.8701-0.11855-0.97714-0.63067-0.22336-1.0687l0.52118-0.30288v-5.3817l-0.40768-0.19246c-0.48282-0.22793-0.60042-0.62902-0.28504-0.97226 0.19708-0.2145 0.54536-0.24324 2.6562-0.21914 2.6788 0.03057 3.6039 0.12959 3.8412 0.41114 0.2142 0.25422 0.31714 1.3871 0.17422 1.9174-0.0865 0.321-0.21788 0.44444-0.50909 0.47837-0.33879 0.03947-0.44425-0.05489-0.77093-0.68984-0.31412-0.61057-0.46385-0.75135-0.88111-0.82845-0.27648-0.05109-0.66224-0.07066-0.85723-0.0435-0.33142 0.04616-0.35742 0.11877-0.39831 1.1127-0.0359 0.87198-3e-3 1.0633 0.18231 1.0633 0.12434 0 0.329-0.19604 0.4548-0.43566 0.32342-0.61602 0.78471-0.83677 1.0992-0.52607 0.19843 0.19602 0.23652 0.51426 0.20686 1.7285-0.0244 0.99835-0.0979 1.5277-0.22336 1.6083-0.36884 0.23672-0.76746 0.03902-1.0713-0.5313-0.51408-0.96503-0.67928-0.84851-0.67928 0.4791v1.1739l0.4313 0.0933c0.74024 0.16014 1.4509-0.24616 1.8391-1.0514 0.31024-0.64362 0.38532-0.70526 0.85892-0.70526h0.51896l-0.0314 1.2981c-0.018 0.74441-0.10726 1.3881-0.20916 1.509-0.14561 0.17279-0.69155 0.20325-3.0212 0.16855-1.5639-0.02329-3.011-0.06518-3.2158-0.09307zm-9.6938-0.47813c-0.23761-0.25053-0.43201-0.51072-0.43201-0.5782 0-0.16511-1.2314-2.1067-1.3753-2.1685-0.0626-0.02689-0.11382-0.14239-0.11382-0.25667 0-0.11428-0.067-0.20778-0.14891-0.20778-0.0819 0-0.14891-0.07366-0.14891-0.16368 0-0.09003-0.23453-0.47837-0.52118-0.86299-0.28665-0.38462-0.52118-0.77296-0.52118-0.86299 0-0.09003-0.067-0.16368-0.14891-0.16368-0.0924 0-0.14891 0.80056-0.14891 2.1084v2.1084l0.44673 0.088c0.35352 0.06964 0.44672 0.16456 0.44672 0.45496 0 0.59416-0.48898 0.77355-1.846 0.6772-0.89568-0.06359-1.2149-0.14465-1.3394-0.34016-0.22768-0.35745 0.049-0.74996 0.59546-0.84467l0.43081-0.07467 0.0808-5.644h-0.3457c-0.64306 0-0.90066-0.51778-0.46909-0.94286 0.2491-0.24536 1.391-0.30738 2.6117-0.14183 0.58291 0.07905 0.72009 0.17826 1.2677 0.91667 0.33771 0.45542 0.82992 1.2075 1.0938 1.6714 0.26388 0.46384 0.5404 0.84334 0.61448 0.84334 0.0741 0 0.13469-0.52341 0.13469-1.1631 0-1.0775-0.0235-1.1666-0.31984-1.21-0.39106-0.0573-0.65386-0.43604-0.52752-0.76027 0.0732-0.18791 0.30227-0.23994 1.0564-0.23994 0.5296 0 1.1348 0.06437 1.3449 0.14304 0.49673 0.18602 0.51077 0.696 0.0241 0.87822-0.19678 0.0737-0.3944 0.19231-0.43911 0.26359-0.12232 0.19492-0.12634 2.9697-7e-3 4.8425 0.097 1.5232 0.0829 1.6707-0.1782 1.8654-0.42192 0.31453-0.6397 0.26876-1.1173-0.2348zm-32.278-0.19935c-0.52106-0.19571-0.96205-0.37593-0.97998-0.40049-0.0179-0.02456-0.27458-0.36266-0.57034-0.75134-1.289-1.6939-1.3064-3.6728-0.0463-5.2569 0.1707-0.21459 0.41115-0.5215 0.53432-0.68203 0.12318-0.16052 0.65385-0.48554 1.1793-0.72227 0.81207-0.36586 1.0464-0.41192 1.563-0.30713 0.33419 0.0678 0.95653 0.16483 1.383 0.21563 1.0963 0.13058 1.4459 0.48409 1.3266 1.3413-0.0504 0.36242-0.0917 0.81028-0.0917 0.99526 0 0.37162-0.41734 0.57825-0.87744 0.43442-0.15499-0.04845-0.3667-0.3004-0.47047-0.55989-0.45601-1.1403-1.4365-1.616-2.0616-1.0003-0.56006 0.55163-0.61248 4.873-0.0663 5.4674 0.50902 0.554 1.7226 0.13635 2.0833-0.71698 0.26538-0.62776 0.43139-0.76982 0.90335-0.77304 0.47566-0.0032 0.6381 0.41853 0.6381 1.6568 0 1.2403-0.17702 1.5208-0.85537 1.3554-0.46843-0.1142-0.53474-0.11474-1.7505-0.01412-0.71232 0.05896-1.0855 0.0018-1.8408-0.28188zm16.057 0.21687c-0.95387-0.16712-1.1647-0.54126-0.57166-1.0143 0.22945-0.183 0.28824-0.34104 0.21333-0.57351-0.0911-0.28258-0.2089-0.3209-0.98683-0.3209-0.76618 0-0.88342 0.03669-0.88342 0.27647 0 0.15206 0.16753 0.38458 0.37228 0.51672 0.41903 0.27043 0.48366 0.69319 0.14792 0.96764-0.21355 0.17456-1.1777 0.1299-2.121-0.09824-0.44197-0.10689-0.48211-0.98806-0.0553-1.2131 0.29928-0.15776 1.4883-2.8775 2.1842-4.9962 0.49839-1.5173 0.58922-1.6401 1.1716-1.5842 0.39225 0.0377 0.51881 0.16209 0.86567 0.85083 0.22344 0.44367 0.51606 1.2357 0.65025 1.76 0.41232 1.6111 1.4011 3.8479 1.883 4.2599 0.3346 0.28604 0.42488 0.47446 0.3865 0.80667l-0.0501 0.43346-1.3402 0.01043c-0.7371 0.0057-1.577-0.03105-1.8664-0.08176zm-0.94345-3.412c-0.0494-0.1815-0.0907-0.4125-0.0918-0.51334-4e-3 -0.31719-0.40979-0.19892-0.50382 0.14667-0.15619 0.57405-0.10413 0.69667 0.29579 0.69667 0.3314 0 0.37622-0.04932 0.29985-0.33z" fill="#bdbdbd"/><path d="m169.44 25.479c-0.41802-0.04737-0.79402-0.50335-0.63025-0.76433 0.0499-0.07957 0.28756-0.24491 0.52806-0.3674l0.43729-0.22272v-5.4032l-0.40768-0.19246c-0.48317-0.22809-0.60037-0.62907-0.28439-0.97297 0.19696-0.21436 0.54344-0.24465 2.5817-0.22572 2.659 0.0247 3.6824 0.14239 3.9446 0.45367 0.1912 0.2269 0.23675 1.9401 0.0591 2.2231-0.057 0.09075-0.2695 0.165-0.47233 0.165-0.29539 0-0.42608-0.13171-0.65686-0.66198-0.31882-0.73257-0.69757-0.95137-1.6468-0.95137h-0.58594v1.1c0 1.2676 0.24162 1.4592 0.75643 0.59977 0.3647-0.60884 0.7074-0.761 1.0197-0.45275 0.18631 0.1839 0.2265 0.51912 0.19669 1.6407-0.0212 0.79907-0.11233 1.4984-0.21033 1.6147-0.29396 0.34888-0.75759 0.15257-1.0832-0.45864-0.51426-0.96538-0.67928-0.84856-0.67928 0.48088 0 1.3162 0.12681 1.4641 1.0829 1.2628 0.64212-0.13521 0.81066-0.28836 1.2438-1.1302 0.33699-0.65503 0.40747-0.71087 0.84461-0.66922l0.47692 0.04544-0.039 1.3071c-0.0215 0.71891-0.11621 1.3987-0.21054 1.5107-0.13783 0.16358-0.72988 0.19492-3.0136 0.15957-1.5632-0.0242-3.0264-0.06488-3.2516-0.09041zm-9.3834-0.21026c-0.13491-0.10083-0.68539-0.90145-1.2233-1.7791-0.94989-1.5499-2.246-3.541-2.4891-3.8236-0.0659-0.07663-0.11981 0.86387-0.11981 2.09 0 2.049 0.0217 2.2294 0.26804 2.2294 0.58016 0 0.83232 0.67495 0.3879 1.0382-0.31629 0.25855-2.5828 0.19707-2.8676-0.07779-0.31615-0.30511-0.0689-0.79342 0.47149-0.93122l0.4745-0.12099 0.0808-5.6283h-0.37024c-0.7377 0-0.84111-0.94409-0.12288-1.1216 0.55893-0.13817 2.7224 0.06105 2.9873 0.27508 0.12702 0.10261 0.61958 0.78056 1.0946 1.5066 1.4053 2.1479 1.3045 2.0992 1.3121 0.63354 6e-3 -1.1924-0.0137-1.2761-0.31321-1.32-0.4538-0.0665-0.68388-0.47261-0.43507-0.76791 0.22578-0.26794 1.6814-0.32421 2.3088-0.08926 0.54523 0.20418 0.50916 0.70855-0.0648 0.90562l-0.44673 0.15339-0.0234 1.489c-0.013 0.81895-0.0143 1.588-3e-3 1.709 0.222 2.4155 0.21072 3.2387-0.0482 3.5205-0.31169 0.33923-0.51586 0.3653-0.85803 0.10954zm-32.497-0.4678c-2.0914-0.78914-3.1547-3.4096-2.2102-5.4463 0.46561-1.004 1.3785-1.9675 2.2258-2.3493 0.88335-0.39797 1.2213-0.42336 2.5068-0.18835 1.836 0.33565 1.9706 0.47844 1.7641 1.8724-0.1889 1.2754-0.81497 1.4056-1.3929 0.28988-0.41581-0.80279-0.8417-1.143-1.4384-1.1491-0.86953-0.0088-0.99957 0.4034-1.0044 3.184-4e-3 2.2167 0.0188 2.4242 0.28487 2.6161 0.67074 0.48358 1.599 0.12496 2.1769-0.84102 0.42784-0.71515 0.96159-0.91297 1.2856-0.47649 0.25145 0.3387 0.26379 2.4256 0.0158 2.6699-0.22509 0.2217-0.75159 0.22772-0.97152 0.01112-0.12393-0.12207-0.2921-0.12207-0.64763 0-0.72183 0.24785-1.5999 0.18257-2.595-0.19291zm16.003 0.20564c-0.94629-0.1523-1.1358-0.46182-0.58402-0.95369 0.1674-0.14922 0.28467-0.40695 0.26059-0.57274-0.038-0.26176-0.16626-0.30717-0.97447-0.34509-0.79054-0.03709-0.93068-0.0065-0.93068 0.20318 0 0.13577 0.16753 0.39977 0.37228 0.58667 0.75532 0.68948 0.26128 1.1791-1.0181 1.0089-0.42284-0.05622-0.88606-0.16295-1.0294-0.23717-0.38911-0.2015-0.31729-0.8238 0.14891-1.2902 0.41915-0.41931 0.94824-1.6449 1.9683-4.5594 0.31776-0.90788 0.6666-1.7078 0.7752-1.7776 0.38129-0.245 0.92067-0.06235 1.1969 0.4053 0.14819 0.2509 0.46818 1.1089 0.7111 1.9067 0.24291 0.79777 0.67777 2.009 0.96634 2.6916 0.28858 0.68263 0.52469 1.3225 0.52469 1.422 0 0.09948 0.18427 0.26758 0.4095 0.37358 0.45463 0.21395 0.61152 0.74185 0.32243 1.0849-0.14142 0.16784-0.46495 0.20935-1.3888 0.1782-0.66246-0.02234-1.4413-0.07873-1.7307-0.12532zm-0.94345-3.4045c-0.0494-0.1815-0.0907-0.4125-0.0918-0.51334-4e-3 -0.31719-0.40979-0.19892-0.50382 0.14667-0.15619 0.57405-0.10413 0.69667 0.29579 0.69667 0.3314 0 0.37622-0.04932 0.29985-0.33z" fill="#808080"/><path d="m169.35 25.415c-0.46312-0.1171-0.71928-0.50707-0.48477-0.73804 0.0777-0.07652 0.29766-0.21588 0.48883-0.30968 0.34362-0.16861 0.34805-0.20225 0.38791-2.9564l0.0403-2.7858-0.44982-0.16724c-0.54474-0.20252-0.5991-0.65976-0.11793-0.99172 0.26066-0.17983 0.54028-0.20736 1.303-0.1283 0.53409 0.05537 1.1386 0.09018 1.3433 0.07736 1.5195-0.09511 3.5308 0.0769 3.6819 0.31488 0.16166 0.25462 0.20605 0.54309 0.19519 1.2684-0.0131 0.87393-0.12191 1.1738-0.42498 1.1711-0.3612-0.0032-0.51134-0.14528-0.84619-0.80054-0.23465-0.45918-0.42235-0.61702-0.88503-0.74424-0.32295-0.08881-0.74176-0.13236-0.93068-0.09679-0.297 0.05592-0.3455 0.15662-0.35847 0.74425-8e-3 0.37376-0.025 0.87758-0.0372 1.1196-0.0314 0.621 0.33683 0.56928 0.78312-0.11 0.36434-0.55454 0.91838-0.74131 1.142-0.38496 0.17081 0.27223 0.0857 2.9312-0.10092 3.1527-0.33701 0.39996-1.0274 0.13722-1.0274-0.39098 0-0.28918-0.55339-0.81724-0.7025-0.67036-0.1205 0.11868-0.0753 2.1187 0.0525 2.3223 0.13235 0.21092 1.2891 0.08959 1.5968-0.16748 0.15217-0.12715 0.43809-0.54469 0.63536-0.92786 0.26761-0.51976 0.44314-0.6961 0.69122-0.69443 0.67583 0.0046 0.74346 0.1632 0.63202 1.4825-0.0571 0.67572-0.168 1.2946-0.24646 1.3753-0.16729 0.17196-5.6997 0.20372-6.361 0.03653zm-9.1612-0.09231c-0.1543-0.05968-0.42234-0.34588-0.59564-0.636-1.1767-1.9699-3.1797-5.0074-3.34-5.065-0.0562-0.02022-0.089 0.37578-0.073 0.88001 0.0161 0.50423 0.0328 1.4878 0.0372 2.1858l8e-3 1.269 0.44673 0.15339c0.49512 0.17 0.59775 0.59595 0.21831 0.90611-0.22279 0.18212-2.0702 0.22307-2.6243 0.05817-0.60024-0.17864-0.45658-0.91374 0.20397-1.0439 0.2424-0.04775 0.46633-0.15993 0.4976-0.2493 0.0313-0.08936 0.0758-1.3671 0.0989-2.8393 0.0407-2.5923 0.0326-2.6769-0.25581-2.6789-0.55132-0.0038-0.9131-0.49145-0.66098-0.89089 0.17839-0.28264 3.0163-0.25222 3.3697 0.03612 0.20727 0.1691 1.1099 1.4775 2.0465 2.9665 0.3626 0.57649 0.4656 0.32531 0.40763-0.99418-0.0358-0.81441-0.10322-1.1152-0.24998-1.1152-0.11052 0-0.30613-0.10358-0.43467-0.23019-0.17911-0.17641-0.19681-0.29808-0.0758-0.52079 0.13449-0.24754 0.29536-0.28622 1.0855-0.26102 1.1797 0.03761 1.5853 0.18472 1.5853 0.5749 0 0.20779-0.14308 0.35481-0.44673 0.45908-0.41659 0.14304-0.44731 0.20436-0.45533 0.90904-0.0286 2.5139-0.0181 3.0871 0.0792 4.3214 0.0939 1.1905 0.0742 1.4022-0.15343 1.65-0.28473 0.30988-0.30662 0.3146-0.71893 0.15514zm-29.203-0.31194c-0.1638-0.05921-0.81049-0.07421-1.4371-0.03334-1.4919 0.09732-2.5065-0.22815-3.2996-1.0584-0.6145-0.64337-1.0688-1.378-0.93416-1.5107 0.0463-0.04558 0.0227-0.15579-0.0524-0.24491-0.27936-0.33155-0.2681-1.6111 0.0219-2.49 0.6112-1.8521 2.2808-3.1021 3.9324-2.9441 0.44106 0.04219 0.97487 0.14147 1.1862 0.22062 0.21137 0.07915 0.44067 0.1096 0.50956 0.06767 0.21361-0.13003 0.8629 0.24163 0.9419 0.53915 0.0413 0.15542 0.0403 0.62588-2e-3 1.0455-0.12865 1.2726-0.77892 1.4537-1.3788 0.38393-0.5556-0.99075-1.2205-1.3974-1.8116-1.108-0.55581 0.27214-0.69928 0.98007-0.67577 3.3345 0.0243 2.4335 0.0969 2.6258 0.99177 2.6258 0.62573 0 1.2205-0.45997 1.6658-1.2882 0.27596-0.51329 0.6971-0.61442 1.062-0.25501 0.15164 0.14936 0.22324 0.54864 0.23013 1.2833 0.0131 1.3998-0.19052 1.7067-0.95016 1.4321zm12.415-0.07667c-0.74749-0.17956-0.85492-0.38114-0.4275-0.80213 0.17849-0.1758 0.29607-0.45136 0.2699-0.63251-0.0409-0.28271-0.15127-0.32631-0.92603-0.36566-1.0946-0.05559-1.3059 0.16674-0.68718 0.72332 0.43106 0.38778 0.48786 0.98478 0.0976 1.0258-0.57596 0.06048-1.938-0.09098-2.1883-0.24334-0.25133-0.15299-0.14659-0.79828 0.17193-1.0592 0.28898-0.23669 0.89268-1.3779 1.1825-2.2352 0.0682-0.20167 0.3347-0.92767 0.5923-1.6133 0.25759-0.68567 0.49522-1.3787 0.52806-1.54 0.2322-1.1409 0.94382-1.5657 1.5497-0.92516 0.26779 0.28311 1.1966 2.8143 1.1966 3.261 0 0.09283 0.12636 0.41291 0.28081 0.71129 0.15445 0.29838 0.4369 0.97799 0.62767 1.5102 0.26 0.72538 0.45071 1.0206 0.76155 1.1789 0.43861 0.2234 0.58872 0.88668 0.22855 1.0099-0.41048 0.14046-2.6683 0.13772-3.2581-4e-3zm-0.72517-3.2836c0-0.8417-0.46772-0.99548-0.70562-0.232-0.15737 0.50506-0.15298 0.51334 0.27283 0.51334 0.32737 0 0.43279-0.06853 0.43279-0.28134z" fill="#7d7d7d"/><path d="m171.34 25.489c-2.2546-0.0454-2.457-0.09034-2.457-0.54548 0-0.24361 0.12918-0.41681 0.4095-0.54906l0.4095-0.19318 0.0404-2.8048 0.0404-2.8048-0.37542-0.09281c-0.29501-0.07293-0.37543-0.18536-0.37543-0.52486 0-0.56153 0.42174-0.79043 1.2136-0.65866 0.32761 0.05451 1.5969 0.11342 2.8207 0.1309 1.4939 0.02134 2.2838 0.08967 2.4039 0.20794 0.22017 0.21686 0.32752 2.0744 0.13604 2.354-0.25315 0.36962-0.82032 0.07413-1.0921-0.56897-0.28157-0.66636-0.93124-1.0352-1.6628-0.944-0.23928 0.02983-0.45234 0.07273-0.47347 0.09533-0.0211 0.02261-0.0623 0.53611-0.0914 1.1411-0.0624 1.2957 0.15838 1.4541 0.75696 0.54307 0.28869-0.4394 0.44612-0.54774 0.74591-0.51334 0.37691 0.04325 0.38033 0.05594 0.42259 1.5622 0.0447 1.5942-0.0574 1.9281-0.58962 1.9281-0.18464 0-0.36113-0.17434-0.49434-0.48835-0.11393-0.26859-0.31438-0.576-0.44544-0.68312-0.42372-0.34636-0.54996 0.01044-0.41996 1.1869l0.11985 1.0846 0.65047 0.04595c0.77875 0.05501 1.245-0.29258 1.6848-1.256 0.2168-0.47488 0.36722-0.62334 0.63163-0.62334 0.57745 0 0.69041 0.2903 0.58606 1.5062-0.0524 0.61024-0.14989 1.1966-0.21669 1.3031-0.12777 0.2036-0.88939 0.23168-4.3786 0.16142zm-11.805-0.95403c-0.81101-1.4135-3.2098-4.95-3.3577-4.95-0.0922 0-0.11013 0.57531-0.0488 1.5628 0.0534 0.85956 0.0971 1.8431 0.0971 2.1857 0 0.56018 0.0449 0.63827 0.44673 0.77623 0.47086 0.16167 0.5914 0.55414 0.26803 0.87265-0.18627 0.18347-2.28 0.25059-2.7128 0.08697-0.13893-0.05251-0.23554-0.26135-0.23554-0.50914 0-0.35098 0.0796-0.44035 0.48395-0.54306l0.48396-0.12295 0.095-1.3846c0.0523-0.76153 0.1025-2.0281 0.11168-2.8146 0.0154-1.3176-6e-3 -1.43-0.26898-1.43-0.51267 0-0.75672-0.17163-0.75672-0.53217 0-0.53849 0.47103-0.66411 2.0032-0.5342l1.3331 0.11303 0.45383 0.60414c0.2496 0.33228 0.77867 1.1211 1.1757 1.7528 0.841 1.3382 1.0007 1.2786 0.88137-0.32914-0.0709-0.95492-0.11072-1.0603-0.43116-1.1395-0.51456-0.1272-0.49189-0.77513 0.0317-0.90455 0.55379-0.1369 1.8682 0.04563 2.1209 0.29453 0.2845 0.28022 0.13023 0.64021-0.3001 0.70028-0.31729 0.0443-0.35363 0.14529-0.46582 1.2947-0.0735 0.75309-0.0571 2.0168 0.0415 3.1919 0.1849 2.2045 0.11052 2.5282-0.5809 2.5282-0.36008 0-0.49676-0.12111-0.86906-0.77001zm-28.552 0.47173c-0.1625-0.0584-0.78516-0.07137-1.3837-0.02881-1.6456 0.11701-2.6984-0.25294-3.452-1.2129-0.79365-1.0111-1.0963-1.956-1.0094-3.1517 0.16884-2.3243 2.1712-4.1409 4.2095-3.8192 0.4095 0.06464 1.0621 0.16688 1.4502 0.2272 0.38813 0.06032 0.78879 0.20829 0.89034 0.32881 0.26073 0.30944 0.16873 1.9641-0.12136 2.1826-0.36984 0.27858-0.79761 0.05003-1.1033-0.58949-0.51914-1.086-1.4954-1.4697-2.1355-0.83931-0.29631 0.2918-0.32457 0.49321-0.37345 2.6606-0.0626 2.7761 0.0355 3.0738 1.0128 3.0738 0.61794 0 1.4971-0.5675 1.4971-0.96638 0-0.25728 0.53061-0.79442 0.78177-0.79139 0.43616 0.0053 0.58016 0.28257 0.65071 1.2531 0.0402 0.55352 0.0367 1.1496-8e-3 1.3247-0.0919 0.36048-0.46876 0.50546-0.90574 0.34839zm12.188-0.0947c-0.49382-0.0983-0.54144-0.46007-0.11213-0.85195 0.31952-0.29166 0.35475-0.39761 0.21669-0.65169-0.1384-0.2547-0.30743-0.30341-1.0531-0.30341-0.48852 0-0.88822 0.0276-0.88822 0.06134s-0.0403 0.16482-0.0896 0.2913c-0.0612 0.15715 0.0331 0.27589 0.29782 0.37504 0.29942 0.11213 0.38741 0.24583 0.38741 0.58871 0 0.4396-7e-3 0.44348-0.78177 0.42628-1.8511-0.04109-2.1634-0.41334-1.239-1.477 0.29243-0.3365 0.5317-0.68245 0.5317-0.76876 0-0.08631 0.2598-0.78394 0.57733-1.5503 0.31753-0.76634 0.76243-1.9693 0.98867-2.6733 0.4194-1.305 0.64268-1.5541 1.2289-1.3708 0.14492 0.0453 0.37904 0.29725 0.52025 0.55989 0.28064 0.52193 0.84474 2.1276 0.8506 2.4212 2e-3 0.101 0.32163 0.98218 0.71026 1.9582 0.57587 1.4462 0.78417 1.8141 1.1259 1.9881 0.32758 0.16684 0.40916 0.29995 0.37299 0.60851l-0.0463 0.39495-1.638 0.01894c-0.9009 0.01041-1.7831-0.0099-1.9604-0.04524zm-0.49655-3.319c0-0.18625-0.0935-0.46461-0.20782-0.61858-0.19598-0.26398-0.22146-0.24783-0.44673 0.28322-0.30319 0.71472-0.31575 0.674 0.20783 0.674 0.36737 0 0.44672-0.06015 0.44672-0.33864z" fill="#414141"/><path d="m171.2 25.484c-1.1087-0.02374-2.0092-0.10917-2.122-0.20129-0.32291-0.26395-0.22221-0.68232 0.21372-0.88798l0.4095-0.19318 0.0404-2.8048 0.0404-2.8048-0.37542-0.09281c-0.29501-0.07293-0.37543-0.18536-0.37543-0.52486 0-0.6421 0.39361-0.78917 1.6133-0.60278 0.54978 0.08402 1.2459 0.11339 1.5469 0.06528 0.63487-0.10148 2.9501 0.06355 3.2231 0.22973 0.22214 0.13522 0.39714 1.5869 0.2574 2.1352-0.14785 0.58022-0.68508 0.44537-1.0348-0.25975-0.15183-0.30613-0.42181-0.65068-0.59998-0.76566-0.39345-0.25392-1.2962-0.40465-1.5212-0.25399-0.21689 0.14525-0.40472 2.1902-0.21196 2.3076 0.19379 0.11797 0.74657-0.18061 0.75257-0.4065 0.0107-0.40571 0.42177-0.72831 0.80665-0.63316 0.37488 0.09267 0.37988 0.11284 0.37988 1.5298 0 1.5379-0.16631 2.0053-0.67993 1.9109-0.17045-0.03132-0.34381-0.23924-0.42479-0.50947-0.15326-0.51142-0.63673-0.89296-0.85682-0.67618-0.0836 0.08231-0.0915 0.57245-0.0197 1.2221l0.11985 1.0846 0.69441 0.04418c0.80691 0.05134 1.1655-0.22302 1.6391-1.2542 0.2179-0.47438 0.36927-0.62334 0.63339-0.62334 0.61615 0 0.71997 0.30036 0.55849 1.6159-0.0804 0.65528-0.19091 1.2354-0.24553 1.2892-0.10798 0.10635-1.4596 0.12463-4.4615 0.06034zm-12.266-1.9043c-2.0172-3.1895-2.5032-3.9026-2.7046-3.9687-0.16399-0.05384-0.18271 0.22347-0.10234 1.517 0.0541 0.87059 0.0983 1.8632 0.0983 2.2057 0 0.56018 0.0449 0.63827 0.44673 0.77623 0.52109 0.17892 0.60637 0.66084 0.15869 0.89682-0.30995 0.16339-2.2158 0.20936-2.6035 0.0628-0.13893-0.05251-0.23554-0.26135-0.23554-0.50914 0-0.35098 0.0796-0.44035 0.48395-0.54306l0.48396-0.12295 0.095-1.3846c0.0523-0.76153 0.1025-2.0281 0.11168-2.8146 0.0154-1.3176-6e-3 -1.43-0.26898-1.43-0.5098 0-0.75672-0.17094-0.75672-0.52387 0-0.53747 0.42074-0.6585 1.9238-0.55342 1.3281 0.09285 1.3577 0.10321 1.761 0.61662 0.22561 0.2872 0.44378 0.59084 0.48482 0.67476 0.041 0.08392 0.40016 0.643 0.79803 1.2424 0.84375 1.2711 0.99742 1.2072 0.88065-0.36603-0.0651-0.87646-0.1258-1.0574-0.39393-1.1733-0.17435-0.07542-0.33811-0.2833-0.3639-0.46195-0.0604-0.41843 0.42774-0.55125 1.5282-0.41582 1.1466 0.14111 1.4628 0.63881 0.60889 0.95857-0.30887 0.11566-0.34657 0.25004-0.4397 1.5676-0.0567 0.80231-0.0291 2.2029 0.0624 3.1596 0.18665 1.9529 0.098 2.3163-0.56411 2.3127-0.35416-2e-3 -0.53915-0.2155-1.4928-1.7233zm-27.951 1.4285c-0.1625-0.05774-0.81159-0.0713-1.4424-0.03014-1.6378 0.10686-2.6842-0.28862-3.4553-1.306-1.4212-1.8749-1.2756-4.0426 0.39367-5.8636 0.47317-0.51618 1.8717-1.1978 2.2401-1.0917 0.0999 0.02877 0.77221 0.13622 1.494 0.23878 1.5982 0.2271 1.7137 0.34327 1.5915 1.6017-0.13313 1.3715-0.77283 1.5051-1.3838 0.28915-0.63716-1.268-2.0133-1.4515-2.3349-0.31128-0.0833 0.29523-0.15175 1.4626-0.1522 2.5942-1e-3 2.4195 0.10918 2.7093 1.0299 2.7093 0.68304 0 1.2755-0.41609 1.5653-1.0994 0.24287-0.57252 0.75686-0.79435 1.087-0.46915 0.23544 0.23189 0.41627 1.826 0.27156 2.3939-0.0905 0.3552-0.46862 0.49914-0.90438 0.3443zm12.191-0.14196c-0.5077-0.20176-0.54417-0.41393-0.1353-0.78716 0.43818-0.39998 0.4704-0.57123 0.15586-0.82834-0.28963-0.23676-1.7267-0.20946-1.8848 0.0358-0.19387 0.30083-0.14571 0.40451 0.25813 0.55574 0.30284 0.11341 0.37238 0.2268 0.33505 0.54637-0.0416 0.35634-0.11643 0.40823-0.64275 0.44593-0.3276 0.02346-0.86367-0.01222-1.1913-0.07931-0.78985-0.16174-0.85731-0.57011-0.21807-1.3201 0.48966-0.57447 1.1264-2.0606 2.0414-4.7643 0.54223-1.6022 0.74315-1.8509 1.3438-1.6631 0.14492 0.0453 0.37675 0.29725 0.51518 0.55989 0.28561 0.54189 0.85955 2.2055 0.85889 2.4896-4.5e-4 0.16061 1.0225 2.8343 1.3345 3.488 0.0577 0.121 0.25306 0.286 0.43405 0.36667 0.34352 0.15311 0.56375 0.6782 0.39634 0.945-0.1176 0.18741-3.1333 0.19522-3.601 0.0093zm-0.49919-3.273c0-0.18625-0.0935-0.46461-0.20782-0.61858-0.19598-0.26398-0.22146-0.24783-0.44673 0.28322-0.30319 0.71472-0.31575 0.674 0.20783 0.674 0.36737 0 0.44672-0.06015 0.44672-0.33864z" fill="#3d3d3d"/><path d="m171.2 25.484c-1.1087-0.02374-2.0092-0.10917-2.122-0.20129-0.34978-0.28593-0.22729-0.71524 0.25094-0.87944l0.44673-0.15339v-2.8109c0-2.7743-4e-3 -2.8128-0.33504-2.9557-0.20389-0.08811-0.35311-0.29881-0.3812-0.53825-0.0704-0.60029 0.34346-0.74739 1.5629-0.55551 0.55135 0.08675 1.2646 0.11412 1.5849 0.06081 0.66867-0.11127 2.9256 0.04471 3.2174 0.22238 0.11767 0.07163 0.22506 0.52245 0.26921 1.1301 0.0589 0.81119 0.0262 1.0495-0.16569 1.2064-0.35555 0.29064-0.63343 0.11013-0.96418-0.62637-0.25513-0.56805-0.38364-0.68294-0.92434-0.82635-0.88255-0.23407-1.3322-0.09647-1.3339 0.40815 0 0.2203-0.0436 0.74704-0.0952 1.1705-0.0874 0.71652-0.0719 0.77001 0.22279 0.77001 0.20754 0 0.4463-0.20222 0.6927-0.58667 0.38907-0.60705 0.63115-0.71302 0.93812-0.41067 0.2672 0.26318 0.23845 2.7687-0.0359 3.1327-0.32263 0.42792-0.65602 0.18674-1.127-0.81531-0.0569-0.121-0.25738-0.24239-0.44557-0.26975-0.3302-0.04801-0.33881-0.0224-0.24667 0.73334 0.0525 0.4307 0.096 0.99759 0.0968 1.2598 1e-3 0.47261 7e-3 0.47667 0.72934 0.47667 0.86863 0 1.2219-0.2449 1.6923-1.1733 0.35899-0.70843 0.63284-0.8528 1.049-0.55305 0.22607 0.16282 0.2483 0.3349 0.16178 1.2518-0.0552 0.58467-0.18426 1.1761-0.28685 1.3143-0.20338 0.27394-0.71417 0.29907-4.4515 0.21903zm-11.278-0.43542c-0.12169-0.14117-0.41106-0.58667-0.64304-0.99001-0.78866-1.3712-2.9238-4.4734-3.0789-4.4734-0.14894 0-0.0302 4.1751 0.12616 4.4367 0.0361 0.0605 0.1913 0.11 0.34474 0.11 0.15565 0 0.32441 0.14096 0.38174 0.31883 0.16152 0.50128-0.28017 0.70785-1.5136 0.70785-1.2988 0-1.5473-0.08023-1.5473-0.4997 0-0.40796 0.26696-0.67365 0.67689-0.67365 0.30497 0 0.32391-0.08509 0.41634-1.87 0.0533-1.0285 0.0971-2.3155 0.0974-2.86 0-0.93544-0.0183-0.99001-0.34188-0.99001-0.40867 0-0.69987-0.25417-0.69987-0.61084 0-0.43957 0.47596-0.55654 1.8703-0.45962 1.5374 0.10686 1.5315 0.10258 2.7424 2.0183 1.2109 1.9158 1.3968 1.9328 1.2419 0.11382-0.0716-0.84056-0.13828-1.0312-0.40069-1.1451-0.37444-0.16244-0.50249-0.63682-0.21955-0.81343 0.51835-0.32355 2.4344 0.03447 2.4344 0.45487 0 0.11991-0.17626 0.30123-0.39169 0.40293-0.37398 0.17655-0.39625 0.25282-0.49299 1.6887-0.0562 0.83337-0.0295 2.2411 0.0598 3.1576 0.1777 1.8244 0.0867 2.2328-0.49745 2.2328-0.18917 0-0.44351-0.1155-0.5652-0.25667zm-32.541-0.38122c-1.798-0.73212-2.8124-3.3947-1.9808-5.1993 0.5838-1.267 1.21-1.9572 2.1599-2.3806 0.79208-0.35307 0.98638-0.38432 1.7124-0.27539 0.45045 0.06758 1.1368 0.16732 1.5252 0.22165 0.3884 0.05433 0.78548 0.19289 0.8824 0.30791 0.17267 0.20492 0.19237 1.4715 0.031 1.9955-0.15537 0.50466-0.81518 0.2473-1.2439-0.4852-0.75768-1.2945-2.0589-1.4618-2.3847-0.30666-0.0817 0.28967-0.14891 1.4899-0.14936 2.6673-9e-4 2.396 0.0887 2.6261 1.0234 2.6261 0.7395 0 1.2929-0.35868 1.5572-1.0093 0.26531-0.65309 0.75035-0.90527 1.0927-0.5681 0.26536 0.26137 0.42305 2.0423 0.21477 2.4256-0.13184 0.24264-0.34952 0.27516-1.9072 0.28497-1.4769 0.0093-1.8824-0.03942-2.5331-0.30439zm15.89 0.2135c-0.49133-0.13465-0.56583-0.58645-0.14791-0.89694 0.24184-0.17968 0.30351-0.3311 0.22901-0.56229-0.10584-0.32846-0.39687-0.39445-1.4221-0.32242-0.76713 0.05389-1.0175 0.55187-0.4095 0.81459 0.21891 0.0946 0.33504 0.27188 0.33504 0.51145 0 0.32289-0.0711 0.37176-0.59563 0.40933-0.3276 0.02346-0.86367-0.01213-1.1913-0.0791-0.49245-0.10067-0.60356-0.18818-0.64136-0.50515-0.0287-0.24103 0.0552-0.45673 0.22595-0.58091 0.36418-0.26477 0.65293-0.75514 1.0663-1.8109 0.18951-0.484 0.46573-1.177 0.61383-1.54 0.14809-0.363 0.41269-1.1212 0.58798-1.6849 0.17529-0.56371 0.41802-1.1742 0.5394-1.3567 0.52038-0.78224 1.2197-0.12942 1.7799 1.6616 0.2248 0.7187 0.66799 1.9515 0.98488 2.7395 0.31688 0.78805 0.57615 1.5242 0.57615 1.6358 0 0.11163 0.24303 0.395 0.54007 0.62971 0.42964 0.33948 0.51893 0.49234 0.43669 0.74756-0.0978 0.30366-0.18451 0.32004-1.6197 0.3062-0.83395-8e-3 -1.6834-0.06043-1.8878-0.11643zm-0.59642-3.3036c0-0.44546-0.14128-0.81867-0.30992-0.81867-0.14138 0-0.58353 0.77241-0.58353 1.0194 0 0.08467 0.20103 0.15395 0.44673 0.15395 0.3732 0 0.44672-0.05837 0.44672-0.35467z"/>
</svg>
