<?xml version="1.0" encoding="utf-8"?>
<svg xmlns="http://www.w3.org/2000/svg" viewBox="0 0 457 711">
	<title>Stylized page marking second section of the book. At the top of the page is a portion of a circle, roughly one-third complete, rendered in a thick black line.</title>
	<path d="m408.25 126.61c-.45373-.57303-1.6194-3.1986-2.5909-5.8347-2.3169-6.287-5.0684-10.462-12.182-18.486-10.648-12.01-18.868-18.827-29.617-24.561-2.0611-1.0995-4.3395-2.506-5.0632-3.1255-.72357-.61949-1.9034-1.1264-2.6215-1.1264-.71766 0-3.9201-1.1125-7.1155-2.4723-13.608-5.7908-30.633-8.545-46.039-7.4481-11.823.84167-13.55 1.1289-22.92 3.8116-9.147 2.6187-22.503 8.5829-28.934 12.921-9.8259 6.6272-24.274 23.286-31.778 36.639-2.6411 4.6999-6.1209 5.7478-9.996 3.0102-2.083-1.4716-2.2986-2.0216-1.811-4.6206.30456-1.6226 2.532-5.9807 4.9502-9.6848 2.4183-3.7041 4.7334-7.3532 5.1449-8.1092.41169-.75592 3.6772-4.5777 7.2571-8.4929 9.1337-9.9886 16.516-15.422 31.413-23.122 17.558-9.0749 42.92-13.74 63.76-11.728 8.6114.83143 24.715 4.3917 26.637 5.8891.47737.37179 1.9797.94256 3.339 1.2685 3.6525.87573 21.724 10.062 27.511 13.985 14.514 9.838 26.58 22.806 35.893 38.577 3.5108 5.9455 4.6462 8.808 4.1338 10.422-.88402 2.7852-7.6662 4.4411-9.3706 2.2878z"/>
</svg>
