<?xml version="1.0" encoding="utf-8"?>
<svg xmlns="http://www.w3.org/2000/svg" viewBox="0 0 210 297">
	<title>A stylized page marking the untitled second section of the book. At the top of the page is a portion of a circle, roughly one-third complete, rendered in a thick black line.</title>
	<path d="m76.87 290.93c0.10622-0.0425 0.23314-0.0373 0.28204 0.0116 0.0489 0.0489-0.03801 0.0837-0.19314 0.0773-0.17142-7e-3 -0.20629-0.0419-0.0889-0.0889zm-0.63459-0.19378c-0.05002-0.0809-0.02473-0.14715 0.05621-0.14715 0.08093 0 0.18808 0.0662 0.2381 0.14715 0.05002 0.0809 0.02473 0.14715-0.05621 0.14715-0.08093 0-0.18808-0.0662-0.2381-0.14715zm1.5451 0c-0.34246-0.10967-0.3456-0.11883-0.04547-0.13248 0.17732-8e-3 0.36333 0.0515 0.41335 0.13248 0.05002 0.0809 0.07048 0.14054 0.04547 0.13248-0.02501-8e-3 -0.21102-0.0677-0.41335-0.13248zm-1.103-0.25597c-0.41031-0.10317-0.87578-0.50641-0.9245-0.8009-0.03611-0.21829 0.11593-0.24436 1.2868-0.22073 0.7723 0.0156 1.3261 0.0884 1.3238 0.17396-0.0065 0.24779-0.3463 0.60661-0.6567 0.69353-0.16187 0.0453-0.39363 0.11517-0.51503 0.1552-0.1214 0.04-0.35287 0.0396-0.51438-1e-3zm-29.137-1.9513c0.05002-0.0809 0.12015-0.14715 0.15584-0.14715s0.06489 0.0662 0.06489 0.14715c0 0.0809-0.07013 0.14715-0.15584 0.14715-0.08571 0-0.11491-0.0662-0.06489-0.14715zm0.63459 0.0466c0.10622-0.0425 0.23314-0.0373 0.28204 0.0116 0.0489 0.0489-0.03802 0.0837-0.19314 0.0773-0.17142-7e-3 -0.20629-0.0419-0.0889-0.0889zm10.23-0.14379c0-0.13016 0.07605-0.14055 0.26978-0.0369 0.14838 0.0794 0.26978 0.16097 0.26978 0.18125 0 0.0203-0.1214 0.0369-0.26978 0.0369-0.14838 0-0.26978-0.0815-0.26978-0.18124zm-11.758-0.20791c0-0.15593 0.05203-0.28351 0.11562-0.28351 0.06359 0 0.11562 0.0954 0.11562 0.21205 0 0.11662-0.05203 0.2442-0.11562 0.2835-0.06359 0.0393-0.11562-0.0561-0.11562-0.21204zm1.3809 0.0574c0.10622-0.0425 0.23314-0.0373 0.28204 0.0116 0.0489 0.0489-0.03802 0.0837-0.19314 0.0773-0.17142-7e-3 -0.20629-0.0419-0.0889-0.0889zm-0.10249-0.38641c-0.0094-0.14641-0.08329-0.22527-0.16422-0.17525-0.08093 0.05-0.14715-8e-3 -0.14715-0.1287 0-0.12835 0.16347-0.23899 0.39332-0.2662 0.21633-0.0256 0.42575-0.14588 0.46538-0.26728 0.05635-0.17258 0.02672-0.18458-0.1358-0.055-0.12463 0.0994-0.32572 0.11825-0.50217 0.0471-0.33675-0.13573-0.33538-0.13645 0.40402-0.21426 0.54193-0.057 0.55056-0.05 0.51503 0.42235-0.03046 0.4049-0.08603 0.47085-0.35364 0.41981-0.21743-0.0415-0.33959 0.0252-0.3876 0.21151-0.06601 0.25621-0.07109 0.25655-0.08717 6e-3zm15.176-0.0584c-0.1821-0.0351-0.33109-0.13276-0.33109-0.21706 0-0.16854 0.9478-0.0378 1.3244 0.18271 0.23594 0.13815-0.34929 0.15838-0.99327 0.0344zm-4.2306-0.54587c0.49792-0.39924 0.58447-0.38951 0.44497 0.05-0.06646 0.20942-0.221 0.30517-0.49168 0.30467h-0.39475l0.44145-0.35396zm-5.9596 0.15043c0-0.0318 0.10277-0.0973 0.22837-0.14547 0.13095-0.0503 0.19002-0.0256 0.13847 0.0578-0.08642 0.13982-0.36684 0.20681-0.36684 0.0876zm-2.0077-0.45929c-0.05096-0.1328 0.0013-0.33542 0.11614-0.45025 0.1803-0.18029 0.21286-0.15965 0.2386 0.15127 0.03536 0.4273-0.22219 0.64439-0.35474 0.29898zm1.1616 0.11507c-0.67346-0.0606-0.76577-0.18179-0.38074-0.49963 0.19074-0.15744 0.2583-0.16141 0.30656-0.018 0.03405 0.10117 0.21485 0.18394 0.40178 0.18394 0.18693 0 0.37799 0.0993 0.42457 0.22073 0.04659 0.1214 0.03711 0.20916-0.02104 0.19502-0.05816-0.0141-0.38717-0.0511-0.73114-0.082zm2.6617-0.21291c-0.31101-0.34366-0.17202-0.49397 0.22658-0.24504 0.24064 0.15029 0.34298 0.15244 0.48521 0.0102 0.25901-0.25902 0.4157-0.22232 0.4157 0.0973 0 0.40075-0.80086 0.49841-1.1275 0.1375zm-5.5479-0.0464c0.04641-0.12093 0.14366-0.18323 0.21611-0.13846 0.20777 0.12841 0.15362 0.35835-0.08438 0.35835-0.13127 0-0.18298-0.0863-0.13173-0.21989zm0.74155-0.0549c0.06117-0.23391 0.12459-0.25032 0.42653-0.11036 0.47877 0.22193 0.44881 0.38514-0.07071 0.38514-0.3451 0-0.4138-0.0531-0.35582-0.27478zm3.0643-0.0195c-0.23196-0.2563-0.23602-0.2943-0.03149-0.2943 0.12917 0 0.27971 0.0726 0.33453 0.16129 0.05483 0.0887 0.2905 0.13329 0.52371 0.0991 0.28548-0.0419 0.42403 2e-3 0.42403 0.13301 0 0.31624-0.9425 0.24159-1.2508-0.0991zm4.1938 0.0991c0-0.13323 0.14021-0.17467 0.44145-0.13045 0.2428 0.0356 0.44145 0.12349 0.44145 0.19524 0 0.0718-0.19865 0.13045-0.44145 0.13045-0.26869 0-0.44145-0.0764-0.44145-0.19524zm131.99-52.487c-0.14681-0.0938-0.15914-0.14178-0.0368-0.14328 0.10116-1e-3 0.18394-0.0724 0.18394-0.15808 0-0.0857-0.0552-0.12174-0.12263-0.08-0.0675 0.0417-0.12263-0.0238-0.12263-0.14548 0-0.19182 0.028-0.19327 0.21035-0.0109 0.28334 0.28334 0.18993 0.73087-0.11225 0.53781zm0.18964-0.83567c-0.0534-0.13925-0.0186-0.2743 0.0791-0.30687 0.096-0.032 0.13513-0.12196 0.087-0.19992-0.0557-0.0902-0.15195-0.0883-0.26448 5e-3 -0.12686 0.10529-0.18298 0.0657-0.19847-0.14001-0.0264-0.35059 0.0757-0.36095 0.42676-0.0433 0.2339 0.21167 0.2691 0.21403 0.2691 0.018 0-0.12403 0.0852-0.2962 0.18929-0.38262 0.1448-0.12017 0.1963-0.0725 0.21908 0.20271 0.0197 0.23809-0.0465 0.35982-0.19574 0.35982-0.12405 0-0.21478 0.0828-0.20165 0.18394 0.0728 0.56101-0.22615 0.7821-0.40995 0.30313zm0.0296-1.0781c-0.0508-0.0823-0.17062-0.10475-0.26619-0.05-0.0956 0.0548-0.12093 0.0416-0.0564-0.0292 0.0646-0.0708 0.27939-0.1374 0.47736-0.14796 0.28579-0.0153 0.3261 0.0216 0.19566 0.17871-0.19703 0.23742-0.23077 0.24208-0.35047 0.0484zm-161.24-57.07c-0.03916-0.14974 0.04985-0.43117 0.1978-0.62539l0.269-0.35312-0.03102 0.4378c-0.0264 0.37256 0.02197 0.43834 0.32459 0.44146 0.19559 2e-3 0.38535 0.0928 0.42169 0.20187 0.05221 0.15663 0.0026 0.16427-0.23632 0.0364-0.19942-0.10673-0.33345-0.11158-0.39359-0.0143-0.14926 0.24152-0.47566 0.16778-0.55215-0.12473zm0.47833 0.0696c0-0.0306-0.10084-0.13925-0.2241-0.24154-0.18738-0.15551-0.20891-0.1464-0.13141 0.0556 0.07915 0.20626 0.3555 0.35084 0.3555 0.18597zm0.96679 0.0722c-0.04435-0.0718 0.03451-0.22075 0.17525-0.33109 0.23644-0.18535 0.23911-0.17893 0.03517 0.0844-0.20143 0.26015-0.19755 0.27638 0.04443 0.18563 0.15929-0.0597 0.22926-0.0414 0.17525 0.046-0.11168 0.18071-0.32314 0.18806-0.43011 0.015zm-1.7255-0.12703c-0.0879-0.42202-0.03453-0.87065 0.10358-0.87065 0.09056 0 0.16466 0.0883 0.16466 0.19621s-0.06291 0.1962-0.13979 0.1962-0.10516 0.13243-0.06283 0.2943c0.04233 0.16187 0.05005 0.2943 0.01716 0.2943s-0.07014-0.0497-0.08279-0.11036zm1.5436-0.41114c0-0.11784 0.05518-0.21425 0.12263-0.21425 0.06744 0 0.12263 0.0623 0.12263 0.13846 0 0.0762-0.05518 0.17257-0.12263 0.21426-0.06744 0.0417-0.12263-0.0206-0.12263-0.13847zm-0.67906-0.202c0.04273-0.12814 0.24225-0.37363 0.44337-0.54553 0.26992-0.23069 0.31702-0.34263 0.17985-0.4274-0.12083-0.0747-0.14911-0.0554-0.08084 0.055 0.06016 0.0973 0.01751 0.16989-0.09989 0.16989-0.11269 0-0.20489-0.0957-0.20489-0.21255 0-0.11691 0.03863-0.20839 0.08584-0.2033 0.2712 0.0292 0.46116-0.0417 0.39565-0.14767-0.09387-0.15189 0.45164-0.12202 0.60688 0.0332 0.06235 0.0624 0.04714 0.1-0.03379 0.0837-0.33819-0.0682-0.50054 0.0189-0.42109 0.22589 0.04659 0.1214 0.14774 0.22073 0.2248 0.22073 0.07705 0 0.09336-0.0828 0.03624-0.18394-0.07679-0.13603-0.05797-0.14177 0.07225-0.0221 0.13398 0.12315 0.05351 0.28444-0.33648 0.67444-0.53734 0.53733-1.004 0.68766-0.86791 0.27958zm1.1205-0.0794c0-0.11783 0.05626-0.17948 0.12503-0.13698 0.06876 0.0425 0.08693 0.13891 0.04036 0.21425-0.11899 0.19254-0.16539 0.17086-0.16539-0.0773zm111.19-105.16c-6e-3 -0.11371-0.0335-0.32294-0.0607-0.46496-0.0298-0.1559 0.0137-0.21922 0.10984-0.1598 0.10113 0.0625 0.12495 0.0091 0.0653-0.14645-0.10591-0.27601 0.11716-0.3364 0.27847-0.07539 0.0576 0.09321-0.0174 0.25876-0.16659 0.36788-0.14923 0.10912-0.19636 0.1984-0.10474 0.1984 0.0916 0 0.20573-0.06333 0.25357-0.14072 0.0478-0.0774 0.18379-0.10357 0.30214-0.05816 0.11834 0.04541 0.17581 0.14625 0.1277 0.22409-0.0481 0.07784-0.12512 0.10386-0.17115 0.05783-0.046-0.04603-0.20494 0.02605-0.35314 0.16017-0.21556 0.19507-0.27171 0.20249-0.28072 0.03711zm0.37914 0.01398c0.05-0.08093 0.12014-0.14715 0.15583-0.14715 0.0357 0 0.0649 0.06622 0.0649 0.14715 0 0.08093-0.0701 0.14715-0.15583 0.14715-0.0857 0-0.11491-0.06622-0.0649-0.14715zm-83.803-20.017c0-0.07839 0.09933-0.14253 0.22073-0.14253 0.1214 0 0.22073 0.02602 0.22073 0.05783s-0.09933 0.09595-0.22073 0.14253c-0.1214 0.04659-0.22073 0.02056-0.22073-0.05783zm0.22073-0.44852c0.25163-0.11931 0.23512-0.13144-0.11388-0.08367-0.2245 0.03073-0.44994-0.01168-0.50098-0.09427-0.05739-0.09286-0.01844-0.1042 0.1021-0.0297 0.13617 0.08416 0.16998 0.05554 0.11222-0.09499-0.05818-0.15162 0.02014-0.21544 0.26439-0.21544 0.19088 0 0.31602 0.03105 0.27807 0.06899-0.03794 0.03795 0.02787 0.17602 0.14625 0.30683 0.19298 0.21324 0.17398 0.24011-0.18362 0.25981-0.35513 0.01956-0.36659 0.0067-0.10456-0.11758zm110.25-4.3727c-0.25909-0.15611-0.26789-0.1787-0.0419-0.10755 0.28331 0.08921 0.28331 0.08694 0-0.23586-0.17307-0.1972-0.19888-0.27572-0.0653-0.19881 0.18305 0.10543 0.18956 0.0886 0.0381-0.09861-0.10047-0.12415-0.1391-0.2693-0.0858-0.32255 0.0532-0.05325-0.0268-0.09682-0.17785-0.09682-0.20301 0-0.23162-0.04307-0.1096-0.16508 0.22863-0.22863 0.0673-0.57067-0.26912-0.57067-0.1532 0-0.27856-0.07013-0.27856-0.15584 0-0.08571 0.0828-0.10611 0.18394-0.04533 0.12499 0.07509 0.11921 0.03071-0.018-0.13847-0.11109-0.13694-0.15264-0.24897-0.0924-0.24897 0.0603 0 0.0278-0.0986-0.0722-0.21911-0.10001-0.12051-0.2571-0.17402-0.3491-0.1189-0.10416 0.06239-0.0983 0.01503 0.0154-0.12552 0.2111-0.26086 0.10498-0.41937-0.28077-0.41937-0.14837 0-0.26977-0.07013-0.26977-0.15584 0-0.08571 0.0828-0.11074 0.18394-0.05562 0.10117 0.05512-0.0147-0.09825-0.25751-0.34081-0.2428-0.24256-0.50135-0.40595-0.57456-0.36309-0.0732 0.04286-0.0828-0.0034-0.0214-0.10286 0.12786-0.20689-0.45186-0.89475-0.75409-0.89475-0.10729 0-0.17853-0.06079-0.1583-0.1351 0.061-0.22415-1.0922-1.3582-1.3001-1.2784-0.12421 0.04766-0.16315-0.0041-0.10907-0.14507 0.0572-0.14905-0.0629-0.27472-0.37537-0.39264-0.25272-0.09539-0.45949-0.21686-0.45949-0.26993 0-0.05307-0.17261-0.0965-0.3836-0.0965-0.25598 0-0.31951 0.0396-0.19095 0.11905 0.10594 0.06548 0.25182 0.08246 0.32415 0.03775 0.0723-0.04471 0.10862 0.02937 0.0806 0.16463-0.028 0.13526-0.11715 0.22588-0.19808 0.20137-0.0809-0.02451-0.135-0.08104-0.12014-0.12563 0.0149-0.04459-0.11061-0.16702-0.27885-0.27209-0.26731-0.16695-0.29411-0.1604-0.21263 0.05192 0.0621 0.16186 0.0363 0.20778-0.0773 0.13758-0.11168-0.06903-0.13999-0.02593-0.0821 0.12499 0.0605 0.15777 0.0118 0.2191-0.15484 0.19465-0.338-0.04961-0.32933-0.74406 9e-3 -0.74615 0.13848-8.83e-4 0.25236-0.05052 0.25305-0.11036 6e-3 -0.49792-0.0144-0.535-0.24361-0.44707-0.16354 0.06275-0.20988 0.03734-0.13951-0.07651 0.0688-0.11138 0.0262-0.14009-0.12302-0.08284-0.12559 0.0482-0.22836 0.1578-0.22836 0.24357 0 0.08576-0.0425 0.11339-0.0945 0.06139-0.052-0.052-0.01-0.19699 0.0944-0.3222 0.15821-0.19062 0.15149-0.21328-0.0413-0.13929-0.14429 0.05537-0.29133-0.02578-0.39387-0.21736-0.0899-0.16814-0.23556-0.30572-0.32356-0.30572-0.10491 0-0.0969 0.07599 0.0232 0.22073 0.15003 0.18078 0.13997 0.22073-0.0556 0.22073-0.1313 0-0.23089-0.04966-0.22131-0.11036 0.071-0.44945-0.0386-0.65417-0.31194-0.5827-0.16197 0.04236-0.25739 0.01697-0.21204-0.05641 0.12216-0.19766-0.13981-0.16176-0.36859 0.05051-0.1622 0.1505-0.1809 0.13489-0.1029-0.08587 0.0641-0.18152 0.0351-0.24773-0.0887-0.20233-0.10123 0.03711-0.16375 0.15318-0.13896 0.25793 0.0345 0.14579-2e-3 0.15093-0.15801 0.0219-0.15327-0.12721-0.25283-0.1243-0.40587 0.01188-0.17106 0.15222-0.17251 0.14043-9e-3 -0.07546 0.10643-0.14074 0.25223-0.21961 0.324-0.17526 0.0718 0.04435 0.13048 0.01051 0.13048-0.0752s-0.094-0.15584-0.20881-0.15584c-0.11484 0-0.39627-0.09528-0.62539-0.21172-1.1105-0.5644-1.5164-0.68359-1.8039-0.52973-0.20573 0.1101-0.3169 0.10539-0.39232-0.01664-0.0697-0.11282-0.0402-0.13011 0.0874-0.05124 0.12746 0.07877 0.1571 0.06157 0.0876-0.05084-0.0577-0.09344-0.25008-0.16887-0.4274-0.16764-0.26212 0.0018-0.28113 0.02893-0.10168 0.1449 0.18782 0.12138 0.18165 0.14298-0.0414 0.1449-0.14417 0.0012-0.29971-0.09566-0.34563-0.21533-0.0819-0.21346-0.53616-0.23263-0.73766-0.03114-0.0562 0.05622-0.22346-0.0075-0.37166-0.14164-0.14821-0.13412-0.26946-0.17128-0.26946-0.08258 0 0.0887 0.0662 0.2022 0.14715 0.25222 0.0809 0.05002 0.14715 0.15798 0.14715 0.23992 0 0.08194-0.0993 0.04965-0.22072-0.07175-0.1214-0.1214-0.22073-0.29558-0.22073-0.38707 0-0.09149-0.0664-0.12531-0.14755-0.07516-0.0979 0.06051-0.0952 0.19959 8e-3 0.41335 0.13331 0.27589 0.128 0.28825-0.037 0.08606-0.10593-0.12986-0.35791-0.28161-0.55993-0.33723l-0.36731-0.10113 0.34835 0.2045c0.29931 0.1757 0.31377 0.21777 0.10272 0.29876-0.1351 0.05184-0.20947 0.03574-0.16526-0.03579 0.0442-0.07153-0.024-0.17009-0.15154-0.21904-0.35558-0.13645-0.40689-0.10809-0.21746 0.12016 0.14236 0.17153 0.11944 0.19499-0.12748 0.13042-0.16558-0.0433-0.26478-0.13742-0.22045-0.20915 0.0951-0.1538-0.13586-0.17658-0.28438-0.02806-0.0563 0.0563-0.18321 0.11612-0.28203 0.13293-0.0988 0.01682-0.27901 0.05923-0.40041 0.09425s-0.17809 0.03825-0.12599 0.0072c0.0521-0.03108 0.0609-0.18578 0.0196-0.34376-0.0413-0.15799-3e-3 -0.28725 0.0846-0.28725 0.0878 0 0.12158 0.09933 0.075 0.22073-0.10829 0.28219 0.0888 0.28156 0.49299-0.0016 0.20156-0.14118 0.35101-0.16788 0.40955-0.07318 0.0619 0.1001 0.18781 0.09794 0.38309-0.0066 0.16001-0.08564 0.42087-0.11446 0.57968-0.06406 0.15881 0.0504 0.28874 0.03401 0.28874-0.03644s-0.39754-0.13518-0.88343-0.14386c-0.48589-0.0087-0.85047 0.03756-0.81018 0.10275 0.0403 0.06519-0.0223 0.1552-0.13913 0.20003-0.14545 0.05581-0.18514 0.01049-0.12594-0.14378 0.0711-0.18535-2e-3 -0.20826-0.41216-0.12925-0.27424 0.05282-0.78682 0.1025-1.1391 0.1104l-0.64047 0.01438 0.69234 0.52471-0.32726-0.02386c-0.17998-0.01313-0.36046-0.1104-0.40105-0.21617-0.0419-0.10923-0.25909-0.1782-0.50271-0.15963-0.28238 0.02152-0.40392 0.09782-0.35575 0.22334 0.0926 0.24134 0.36419 0.24424 0.63054 0.0067 0.17549-0.15648 0.17719-0.1455 0.0114 0.07358-0.25498 0.33697-0.53544 0.32626-0.78495-0.02997-0.19961-0.28499-0.20552-0.28495-0.6823 5e-3 -0.26451 0.16086-0.43862 0.22401-0.3869 0.14033 0.11577-0.18732 6e-3 -0.19378-0.33-0.01934-0.14054 0.07304-0.5535 0.217-0.9177 0.31989-0.3642 0.1029-0.72509 0.24178-0.80197 0.30864-0.0769 0.06686-0.25899 0.12156-0.40467 0.12156s-0.26487 0.07013-0.26487 0.15584c0 0.08571-0.0763 0.1087-0.16948 0.05109-0.0934-0.05771-0.26141 0.02099-0.37421 0.17525-0.11261 0.154-0.25155 0.28-0.30877 0.28-0.0572 0-0.0837 0.06087-0.0589 0.13527 0.0248 0.0744-0.058 0.04974-0.18393-0.05481-0.19196-0.15931-0.22903-0.14969-0.22903 0.05946 0 0.16101 0.0914 0.22956 0.25751 0.19322 0.14163-0.03097 0.23932-0.14008 0.21708-0.24245-0.0222-0.10238 0.0232-0.1468 0.101-0.09873 0.2315 0.14307 0.11846 0.66376-0.20269 0.93367-0.29789 0.25037-0.29798 0.24998-0.019-0.07951l0.28033-0.33109h-0.45965c-0.33767 0-0.43826-0.05572-0.37906-0.20999 0.059-0.15368-2e-3 -0.18838-0.22764-0.12939-0.16952 0.04433-0.34373 0.13807-0.38714 0.2083-0.0434 0.07024 0.0128 0.0925 0.12492 0.04948 0.12187-0.04677 0.20384 0.01741 0.20384 0.15958 0 0.1526-0.0908 0.21406-0.25349 0.17152-0.13941-0.03646-0.34359-0.0019-0.45371 0.07671-0.15406 0.11002-0.14194 0.12431 0.0526 0.06197 0.13904-0.04457 0.28345-0.03145 0.3209 0.02915 0.0374 0.0606-0.0585 0.11971-0.21312 0.13136-0.15467 0.01165-0.32152-0.04404-0.37078-0.12375-0.0569-0.09201-0.1648-0.08251-0.29558 0.02604-0.11331 0.09403-0.16871 0.23133-0.12312 0.30509 0.0456 0.07377 0.0283 0.11844-0.0384 0.09927-0.0667-0.01917-0.2634 0.05703-0.43708 0.16934-0.26762 0.17305-0.28498 0.23498-0.11384 0.40612 0.1519 0.1519 0.2749 0.16289 0.4964 0.04434 0.23323-0.12482 0.27828-0.11541 0.21664 0.04522-0.10199 0.26579-0.91968 0.2312-1.0911-0.04616-0.10417-0.16856-0.16457-0.12754-0.28724 0.1951-0.0955 0.25115-0.22087 0.36802-0.32548 0.30337-0.10553-0.06522-0.13028-0.04064-0.0652 0.06472 0.0577 0.09342 0.031 0.16987-0.0595 0.16987s-0.1236 0.06622-0.0736 0.14715c0.05 0.08093-0.0162 0.14715-0.14715 0.14715-0.13139 0-0.19456 0.07044-0.14095 0.15718 0.0534 0.08645 0.19321 0.12032 0.31063 0.07526 0.12381-0.04751 0.17417-0.01831 0.11988 0.06953-0.0515 0.0833-0.21123 0.11412-0.35501 0.06849-0.14625-0.04642-0.41419 0.04075-0.60823 0.19787-0.29975 0.24272-0.31966 0.31358-0.1467 0.52199 0.11008 0.13263 0.24037 0.20092 0.28953 0.15175 0.13278-0.13278 0.11718-0.42012-0.0284-0.52263-0.0702-0.04944-0.0206-0.13094 0.1101-0.18111 0.1913-0.07341 0.2248-0.01276 0.17158 0.31061-0.0364 0.22101-0.0794 0.43494-0.0957 0.47541-0.0162 0.04047-0.017 0.13979-2e-3 0.22073 0.0154 0.08093-0.0532 0.06748-0.15227-0.0299-0.12525-0.12306-0.26307-0.1327-0.45196-0.03161-0.1829 0.09788-0.27176 0.09563-0.27176-0.0069 0-0.08378-0.0621-0.15233-0.1379-0.15233-0.0759 0-0.10029 0.23176-0.0543 0.51503 0.0841 0.51839-0.0517 0.65372-0.35332 0.35208-0.11916-0.11916-0.21262-0.06974-0.34782 0.18394-0.15918 0.29867-0.15527 0.32249 0.0281 0.17137 0.14988-0.12352 0.27689-0.13031 0.42876-0.02291 0.17875 0.12642 0.17239 0.13871-0.037 0.07159-0.13904-0.04457-0.29261-0.01663-0.34126 0.06209-0.0486 0.07872-0.1426 0.10966-0.20877 0.06877-0.0662-0.04089-0.20214 0.02424-0.30215 0.14475-0.10001 0.12051-0.12797 0.21911-0.0621 0.21911 0.0658 0-9e-3 0.09722-0.16592 0.21605-0.15711 0.11882-0.22787 0.21815-0.15726 0.22073 0.0706 0.0026 0.0459 0.10401-0.0548 0.22541-0.10075 0.1214-0.12541 0.22174-0.0548 0.22298 0.0706 0.0012 0.0385 0.05918-0.0713 0.12876-0.13918 0.08819-0.15032 0.15699-0.0368 0.22716 0.0896 0.05536 0.16286 0.03053 0.16286-0.05518s0.0552-0.15584 0.12263-0.15584c0.0674 0 0.12262 0.09642 0.12262 0.21425 0 0.11784-0.0552 0.18015-0.12262 0.13847-0.0675-0.04168-0.12263-0.0057-0.12263 0.08005 0 0.08571 0.11588 0.16106 0.25752 0.16745 0.15535 7e-3 0.18417 0.04118 0.0727 0.08614-0.10167 0.04099-0.15424 0.12405-0.11683 0.18458 0.0374 0.06053-0.0312 0.11006-0.15257 0.11006-0.12132 0-0.18856-0.08345-0.14942-0.18544 0.0391-0.10199-0.0408-0.27087-0.17761-0.37529-0.13682-0.10442-0.20013-0.13236-0.14069-0.0621 0.0594 0.07026-7e-3 0.21723-0.14715 0.3266-0.24176 0.18835-0.24164 0.19412 2e-3 0.10917 0.14163-0.04932 0.25751-0.03241 0.25751 0.03758s-0.47969 0.13384-1.066 0.14188c-0.81242 0.01114-1.1128-0.04163-1.2628-0.22188-0.17675-0.21241-0.18774-0.20815-0.10785 0.04182 0.0753 0.23557 0.0545 0.24976-0.13514 0.09235-0.25206-0.2092-0.30179-0.5914-0.0769-0.5914 0.0809 0 0.14716-0.07013 0.14716-0.15584 0-0.08571-0.0828-0.10744-0.18394-0.04828-0.10117 0.05916-0.0534-0.04116 0.10623-0.22293 0.17825-0.20301 0.21417-0.31209 0.0931-0.28281-0.10837 0.02622-0.21654-0.06821-0.24036-0.20984-0.0401-0.23864 0.10558-0.32873 0.43219-0.26717 0.17544 0.03307 0.38355-0.30921 0.28498-0.4687-0.0423-0.06849-0.18311-0.03855-0.31284 0.06655-0.19725 0.15979-0.21525 0.15687-0.10992-0.01786 0.0928-0.15393 0.0654-0.18569-0.10419-0.12063-0.18122 0.06954-0.23015-0.01908-0.23015-0.41686 0-0.27785 0.0534-0.53819 0.11872-0.57854 0.0653-0.04035 0.0869 0.07571 0.0479 0.25792-0.0658 0.30815-0.056 0.31319 0.1415 0.07215 0.17595-0.2148 0.24055-0.22507 0.37752-0.06004 0.0909 0.10951 0.12168 0.24268 0.0684 0.29594-0.0532 0.05325-9e-3 0.09682 0.0994 0.09682 0.10791 0 0.16154 0.03467 0.11916 0.07704-0.13733 0.13734-0.56193-0.10301-0.46346-0.26235 0.0572-0.09261 0.0243-0.1105-0.0822-0.04467-0.26075 0.16115-0.12231 0.41623 0.25735 0.47417 0.25559 0.03901 0.37589-0.05786 0.53152-0.42798 0.11064-0.26312 0.14885-0.54461 0.0849-0.62554-0.13569-0.17178-0.10786-0.75637 0.0432-0.90743 0.0573-0.05725 0.22761-0.1132 0.37858-0.12432 0.27483-0.02025 0.32941 0.26016 0.0926 0.47568-0.0693 0.06304-0.0826 0.03879-0.0296-0.0539 0.11641-0.20366-0.29721-0.39321-0.42099-0.19293-0.0478 0.0774-4e-3 0.14073 0.0983 0.14073 0.1441 0 0.14603 0.03924 9e-3 0.17658-0.34096 0.34096-0.17209 0.42887 0.24851 0.12937 0.23381-0.16648 0.46879-0.47678 0.5222-0.68956 0.0534-0.21278 0.13265-0.35132 0.17611-0.30786 0.1367 0.1367 0.80149-0.53672 0.72546-0.73486-0.0399-0.10384-0.0252-0.18175 0.0326-0.17314 0.32178 0.04796 0.49497-0.04384 0.42529-0.22542-0.0471-0.12271 0.0362-0.23638 0.20559-0.28069 0.29283-0.07657 0.25456-0.54315-0.0445-0.54315-0.0944 0-0.0895 0.07221 0.0134 0.1962 0.12223 0.14728 0.11252 0.1962-0.0389 0.1962-0.33255 0-0.15945-0.46461 0.17977-0.48249 0.17231-0.0091 0.278 0.04058 0.23487 0.11036-0.18992 0.3073 0.19988 0.08507 0.60162-0.343 0.24253-0.25843 0.33834-0.43114 0.21289-0.38379-0.16254 0.06135-0.22809-6e-3 -0.22809-0.23435 0-0.26294 0.0852-0.32043 0.4748-0.32043 0.26114 0 0.44197 0.05311 0.40186 0.11802-0.0401 0.06491-0.11803 0.09211-0.17314 0.06046-0.0551-0.03166-0.23263-0.0043-0.3945 0.06083-0.26948 0.10841-0.26395 0.11927 0.0657 0.12874 0.38741 0.01112 1.4794-0.66664 1.4794-0.91823 0-0.08404-0.15135-0.0106-0.33634 0.16319-0.31763 0.29839-0.33635 0.30042-0.33635 0.03645 0-0.15374 0.0549-0.24558 0.12206-0.20409 0.0671 0.04149 0.20194 0.01202 0.29956-0.06548 0.0976-0.07751 0.29369-0.12213 0.43571-0.09916 0.14202 0.02297 0.22088-0.01865 0.17526-0.09247-0.0456-0.07383 0.0432-0.13423 0.19741-0.13423 0.41871 0 1.2085-0.43412 1.2085-0.66427 0-0.1107 0.0655-0.24172 0.14546-0.29117 0.084-0.0519 0.11316 0.02217 0.069 0.17525-0.0431 0.14962-5.9e-4 0.12089 0.0977-0.06593 0.0958-0.1821 0.23419-0.33109 0.30753-0.33109 0.0734 0 0.1012-0.05203 0.0619-0.11562-0.0393-0.06359 0.0561-0.11562 0.21204-0.11562 0.38472 0 0.35884 0.17721-0.0412 0.28182-0.17856 0.04669-0.28863 0.12094-0.24459 0.16498 0.11895 0.11894 1.0107-0.22144 1.0107-0.38578 0-0.07779 0.0524-0.10909 0.11632-0.06955 0.064 0.03954 0.32974-0.03147 0.59058-0.1578 0.37387-0.18107 0.43916-0.27198 0.30846-0.42946-0.0912-0.10988-0.21348-0.1703-0.27175-0.13429-0.0583 0.03601-0.10595-0.02988-0.10595-0.14644 0-0.15631 0.0498-0.1706 0.18975-0.05443 0.20325 0.16868 0.55061 0.04371 0.42836-0.1541-0.0404-0.06532 0.14065-0.09165 0.40226-0.05851 0.66427 0.08414 0.72753 0.08393 1.105-0.0036 0.19523-0.04528 0.29844-0.01851 0.24735 0.06416-0.0482 0.07802-0.13593 0.11204-0.1949 0.07559-0.059-0.03645-0.20339-0.0054-0.32092 0.06892-0.34749 0.21982 0.32871 0.17375 0.90875-0.06192 0.27292-0.11089 0.57292-0.17361 0.66667-0.13938 0.25669 0.09371 0.41252-0.26136 0.17948-0.40896-0.16781-0.10629-0.16472-0.12922 0.0179-0.13295 0.1962-4e-3 0.1962-0.02035 0-0.14715-0.16735-0.10815-0.17296-0.14319-0.0232-0.1449 0.10863-0.0012 0.36588 0.13018 0.57166 0.29205 0.46089 0.36253 0.88151 0.37474 1.2679 0.03679 0.16192-0.14163 0.24961-0.18059 0.19488-0.08657-0.0727 0.12489 0.23381 0.16453 1.1378 0.14715 0.68053-0.01308 1.2067-0.07345 1.1692-0.13415-0.0375-0.0607 0.0627-0.11036 0.22258-0.11036 0.1599 0 0.3172-0.07943 0.34956-0.1765 0.0362-0.10849 0.0969-0.07719 0.15773 0.08122 0.0591 0.1541 0.0404 0.22157-0.0466 0.16781-0.08-0.04945-0.14547-0.02058-0.14547 0.06415s0.21521 0.13633 0.47824 0.11467c0.38204-0.03146 0.47908-0.10486 0.48243-0.3649 2e-3 -0.17903 0.0519-0.32606 0.11036-0.32671 0.42897-0.0048 0.46632 0.0085 0.31239 0.11142-0.18765 0.12547-0.21919 0.64853-0.0321 0.53292 0.0688-0.0425 0.0874-0.13816 0.0414-0.21257-0.046-0.07441 0.0199-0.09557 0.14642-0.04703 0.16704 0.0641 0.20511 0.02334 0.13905-0.14884-0.0516-0.1345-0.0167-0.23711 0.0806-0.23711 0.0944 0 0.1336 0.06145 0.0872 0.13656-0.0464 0.07511 0.0456 0.17782 0.20454 0.22826 0.17522 0.05561 0.25672 0.17561 0.20712 0.3049-0.054 0.14082 0.0109 0.20925 0.19144 0.20158 0.15283-0.0065 0.19271-0.04415 0.0905-0.08545-0.13052-0.05272-0.14093-0.15202-0.0364-0.34733 0.0875-0.16352 0.0921-0.30705 0.0113-0.35692-0.0742-0.04588-0.16162-0.0035-0.19418 0.09418-0.0416 0.12478-0.0889 0.12964-0.15888 0.01634-0.19086-0.30882 0.31434-0.31724 0.58378-0.0097 0.14924 0.17032 0.18857 0.26128 0.0874 0.20212-0.10117-0.05916-0.18394-0.03743-0.18394 0.04828s0.0641 0.15584 0.14253 0.15584c0.0784 0 0.10832 0.08916 0.0665 0.19813-0.076 0.19808-0.0199 0.21081 1.2625 0.2865 0.28327 0.01672 0.583 0.11677 0.66607 0.22235 0.14553 0.18497 0.65829 0.10489 0.65829-0.1028 0-0.05505 0.14899-0.10744 0.33109-0.11641 0.1821-9e-3 0.24791 0.0157 0.14624 0.05483-0.10168 0.03913-0.1479 0.13095-0.10273 0.20404 0.0452 0.07309-0.014 0.09603-0.13134 0.05097-0.11741-0.04506-0.25861-0.0089-0.31373 0.08028-0.14422 0.23336 0.67289 0.0654 0.84497-0.17368 0.10001-0.13893 0.11562-0.12458 0.0588 0.05404-0.0425 0.13377 1e-3 0.33972 0.0965 0.45768 0.22333 0.27555 0.68886 0.43928 0.68886 0.24229 0-0.08317 0.0673-0.10962 0.14955-0.05879 0.0823 0.05083 0.10737 0.16068 0.0558 0.24409-0.0571 0.09246 0.0281 0.08646 0.21833-0.01535 0.255-0.13647 0.31206-0.1257 0.31206 0.0589 0 0.24301 0.0178 0.25133 0.61848 0.28841 0.31389 0.01938 0.36379-0.01636 0.23669-0.1695-0.12478-0.15036-0.10665-0.17318 0.0805-0.10136 0.31225 0.11982 0.3066 0.29904-0.016 0.50645-0.22142 0.14236-0.22313 0.155-0.0122 0.09018 0.14252-0.04379 0.28331 0.02354 0.33592 0.16065 0.069 0.1799 0.13144 0.19519 0.26234 0.06428 0.2343-0.2343 0.35883-0.21575 0.4684 0.06978 0.0775 0.20196 0.056 0.21106-0.13141 0.05556-0.12325-0.10229-0.22355-0.12821-0.22289-0.0576 0 0.07061 0.26632 0.27229 0.59032 0.44818 0.32401 0.17589 0.546 0.25007 0.49334 0.16485-0.0553-0.08943-9e-3 -0.12354 0.10865-0.08068 0.11244 0.04085 0.18853 0.14679 0.16911 0.23542-0.0194 0.08863 0.0964 0.23168 0.25751 0.31788 0.16106 0.0862 0.29283 0.10655 0.29283 0.04523s0.10308 0.03568 0.22907 0.21555c0.23764 0.33926 0.6085 0.4676 0.41356 0.14311-0.076-0.12651-0.0333-0.1213 0.13683 0.01667 0.13606 0.11034 0.21108 0.25933 0.16673 0.33109-0.0444 0.07176 0.0181 0.13048 0.13885 0.13048 0.12072 0 0.25803-0.1214 0.30512-0.26978 0.0471-0.14838 0.18108-0.26978 0.29774-0.26978s0.17803 0.05518 0.13634 0.12263c-0.11565 0.18711 0.15362 0.14603 0.3536-0.05396 0.0971-0.09712 0.18232-0.14678 0.18936-0.11036 0.0914 0.47411 0.0905 1.0426-1e-3 0.89391-0.0909-0.1471-0.13886-0.13466-0.21159 0.05491-0.0517 0.1348-0.0941 0.26726-0.0941 0.29434s0.26487 0.02796 0.5886 2e-3c0.32374-0.02601 0.58861 0.0171 0.58861 0.09579 0 0.07892-0.14022 0.09857-0.31273 0.04382-0.23819-0.0756-0.28369-0.05227-0.19091 0.09786 0.067 0.10842 0.13062 0.31651 0.14138 0.46244 0.0107 0.14593 0.10212 0.34575 0.20307 0.44404 0.1459 0.14208 0.16858 0.08067 0.11061-0.29953-0.0401-0.26303-0.029-0.47723 0.0246-0.47599 0.22142 0.0051 0.39413 0.24043 0.43038 0.58635 0.0622 0.59424 0.15467 0.73576 0.48055 0.73576 0.16919 0 0.26848 0.06333 0.22064 0.14072-0.0478 0.0774-0.20073 0.10164-0.33978 0.05386-0.13904-0.04777-0.0247 0.08756 0.25403 0.30073 0.51032 0.39026 0.81432 0.48104 0.92831 0.27723 0.0339-0.0607 0.0434-0.03243 0.021 0.06282-0.0618 0.26289 0.3307 0.54595 0.46213 0.33328 0.0767-0.12413 0.13921-0.11613 0.23157 0.02964 0.21053 0.33226 0.15057 0.40996-0.2915 0.37766-0.24441-0.01785-0.39568-0.10101-0.35886-0.19726 0.035-0.09152-0.14134-0.23786-0.39186-0.32519-0.26588-0.09268-0.41916-0.09999-0.36821-0.01754 0.048 0.07769 0.19376 0.14125 0.32387 0.14125s0.19181 0.04475 0.13711 0.09945c-0.11975 0.11976 0.47703 0.7844 0.70145 0.78121 0.0871-0.0012 0.0598-0.06453-0.0606-0.14064-0.17547-0.11095-0.15846-0.13383 0.0858-0.11543 0.16759 0.01262 0.30472 0.10611 0.30472 0.20774s-0.0552 0.15068-0.12264 0.109c-0.0674-0.04168-0.12262 0.01424-0.12262 0.12429 0 0.27754 0.34395 0.99196 0.47824 0.99336 0.0607 5.89e-4 0.11037 0.0721 0.11037 0.15881s0.10358 0.26125 0.23018 0.38785c0.18642 0.18641 0.26338 0.1943 0.40467 0.04148 0.13294-0.14378 0.1331-0.16548 0-0.09114-0.29295 0.16448-0.33258-0.11719-0.0662-0.47036l0.25205-0.33416-0.0273 0.48543c-0.015 0.26699-0.0343 0.57211-0.0428 0.67805-9e-3 0.11358-0.0911 0.14728-0.19953 0.08212-0.12332-0.07408-0.11689-0.02785 0.0195 0.14027 0.32095 0.39561 0.38281 1.3961 0.10527 1.7027-0.12968 0.1433-0.20766 0.28869-0.17325 0.32308 0.16363 0.16364-1.4334 0.04312-1.7204-0.12984zm-34.982-2.5966c0-0.03569-0.0662-0.10582-0.14715-0.15584-0.0809-0.05002-0.14715-0.02082-0.14715 0.06489s0.0662 0.15584 0.14715 0.15584c0.0809 0 0.14715-0.0292 0.14715-0.06489zm3.9731-1.5625c0-0.16664-0.0633-0.26385-0.14072-0.21601-0.0774 0.04783-0.10342 0.18418-0.0578 0.30299 0.11672 0.30418 0.19855 0.26833 0.19855-0.08697zm0.66218-0.72707c-0.05-0.08093-0.15325-0.14715-0.22941-0.14715-0.0761 0-0.13846 0.06622-0.13846 0.14715 0 0.08093 0.10323 0.14715 0.22941 0.14715 0.12617 0 0.18848-0.06622 0.13846-0.14715zm28.718-1.9498c-0.0408-0.10117-0.0742-0.01839-0.0742 0.18394 0 0.20233 0.0334 0.2851 0.0742 0.18394 0.0408-0.10117 0.0408-0.26671 0-0.36788zm-5.2478-0.55182c0-0.08093-0.0701-0.14715-0.15584-0.14715-0.0857 0-0.11491 0.06622-0.0649 0.14715 0.05 0.08093 0.12015 0.14715 0.15583 0.14715 0.0357 0 0.0649-0.06622 0.0649-0.14715zm4.5617-0.05556c0-0.03056-0.0934-0.1331-0.20763-0.22787-0.15899-0.13195-0.23325-0.13084-0.31704 0.0047-0.0694 0.11223-0.0472 0.1386 0.0605 0.07204 0.0934-0.05775 0.16988-0.03487 0.16988 0.05084s0.0662 0.15584 0.14716 0.15584c0.0809 0 0.14715-0.025 0.14715-0.05556zm-3.8259-0.31938c0-0.17384-0.27822-0.17351-0.34496 4.41e-4 -0.0544 0.14167-0.0104 0.18514 0.13173 0.13056 0.11728-0.045 0.21323-0.10394 0.21323-0.13097zm2.5752-0.50797c-0.05-0.08093 0.0162-0.14715 0.14715-0.14715s0.19717 0.06622 0.14715 0.14715c-0.05 0.08093-0.0279 0.14715 0.0491 0.14715 0.13392 0 0.32218-0.32287 0.39947-0.68512 0.0202-0.0947-0.18523-0.03939-0.46345 0.12477-0.27486 0.16218-0.46283 0.3546-0.41772 0.42761 0.0451 0.07301 0.11515 0.13275 0.15562 0.13275 0.0405 0 0.0326-0.06622-0.0174-0.14715zm-19.889-3.8737c0.0532 0.05325 0.0968 0.01957 0.0968-0.07485s-0.0497-0.17674-0.11036-0.18294c-0.0607-0.0062-0.22335-0.03302-0.36145-0.05961s-0.33623 0.05424-0.4403 0.17964c-0.16453 0.19825-0.14377 0.21357 0.15915 0.11742 0.27182-0.08627 0.32194-0.06669 0.22811 0.08914-0.0978 0.16242-0.0781 0.16561 0.10548 0.01704 0.12415-0.10046 0.26929-0.13909 0.32255-0.08584zm2.7118-0.71557c-0.032-0.09611-0.13692-0.20097-0.23309-0.23302-0.10753-0.03584-0.14041 0.03143-0.0854 0.17474 0.10264 0.26748 0.4068 0.32313 0.31851 0.05828zm6.3612-0.26671c0-0.08093-0.0623-0.14715-0.13847-0.14715-0.0761 0-0.17939 0.06622-0.22941 0.14715-0.05 0.08093 0.0122 0.14715 0.13847 0.14715 0.12617 0 0.22941-0.06622 0.22941-0.14715zm13.108 11.974c-0.0167-0.23831 0.38864-0.5391 0.57294-0.42518 0.21485 0.13278 0.0207 0.40826-0.22205 0.3151-0.10799-0.04144-0.22849 0.0037-0.2678 0.10033-0.0485 0.11912-0.0752 0.12226-0.0831 0.0098zm-0.1092-0.81454c0.0141-0.27482 0.11485-0.49171 0.24474-0.52702 0.17865-0.04857 0.18267-0.03333 0.021 0.07997-0.12071 0.08461-0.16198 0.25876-0.10437 0.44027 0.0524 0.16516 0.0321 0.33933-0.0451 0.38704-0.0794 0.04908-0.12995-0.11605-0.11635-0.38027zm2.7486-0.88703c-1e-3 -0.13686 0.064-0.28976 0.1449-0.33978 0.18624-0.1151 0.18624 0.0797 0 0.36788-0.12293 0.19022-0.14296 0.18634-0.1449-0.0281zm-3.738-0.58743c0.0425-0.06876 0.13892-0.08693 0.21426-0.04037 0.19253 0.11899 0.17085 0.16539-0.0773 0.16539-0.11784 0-0.17948-0.05626-0.13699-0.12503zm-0.18832-0.33448c0-0.11784 0.0563-0.17948 0.12503-0.13698 0.0688 0.0425 0.0869 0.13891 0.0404 0.21425-0.11899 0.19253-0.1654 0.17085-0.1654-0.07727zm-32.099-0.25663c-0.25055-0.25055-0.21965-0.34896 0.10957-0.34896 0.19569 0 0.24261 0.05246 0.14843 0.16594-0.0757 0.09127-0.0941 0.20952-0.0409 0.26277 0.0532 0.05325 0.0659 0.09682 0.0282 0.09682-0.0378 0-0.14813-0.07946-0.24525-0.17658zm31.24-0.55918c0.05-0.08093 0.12015-0.14715 0.15584-0.14715 0.0357 0 0.0649 0.06622 0.0649 0.14715 0 0.08093-0.0701 0.14715-0.15583 0.14715-0.0857 0-0.11491-0.06622-0.0649-0.14715zm0.37809-0.06127c-0.0984-0.11854-0.26483-0.18256-0.36986-0.14225-0.10504 0.04031-0.22659-0.01951-0.27011-0.13292-0.0579-0.15087 0.0148-0.18826 0.27083-0.13931 0.35734 0.06831 0.75434 0.4237 0.6216 0.55645-0.0405 0.04047-0.15407-0.02341-0.25246-0.14196zm3.3743-0.56487c0-0.04047 0.0934-0.15112 0.20763-0.24589 0.15997-0.13276 0.23294-0.12845 0.31789 0.01877 0.0606 0.1051 0.0561 0.142-0.0101 0.082-0.0662-0.06-0.20928-0.03534-0.31789 0.0548s-0.19748 0.13078-0.19748 0.09032zm-29.194-0.52654c-0.0417-0.06744 0.0177-0.12263 0.13199-0.12263 0.11428 0 0.17368 0.05518 0.13199 0.12263-0.0417 0.06744-0.10108 0.12263-0.13199 0.12263-0.0309 0-0.0903-0.05518-0.13199-0.12263zm28.189-0.0063c-0.1552-0.09838-0.14236-0.14512 0.0614-0.2233 0.19639-0.07536 0.21681-0.13973 0.0859-0.27063-0.25472-0.25472-0.20813-0.55467 0.0858-0.5521 0.22006 0.0019 0.22542 0.02299 0.0368 0.1449-0.1214 0.07845-0.15205 0.14366-0.0681 0.1449 0.0839 0.0012 0.1626 0.13469 0.17479 0.29656 0.0122 0.16187-0.0438 0.2943-0.12452 0.2943-0.0807 0-0.10576 0.06622-0.0557 0.14715 0.11005 0.17807 0.0628 0.18246-0.19627 0.01823zm-4.156-0.02558c-6e-3 -0.03642-0.0328-0.17752-0.0591-0.31356-0.0733-0.37919 0.30421-0.43235 0.60831-0.08566 0.22786 0.25976 0.23296 0.29539 0.0318 0.2223-0.13177-0.04787-0.31387-0.01274-0.40467 0.07805-0.0908 0.0908-0.17015 0.13528-0.17634 0.09886zm-23.895-0.57108c-0.0466-0.07534-0.0284-0.17176 0.0404-0.21425 0.0688-0.0425 0.12503 0.01914 0.12503 0.13698 0 0.24812-0.0464 0.2698-0.1654 0.07727zm-4.4105-0.14059c-0.0443-0.07173 0.0549-0.16585 0.22045-0.20915 0.24691-0.06457 0.26984-0.04111 0.12748 0.13042-0.20321 0.24485-0.2401 0.2532-0.34793 0.07873zm27.524-0.48511c0.0425-0.06876 0.13891-0.08693 0.21425-0.04037 0.19253 0.11899 0.17086 0.16539-0.0773 0.16539-0.11784 0-0.17948-0.05626-0.13698-0.12503zm-20.308-1.2729c-0.0417-0.06745 0.0177-0.12263 0.132-0.12263 0.11427 0 0.17367 0.05518 0.13199 0.12263-0.0417 0.06744-0.10108 0.12263-0.13199 0.12263-0.0309 0-0.0903-0.05518-0.132-0.12263zm17.496-0.02453c-0.05-0.08093-0.0208-0.14715 0.0649-0.14715s0.15584 0.06622 0.15584 0.14715c0 0.08093-0.0292 0.14715-0.0649 0.14715s-0.10581-0.06622-0.15583-0.14715zm-35.292-0.98101c-0.054-0.05395-0.0961-0.20294-0.0936-0.33109 4e-3 -0.19134 0.0324-0.18498 0.16063 0.03556 0.15845 0.27248 0.11252 0.47506-0.067 0.29553zm0.41573-0.02332c0.0397-0.03973-5e-3 -0.16483-0.0986-0.27801-0.24196-0.29154 0.1781-0.19171 0.44233 0.10513 0.17255 0.19383 0.18684 0.18992 0.11732-0.03207-0.0435-0.13904-0.025-0.2863 0.0413-0.32724 0.0662-0.04094 0.11302 0.06736 0.10394 0.24067-0.0113 0.21578-0.12087 0.32278-0.34753 0.33943-0.18206 0.01338-0.29852-0.0082-0.25879-0.04791zm18.91 0.03455c0-0.01333 0.11204-0.11512 0.24898-0.2262 0.13693-0.11108 0.20274-0.12484 0.14623-0.03058-0.0565 0.09425-0.0195 0.20339 0.0821 0.24252 0.10167 0.03913 0.0359 0.0638-0.14624 0.05483-0.1821-9e-3 -0.33109-0.02723-0.33109-0.04056zm0.7028-0.08106c-0.086-0.22404 0.10508-0.69752 0.2274-0.56356 0.0348 0.03812 0.10897 0.23486 0.1648 0.43719 0.0691 0.25032 0.0571 0.30378-0.0375 0.16729-0.11301-0.16312-0.151-0.16451-0.20336-0.0074-0.0487 0.14596-0.0856 0.13778-0.15135-0.03348zm11.758-0.03695c-0.0433-0.11269-0.0554-0.3279-0.027-0.47824 0.0284-0.15034 0.0567-0.32302 0.0629-0.38372 6e-3 -0.0607 0.0754-0.11036 0.15378-0.11036 0.0784 0 0.10186 0.10601 0.0521 0.23558-0.12077 0.31473 0.25563 0.54124 0.45904 0.27625 0.12943-0.1686 0.21472-0.17034 0.5066-0.01037 0.22643 0.12411 0.29171 0.22899 0.18393 0.29559-0.0919 0.05678-0.16703 0.04019-0.16703-0.03686s-0.0993-0.17821-0.22072-0.22479c-0.13684-0.05251-0.22073 7.35e-4 -0.22073 0.14009 0 0.12364 0.0552 0.19069 0.12262 0.14901 0.0675-0.04168 0.12264 0.01958 0.12264 0.13613 0 0.14378-0.0548 0.16648-0.17029 0.0706-0.11118-0.09228-0.23397-0.0787-0.35385 0.03912-0.14523 0.14272-0.17371 0.13814-0.13629-0.02189 0.026-0.11128-0.0355-0.2327-0.13675-0.26981-0.11793-0.04324-0.15192 0.01623-0.0946 0.16554 0.0492 0.12816 0.0563 0.23302 0.0159 0.23302-0.0405 0-0.10897-0.0922-0.1522-0.20489zm-11.142-0.16922c-0.14267-0.17191-0.14705-0.26828-0.018-0.39731 0.0937-0.09369 0.17586-0.14055 0.18261-0.10413 0.0433 0.23395 0.0805 0.7284 0.0547 0.7284-0.017 0-0.11573-0.10213-0.21933-0.22696zm17.574-0.18848c0.0508-0.08219-0.0124-0.2541-0.14024-0.38202-0.12793-0.12792-0.16972-0.23259-0.0929-0.23259 0.0768 0 0.24321 0.14899 0.36972 0.33109l0.22999 0.33109-0.0572-0.33502c-0.0315-0.18426 0-0.29988 0.0692-0.25693 0.21469 0.13269 0.0657 0.58912-0.20986 0.64288-0.14859 0.02899-0.22125-0.01343-0.16867-0.0985zm-38.242-0.31745c-0.0542-0.08774 0.0108-0.10772 0.16188-0.04974 0.14606 0.05605 0.21567 0.03728 0.16511-0.04453-0.0484-0.07837 0.10172-0.13891 0.33679-0.13578 0.23331 0.0031 0.37193 0.05791 0.30804 0.1218-0.19023 0.19023-0.87407 0.2664-0.97182 0.10825zm14.216-0.05575c-0.11359-0.13687-0.061-0.18255 0.20997-0.18255 0.39733 0 0.48142 0.15792 0.1515 0.28453-0.11548 0.04431-0.27814-0.0016-0.36147-0.10198zm23.045-0.37906c-0.041-0.15664 7e-3 -0.31614 0.10703-0.35444 0.12294-0.04718 0.15963 0.04468 0.11373 0.2848-0.082 0.42889-0.12339 0.44195-0.22076 0.06964zm-12.36-0.14422c-0.0821-0.31414 0.0968-0.42391 0.26011-0.15959 0.05 0.08093 0.20292 0.14614 0.33977 0.1449 0.19245-0.0018 0.20436-0.03044 0.0526-0.12667-0.16001-0.10143-0.15589-0.13992 0.0223-0.20828 0.14609-0.05606 0.20651-0.0019 0.18225 0.16346-0.02 0.13603-0.16243 0.24733-0.31658 0.24733s-0.32075 0.05526-0.37022 0.1228c-0.0495 0.06754-0.12604-0.01523-0.17016-0.18394zm4.4423 0.0751c0.2105-0.25362 0.63766-0.21025 0.71378 0.07247 0.0437 0.1625 0.0219 0.15969-0.10013-0.01286-0.13875-0.1962-0.1566-0.1962-0.16061 0-4e-3 0.1962-0.0204 0.1962-0.14715 0-0.0951-0.14715-0.1434-0.15941-0.1449-0.03679-1e-3 0.10117-0.0766 0.18394-0.16741 0.18394-0.11908 0-0.11729-0.0577 6e-3 -0.20676zm7.1273-0.57901c0.0254-0.411 0.29744-0.44226 0.63195-0.07261 0.13429 0.14838 0.17096 0.26978 0.0815 0.26978-0.0894 0-0.23014-0.11588-0.31264-0.25752-0.13758-0.23623-0.15036-0.23695-0.15446-0.0087-2e-3 0.13686-0.0637 0.28541-0.136 0.33012-0.0723 0.04471-0.122-0.07278-0.11036-0.26108zm-19.885-0.1823c0.13971-0.14586 0.28569-0.23353 0.3244-0.19481 0.0387 0.03871-0.0756 0.15805-0.25401 0.2652-0.30995 0.18613-0.31308 0.183-0.0704-0.07039zm20.712 0.0082c-0.1555-0.18738-0.1464-0.20891 0.0556-0.13141 0.13285 0.05098 0.24153 0.15182 0.24153 0.2241 0 0.18923-0.0852 0.16266-0.2971-0.09269zm-1.9686-0.04568c-0.0417-0.06744 0.0206-0.12263 0.13847-0.12263 0.11784 0 0.21426 0.05518 0.21426 0.12263 0 0.06744-0.0623 0.12263-0.13847 0.12263-0.0762 0-0.17257-0.05518-0.21426-0.12263zm-0.73834-0.42888c-0.056-0.05601-0.24148-0.10382-0.41217-0.10625-0.17068-0.0024-0.32774-0.08885-0.349-0.19204-0.0213-0.10319-5e-3 -0.11974 0.0361-0.03679 0.0411 0.08296 0.18517 0.14982 0.32005 0.14858 0.21212-0.0019 0.21545-0.02153 0.0245-0.1449-0.1214-0.07845-0.15119-0.14366-0.0662-0.1449 0.085-0.0012 0.24371 0.08052 0.35275 0.18169 0.16157 0.14992 0.18201 0.1377 0.11049-0.06608-0.0653-0.18599-0.0269-0.22669 0.14964-0.15893 0.13994 0.0537 0.19992 0.0305 0.14612-0.05654-0.0502-0.0812-7e-3 -0.14763 0.0966-0.14763 0.10332 0 0.17836 0.12875 0.16678 0.28611-0.0228 0.30926-0.40989 0.60354-0.57574 0.43769zm0.43279-0.30298c-0.0453-0.04531-0.16405-9.4e-5 -0.26388 0.10047-0.14423 0.14533-0.12734 0.16223 0.0824 0.08238 0.14512-0.05526 0.22679-0.13754 0.1815-0.18285zm-79.452-0.7863c0.03395-0.05493-0.02146-0.13341-0.12313-0.1744-0.14328-0.05776-0.14153-0.07714 0.0078-0.08614 0.10594-0.0064 0.15453-0.07326 0.10796-0.1486-0.04657-0.07534-0.0071-0.1849 0.08763-0.24346 0.1076-0.0665 0.13287-0.0427 0.06729 0.06341-0.05775 0.09344-0.03878 0.16989 0.04215 0.16989s0.18808-0.06622 0.2381-0.14715c0.05002-0.08093 0.16981-0.14514 0.2662-0.14268 0.09639 0.0025 0.06212 0.07043-0.07615 0.15104-0.15444 0.09004-0.21546 0.24024-0.15821 0.38943 0.08232 0.21453 0.10615 0.20979 0.20427-0.04068 0.10435-0.26637 0.1117-0.26453 0.12142 0.03036 0.0084 0.25476-0.07043 0.3106-0.41835 0.29638-0.23578-0.0096-0.40091-0.06246-0.36696-0.1174zm67.711-0.21298c-0.0484-0.04838-0.0504-0.18578-5e-3 -0.30534 0.0509-0.13256 4e-3 -0.20627-0.1205-0.1889-0.11216 0.01566-0.36947 0.01597-0.5718 7.36e-4 -0.33667-0.02542-0.34291-0.03771-0.0736-0.14485 0.16187-0.06439 0.3162-0.06026 0.34296 0.0092 0.0268 0.06943 0.18375 0.05394 0.34885-0.03442 0.21788-0.1166 0.27277-0.11628 0.20017 0.0012-0.055 0.08901-0.0354 0.16183 0.0436 0.16183s0.17697-0.08277 0.21779-0.18394c0.0548-0.13583 0.0773-0.13112 0.0858 0.01802 0.01 0.1702 0.0521 0.1706 0.26913 0.0025 0.21746-0.1684 0.21474-0.14922-0.0175 0.12329-0.15127 0.17749-0.34992 0.30879-0.44145 0.29177-0.0915-0.01702-0.14986 0.05183-0.12963 0.15299 0.0401 0.20025-0.0117 0.23354-0.14928 0.09598zm1.3633-0.27991c-0.10075-0.1214-0.12542-0.22174-0.0548-0.22298 0.0706-0.0012 0.0464-0.05436-0.0539-0.11804-0.1085-0.0689 0.0405-0.12049 0.36787-0.1274 0.39831-0.0084 0.46894 0.0187 0.25588 0.0982l-0.2943 0.10982 0.2943 0.07634c0.25078 0.06505 0.23991 0.08039-0.0736 0.10375-0.34014 0.02535-0.34568 0.03695-0.0736 0.15388 0.22643 0.0973 0.23907 0.12885 0.0548 0.13681-0.13172 0.0057-0.32193-0.08898-0.42268-0.21038zm1.0595 0.04415c-0.0971-0.09712-0.17557-0.24611-0.17433-0.33109 1e-3 -0.10334 0.038-0.10162 0.11036 0.0052 0.0595 0.08785 0.24055 0.23483 0.40242 0.32662 0.21822 0.12375 0.23534 0.16804 0.0662 0.17136-0.12544 0.0025-0.30754-0.07499-0.40466-0.17211zm0.80509-0.0329c0.0818-0.23281 0.05-0.26408-0.1791-0.17616-0.15321 0.0588-0.22545 0.05374-0.16053-0.01124 0.16173-0.16186 0.97973-0.16864 0.88002-0.0073-0.044 0.07121-0.11651 0.09299-0.1611 0.04839-0.0446-0.04459-0.17056 0.03377-0.27993 0.17415-0.18482 0.23722-0.19183 0.23526-0.0994-0.02783zm1.4078 0.11147c-0.10209-0.04113-0.24994-0.19495-0.32854-0.34182-0.12213-0.22821-0.0957-0.25469 0.18183-0.18211 0.18346 0.04797 0.24298 0.11218 0.1368 0.14757-0.13502 0.04501-0.11323 0.1193 0.0774 0.26383 0.27415 0.20788 0.25372 0.24192-0.0675 0.11253zm-72.601-0.38023c-0.11134-0.19972-0.04282-1.1178 0.08176-1.0955 0.08771 0.01575 0.14449-0.04945 0.12616-0.1449-0.03457-0.18003 0.63419-0.17822 0.76931 0.0021 0.04034 0.05383 0.03184 0.0674-0.01889 0.03016s-0.28109 0.02995-0.5119 0.14931c-0.3437 0.17773-0.41041 0.29655-0.36852 0.65631 0.04282 0.36774 0.0067 0.55428-0.07791 0.4025zm74.848-0.10868c-0.0516-0.08341 7e-3 -0.10808 0.13847-0.05783 0.25492 0.09783 0.30155 0.2033 0.0899 0.2033-0.0761 0-0.17892-0.06546-0.22836-0.14547zm-74.204-0.10823c-0.10209-0.03644-0.25879-0.20296-0.34821-0.37004-0.1352-0.25263-0.12413-0.28904 0.06576-0.21617 0.12559 0.04819 0.2605 0.0086 0.2998-0.08805 0.05092-0.12516 0.07481-0.12029 0.08308 0.01695 0.0064 0.10594 0.07437 0.15384 0.15108 0.10643 0.07739-0.04783 0.11219 0.0554 0.07819 0.23195-0.07402 0.38434-0.09354 0.40322-0.3297 0.31893zm0.11205-0.33491c0-0.08093-0.0292-0.14715-0.06489-0.14715s-0.10582 0.06622-0.15584 0.14715c-0.05002 0.08093-0.02082 0.14715 0.06489 0.14715s0.15584-0.06622 0.15584-0.14715z" fill="#fcfcfc"/><path d="m76.296 289.91c-0.10304-0.12417-0.0085-0.18702 0.3397-0.22576 0.62244-0.0693 1.5907 0.0856 1.2918 0.20673-0.43776 0.17735-1.4899 0.18962-1.6315 0.019zm-28.682-2.4032c0-0.0861 0.1523-0.15648 0.33845-0.15648 0.18615 0 0.42434-0.0828 0.52931-0.18394 0.15436-0.14876 0.18087-0.12765 0.13859 0.11036-0.03738 0.21043-0.18824 0.30745-0.52931 0.34042-0.26778 0.0259-0.47704-0.0225-0.47704-0.11036zm11.11-9e-3c0.05002-0.0809 0.19027-0.14715 0.31167-0.14715s0.1798 0.0662 0.12978 0.14715c-0.05002 0.0809-0.19027 0.14715-0.31167 0.14715s-0.1798-0.0662-0.12978-0.14715zm-8.498-0.53891c0.10117-0.0408 0.26671-0.0408 0.36788 0s0.01839 0.0742-0.18394 0.0742c-0.20233 0-0.28511-0.0334-0.18394-0.0742zm1.3611-0.0404c0-0.0764 0.24614-0.0999 0.55182-0.0528 0.76409 0.11791 0.78748 0.19065 0.06131 0.19065-0.33722 0-0.61313-0.0621-0.61313-0.1379zm1.7074 0.0153c-0.04168-0.0675 0.15015-0.12264 0.4263-0.12264s0.46798 0.0552 0.4263 0.12264c-0.04168 0.0674-0.23352 0.12262-0.4263 0.12262s-0.38461-0.0552-0.4263-0.12262zm1.4744 5e-3c-0.03688-0.0597 0.19229-0.11527 0.50925-0.12357 0.31696-8e-3 0.57629 0.0319 0.57629 0.0893 0 0.14028-1.0005 0.17186-1.0855 0.0342zm134.31-53.071c0-0.11784 0.0563-0.17948 0.12503-0.13699 0.0688 0.0425 0.0869 0.13891 0.0404 0.21426-0.11899 0.19253-0.1654 0.17085-0.1654-0.0773zm0.24526-0.44793c0-0.1214 0.0993-0.22073 0.22072-0.22073 0.1214 0 0.22073 0.0993 0.22073 0.22073 0 0.1214-0.0993 0.22072-0.22073 0.22072-0.1214 0-0.22072-0.0993-0.22072-0.22072zm-161.28-58.493c-0.13263-0.0857-0.15078-0.14355-0.04547-0.1449 0.09639-1e-3 0.21618 0.064 0.2662 0.1449 0.11291 0.18268 0.06197 0.18268-0.22073 0zm0.77774-0.19951c0.08027-0.24081 0.82622-0.74716 0.9372-0.63618 0.13902 0.13903-0.4909 0.78664-0.76515 0.78664-0.12221 0-0.19964-0.0677-0.17205-0.15046zm0.62649-0.96754c-0.04657-0.0753-0.0284-0.17175 0.04036-0.21425s0.12503 0.0191 0.12503 0.13698c0 0.24813-0.0464 0.26981-0.16539 0.0773zm111.76-104.59c-0.20233-0.21619-0.28511-0.34357-0.18394-0.28308 0.10117 0.06049 0.18394 0.03986 0.18394-0.04585s0.0717-0.15584 0.15941-0.15584c0.0877 0 0.12974 0.08277 0.0935 0.18394-0.0363 0.10117-6e-3 0.29982 0.0665 0.44145 0.18046 0.35086 0.11273 0.32104-0.31936-0.14064zm27.738-24.299c-0.2428-0.02728-0.55991-0.17627-0.70471-0.33109-0.14478-0.15482-0.23157-0.28148-0.19287-0.28148s-0.0311-0.29798-0.15524-0.66218c-0.1241-0.3642-0.28954-0.66218-0.36763-0.66218-0.0781 0-0.1036-0.06215-0.0566-0.13811 0.0469-0.07596-0.0213-0.19779-0.15166-0.27074-0.13035-0.07295-0.2395-0.1929-0.24255-0.26656-0.0134-0.32111-0.22364-0.63644-1.0624-1.5927-1.2855-1.4657-1.8568-2.0117-2.0074-1.9186-0.0728 0.04496-0.0909-0.02598-0.0404-0.15766 0.0675-0.17584 0.0191-0.22671-0.18232-0.19158-0.15425 0.0269-0.27563-0.03874-0.2775-0.15006-4e-3 -0.24194-0.82261-0.91695-0.98801-0.81473-0.0654 0.04043-0.11892 0.0093-0.11892-0.06914 0-0.13152-1.7971-1.3462-1.9916-1.3462-0.0472 0-0.0358 0.08277 0.0254 0.18394 0.0612 0.10117-0.0918-0.0175-0.3399-0.26369-0.4426-0.43914-1.4489-0.86433-1.6912-0.71457-0.0676 0.04177-0.12287 0.0058-0.12287-0.0799 0-0.08571-0.13244-0.15584-0.2943-0.15584-0.16187 0-0.2943-0.06096-0.2943-0.13546 0-0.0745-0.19932-0.17924-0.44294-0.23274-0.24361-0.05351-0.62437-0.18746-0.84612-0.29768-0.22175-0.11022-0.58344-0.18034-0.80374-0.15582-0.22032 0.02452-0.36541-0.01233-0.32241-0.08189s-0.0499-0.12647-0.20644-0.12647c-0.15653 0-0.50182-0.04344-0.76732-0.09655-0.33084-0.06617-0.45159-0.04618-0.3838 0.06353 0.0544 0.08804-0.11738 0.049-0.38179-0.08677-0.33859-0.17387-0.89398-0.25315-1.8786-0.26815-1.6748-0.02552-4.0102 0.21093-4.1392 0.41907-0.0625 0.10088-0.11026 0.10072-0.14715-4.42e-4 -0.0336-0.09232-0.4407-0.02813-1.0609 0.16729-0.55349 0.17439-0.9734 0.35018-0.93315 0.39065 0.0403 0.04047-0.13598 0.08427-0.39162 0.09734s-1.0481 0.2945-1.7611 0.62539c-0.71294 0.33089-1.3427 0.60163-1.3994 0.60163-0.0567 0-0.27746 0.16162-0.4905 0.35917-0.21305 0.19754-0.41211 0.33441-0.44237 0.30415-0.0303-0.03026-0.31809 0.17231-0.6396 0.45016-0.32152 0.27785-0.63661 0.50518-0.7002 0.50518-0.0636 0-0.18006 0.16953-0.25884 0.37673-0.0872 0.22924-0.20986 0.33556-0.3134 0.27157-0.10553-0.06522-0.13028-0.04064-0.0652 0.06472 0.0577 0.09342 0.031 0.16986-0.0595 0.16986s-0.11727 0.07645-0.0595 0.16989c0.0606 0.09802 0.0408 0.13021-0.0468 0.07608-0.14648-0.09053-2.0248 1.7922-1.9062 1.9108 0.0322 0.03214-0.1555 0.29202-0.41698 0.5775-0.50863 0.5553-1.1512 1.6964-1.1512 2.0444 0 0.11635-0.0557 0.17716-0.12367 0.13512-0.068-0.04204-0.16149 0.02215-0.20773 0.14264-0.0462 0.12049-0.34104 0.26248-0.65513 0.31555-0.46124 0.07793-0.69252 0.0237-1.2025-0.28192-0.34726-0.20812-0.54154-0.37903-0.43171-0.3798 0.11682-8.83e-4 0.16454-0.09299 0.11498-0.22212-0.0466-0.1214-0.0283-0.22073 0.0407-0.22073 0.20613 0 0.28578-0.55071 0.10589-0.73207-0.12477-0.12578-0.11118-0.14722 0.0538-0.08487 0.1536 0.05804 0.35257-0.15186 0.6543-0.69025 0.23847-0.42551 0.55462-0.90376 0.70258-1.0628 0.14795-0.15902 0.23503-0.37767 0.1935-0.48588-0.0415-0.10821-0.017-0.16058 0.0545-0.11638 0.13213 0.08166 0.3771-0.33262 0.32775-0.55427-0.0148-0.06672 0.0316-0.08507 0.10325-0.0408 0.11113 0.06868 1.2014-0.9973 1.2014-1.1746 0-0.07942 0.9926-0.97671 1.7194-1.5543 0.30878-0.24538 0.5629-0.523 0.56471-0.61694 2e-3 -0.09393 0.11472-0.15201 0.2509-0.12907 0.13617 0.02294 0.35714-0.12548 0.49103-0.32983 0.1339-0.20435 0.29927-0.33704 0.36751-0.29487 0.0682 0.04217 0.46003-0.10478 0.87066-0.32656 0.53193-0.28728 0.72183-0.46836 0.66046-0.62975-0.0657-0.17282-0.0452-0.18588 0.0867-0.05508 0.17828 0.17687 0.8083-0.03176 2.0887-0.69166 0.3035-0.15642 0.55181-0.23762 0.55181-0.18044 0 0.05718 0.1053-0.04637 0.23399-0.2301 0.18508-0.26424 0.27715-0.29823 0.44052-0.16265 0.15876 0.13176 0.37481 0.11637 0.93409-0.06656 0.40015-0.13088 0.868-0.23797 1.0397-0.23797s0.28157-0.04966 0.24422-0.11036c-0.0373-0.0607 0.30089-0.12798 0.75163-0.14952 0.45075-0.02153 0.89126-0.0905 0.97892-0.15325 0.0877-0.06275 1.2189-0.0998 2.5138-0.08231 1.7628 0.0238 2.7427 0.11324 3.8995 0.35594 0.8498 0.17829 1.6878 0.33227 1.8621 0.34219 0.17437 0.0099 0.27939 0.07896 0.23338 0.15341-0.046 0.07445 0.0223 0.09473 0.15168 0.04505 0.12945-0.04967 0.2574-0.02421 0.28433 0.05658 0.0269 0.0808 0.14709 0.16623 0.26703 0.18985 0.11993 0.02362 0.41671 0.12592 0.65951 0.22732s0.50767 0.20091 0.5886 0.22111c0.0809 0.02021 0.25987 0.08572 0.39762 0.14558 0.13776 0.05986 0.33009 0.05963 0.4274-4.41e-4 0.12024-0.07431 0.13834-0.0469 0.0565 0.08554-0.0882 0.14269-0.0528 0.16894 0.13206 0.098 0.13888-0.05329 0.21569-0.03733 0.17069 0.03547s0.43165 0.40899 1.0592 0.74709c0.62756 0.3381 1.521 0.87374 1.9855 1.1903 0.46445 0.31657 0.91142 0.57559 0.99327 0.57559 0.0819 0 0.14881 0.0683 0.14881 0.15177 0 0.08347 0.11153 0.19457 0.24785 0.24688 0.13631 0.05231 0.75989 0.62039 1.3857 1.2624 0.73896 0.75807 1.2017 1.1278 1.32 1.0548 0.116-0.07169 0.14467-0.05198 0.079 0.0543-0.13324 0.21559 0.15794 0.76153 0.40617 0.76153 0.10507 0 0.19378 0.08277 0.19714 0.18394 6e-3 0.18232 1.4552 2.4593 1.8652 2.9308 0.11731 0.13489 0.17466 0.28388 0.12745 0.33109-0.0472 0.04721-0.0215 0.08584 0.0571 0.08584 0.24467 0 0.23285 1.1143-0.014 1.3191-0.12308 0.10214-0.19626 0.23024-0.16262 0.28466 0.0658 0.10655-0.17561 0.11728-0.87373 0.03883zm-24.501-12.238c0-0.08093-0.0292-0.14715-0.0649-0.14715s-0.10582 0.06622-0.15584 0.14715c-0.05 0.08093-0.0208 0.14715 0.0649 0.14715s0.15584-0.06622 0.15584-0.14715zm-11.589 8.9042c0.06-0.06689 0.0269-0.22704-0.0736-0.35588-0.15759-0.20211-0.15051-0.20919 0.0516-0.0516 0.12884 0.10046 0.2768 0.14012 0.3288 0.08813 0.052-0.052-8e-3 -0.16967-0.13379-0.26149-0.19834-0.14503-0.18979-0.16696 0.0651-0.16696 0.16136 0 0.26472 0.04637 0.2297 0.10305-0.035 0.05668-3e-3 0.12526 0.0708 0.15241 0.0739 0.02715-0.0415 0.17639-0.25659 0.33166-0.21508 0.15527-0.34196 0.22758-0.28196 0.16069zm3.7335-0.39635c0.0425-0.06876 0.13891-0.08693 0.21425-0.04037 0.19253 0.11899 0.17085 0.16539-0.0773 0.16539-0.11784 0-0.17948-0.05626-0.13698-0.12503zm27.928-1.3342-0.28032-0.33109 0.33109 0.28032c0.31114 0.26343 0.39807 0.38186 0.28032 0.38186-0.0279 0-0.17692-0.14899-0.33109-0.33109zm-28.082-2.6551c0.0553-0.14512 0.13754-0.22679 0.18285-0.18149 0.0453 0.04531 9e-5 0.16404-0.10047 0.26386-0.14533 0.14425-0.16223 0.12734-0.0824-0.08238zm29.181-0.06723c-0.18303-0.23339-0.17783-0.2386 0.0556-0.05556 0.24511 0.19223 0.32307 0.31307 0.20195 0.31307-0.0305 0-0.14643-0.11588-0.25751-0.25752zm-23.304-1.0652c-0.0516-0.08341 8e-3 -0.10808 0.13846-0.05783 0.25493 0.09783 0.30157 0.2033 0.0899 0.2033-0.0762 0-0.17893-0.06546-0.22837-0.14547zm20.232-0.92213c0-0.04047 0.0934-0.15112 0.20763-0.24589 0.15997-0.13276 0.23294-0.12845 0.31789 0.01877 0.0606 0.1051 0.0561 0.142-0.0102 0.082-0.0662-0.06-0.20928-0.03534-0.31789 0.05481-0.10862 0.09014-0.19748 0.13078-0.19748 0.09032zm-11.585-1.1295c0.0118-0.15626 0.071-0.25347 0.13158-0.21602 0.0606 0.03745 0.0729 0.1653 0.0273 0.28411-0.11496 0.29958-0.18432 0.26985-0.15886-0.06809zm-70.564-2.6772c0.09982-0.10057 0.21856-0.14578 0.26386-0.10047 0.04531 0.04531-0.03636 0.12759-0.18149 0.18285-0.20972 0.07986-0.22662 0.06295-0.08237-0.08237zm73.811-0.0775c0-0.14487 0.0496-0.15271 0.19621-0.03103 0.10791 0.08956 0.1962 0.1768 0.1962 0.19386 0 0.01707-0.0883 0.03103-0.1962 0.03103-0.10792 0-0.19621-0.08724-0.19621-0.19387zm-73.829-0.31982c-0.0519-0.08398-0.02267-0.19701 0.06497-0.25117 0.21868-0.13515 0.2961-0.02766 0.15015 0.20848-0.07819 0.12651-0.15402 0.14156-0.21513 0.04269z" fill="#fafafa"/><path d="m189.32 233.42c0-0.1214 0.0993-0.22073 0.22072-0.22073 0.1214 0 0.22073 0.0993 0.22073 0.22073 0 0.1214-0.0993 0.22072-0.22073 0.22072-0.1214 0-0.22072-0.0993-0.22072-0.22072zm-160.2-59.003c0.51633-0.46605 0.80392-0.48961 0.50791-0.0416-0.12031 0.1821-0.37671 0.34981-0.56976 0.37267-0.34896 0.0414-0.34859 0.0394 0.06186-0.33109zm112.03-105.5c0.0492-0.12816 0.15407-0.23302 0.23309-0.23302 0.19341 0 0.0723 0.33444-0.14767 0.40776-0.10753 0.03584-0.14042-0.03143-0.0854-0.17474zm27.065-24.55c-0.67381-1.5243-0.83366-1.8528-1.1392-2.3412-0.41486-0.66322-1.8287-2.2847-2.912-3.3398-0.7227-0.70384-3.4838-2.6698-3.7496-2.6698-0.0574 0-0.28019-0.12324-0.49501-0.27388-0.21483-0.15063-0.65548-0.35711-0.97921-0.45883s-0.78726-0.27345-1.0301-0.38161c-1.1874-0.52894-2.0213-0.78348-3.094-0.94436-0.64536-0.09679-1.451-0.23604-1.7903-0.30944-1.0215-0.22095-3.171-0.12918-5.637 0.24068-0.81955 0.12292-3.1252 0.89899-4.3457 1.4628-0.61621 0.28464-1.1466 0.51752-1.1786 0.51752-0.032 0-0.46941 0.28143-0.97199 0.62539-1.657 1.1341-4.3178 4.0829-5.4033 5.9883-0.21313 0.37411-0.45451 0.79054-0.5364 0.92542-0.0819 0.13488-0.41317 0.28749-0.73618 0.33914-0.47138 0.07538-0.66707 0.03115-0.99153-0.22406-0.22234-0.17489-0.40279-0.42905-0.40101-0.56481 0.01-0.75145 1.5414-3.1646 3.1108-4.9015 5.1379-5.6861 14.322-7.9069 21.681-5.2429 4.4417 1.6078 7.7532 3.9382 10.301 7.2489 1.1116 1.4445 2.2802 3.4575 2.2804 3.928 1.4e-4 0.51095-0.4872 0.85446-1.2122 0.85446-0.48835 0-0.5847-0.05988-0.76964-0.47824zm-87.848-13.491c-0.04657-0.07534-0.01736-0.17858 0.06489-0.22941 0.08225-0.05084 0.14955 0.0108 0.14955 0.13698 0 0.25848-0.0883 0.29653-0.21444 0.09243z" fill="#c0c0c0"/><path d="m189.32 233.42c0-0.1214 0.0993-0.22073 0.22072-0.22073 0.1214 0 0.22073 0.0993 0.22073 0.22073 0 0.1214-0.0993 0.22072-0.22073 0.22072-0.1214 0-0.22072-0.0993-0.22072-0.22072zm-160.19-59.009c0.48356-0.41587 0.63076-0.39235 0.38764 0.0619-0.09067 0.1694-0.31026 0.30682-0.49016 0.30672-0.30919 0-0.30392-0.0191 0.10252-0.36864zm112.01-105.49c0.0492-0.12816 0.15407-0.23302 0.23309-0.23302 0.19341 0 0.0723 0.33444-0.14767 0.40776-0.10753 0.03584-0.14042-0.03143-0.0854-0.17474zm27.084-24.476c-0.11252-0.22257-0.31561-0.74452-0.45131-1.1599-0.13572-0.41538-0.37644-0.87262-0.53497-1.0161-0.15852-0.14346-0.28822-0.32611-0.28822-0.40589 0-0.18312-0.75395-1.0483-2.3703-2.72-1.3329-1.3785-3.1586-2.7005-4.9136-3.558-1.1652-0.56929-3.8797-1.4761-4.8579-1.6229-0.64641-0.09697-1.4529-0.23636-1.7923-0.30976-1.0334-0.22352-2.9674-0.13946-5.7105 0.24821-1.3668 0.19316-4.9075 1.5695-6.1216 2.3796-0.2105 0.14045-0.5747 0.38446-0.80933 0.54224-1.3337 0.89689-4.0606 4.114-5.1452 6.0701-0.36816 0.66397-0.49841 0.77772-0.98464 0.85987-0.6401 0.10815-1.2021-0.17121-1.3628-0.67737-0.12065-0.38016 0.60851-1.928 1.2508-2.6552 0.24277-0.27486 0.48467-0.63157 0.53755-0.79269 0.10413-0.31726 0.58681-0.86476 2.1926-2.4871 1.4909-1.5063 3.0407-2.5015 5.8809-3.7766 1.1324-0.50838 4.111-1.3063 5.6653-1.5176 1.5541-0.21129 4.2738-0.17993 5.7389 0.06618 1.1708 0.19668 3.0984 0.69766 3.3057 0.85917 0.0838 0.06525 0.35097 0.1658 0.59377 0.22344 0.63751 0.15135 3.8282 1.7398 4.8096 2.3944 1.0387 0.69282 2.9077 2.1461 2.9124 2.2646 2e-3 0.04838 0.3511 0.44715 0.776 0.88614s0.93809 1.017 1.1404 1.2844c0.20234 0.2674 0.48376 0.62372 0.6254 0.79182 0.14163 0.1681 0.25751 0.35699 0.25751 0.41976 0 0.06277 0.0854 0.20163 0.18986 0.30858 0.38681 0.39617 1.4288 2.3657 1.4288 2.7006 0 0.45734-0.52071 0.80475-1.2062 0.80475-0.45458 0-0.58823-0.07147-0.75666-0.40467zm-87.873-13.575c-0.05002-0.08093-0.02082-0.14715 0.06489-0.14715s0.15584 0.06622 0.15584 0.14715c0 0.08093-0.0292 0.14715-0.06489 0.14715s-0.10582-0.06622-0.15584-0.14715z" fill="#bdbdbd"/><path d="m189.32 233.42c0-0.1349 0.0712-0.22152 0.15818-0.19252 0.087 0.029 0.15819 0.11563 0.15819 0.19252 0 0.0769-0.0712 0.16353-0.15819 0.19252-0.087 0.029-0.15818-0.0576-0.15818-0.19252zm-160.17-58.995c0.50461-0.40459 0.60983-0.39097 0.37462 0.0485-0.09087 0.16978-0.30986 0.30657-0.49016 0.30616-0.30459 0-0.29703-0.0239 0.11554-0.35468zm112.06-105.59c0-0.08093 0.0701-0.14715 0.15584-0.14715 0.0857 0 0.11491 0.06622 0.0649 0.14715-0.05 0.08093-0.12015 0.14715-0.15584 0.14715-0.0357 0-0.0649-0.06622-0.0649-0.14715zm27.172-24.204c-0.12031-0.12032-0.33178-0.56729-0.46994-0.99327-0.25301-0.78017-1.0209-2.0801-1.631-2.7611-2.6562-2.9648-4.964-4.7017-7.5604-5.6905-0.52606-0.20034-1.3663-0.51994-1.8671-0.71023-0.50086-0.19029-1.4279-0.42337-2.0601-0.51795-0.63221-0.09458-1.4271-0.23202-1.7664-0.30542-1.6379-0.35429-5.6076 0.05295-7.7706 0.79718-1.7705 0.60917-3.5705 1.4337-4.4813 2.0528-0.89241 0.60657-3.1849 2.9066-3.9931 4.0063-0.73737 1.0033-1.4582 2.1039-1.4582 2.2265 0 0.0454-0.13334 0.2698-0.29631 0.49867-0.3766 0.52888-1.0108 0.67835-1.5955 0.376-0.88959-0.46003-0.78105-0.90646 0.78978-3.2483 1.1389-1.6979 2.8971-3.575 4.4129-4.7113 0.4856-0.36402 1.81-1.1173 2.943-1.674 4.0495-1.9896 8.3477-2.6997 12.508-2.0664 1.0608 0.16148 3.1237 0.69649 3.3845 0.87775 0.0809 0.05625 0.3458 0.14992 0.5886 0.20815 0.73636 0.1766 3.7473 1.7255 5.0767 2.6117 2.5849 1.7229 4.8837 4.2594 6.5218 7.1963 0.29778 0.53384 0.54142 1.1095 0.54142 1.2792 0 0.64397-1.3217 1.0427-1.8164 0.54799zm-88.019-13.761c-0.05002-0.08093-0.02082-0.14715 0.06489-0.14715s0.15584 0.06622 0.15584 0.14715c0 0.08093-0.0292 0.14715-0.06489 0.14715s-0.10582-0.06622-0.15584-0.14715z" fill="#808080"/><path d="m189.32 233.35c0-0.0784 0.0993-0.10442 0.22072-0.0578 0.1214 0.0466 0.22073 0.11072 0.22073 0.14253 0 0.0318-0.0993 0.0578-0.22073 0.0578-0.1214 0-0.22072-0.0641-0.22072-0.14253zm-160.15-58.926c0.47298-0.40711 0.5817-0.39188 0.34604 0.0485-0.09034 0.16879-0.29805 0.3069-0.46158 0.3069-0.26644 0-0.25444-0.0369 0.11554-0.35536zm139.15-129.97c-0.16244-0.23162-0.40715-0.76229-0.54382-1.1793-0.13666-0.41698-0.37774-0.9072-0.53574-1.0894-0.15798-0.18216-0.28725-0.39217-0.28725-0.46667 0-0.42187-3.6431-3.9429-4.9301-4.7648-1.2005-0.76671-2.5893-1.5863-2.7218-1.6063-0.19973-0.03009-0.87737-0.28295-1.465-0.54664-0.36061-0.16183-0.72481-0.30479-0.80933-0.3177-0.0845-0.01291-0.2199-0.06348-0.30084-0.11239-0.15115-0.09134-1.0677-0.31-1.138-0.27149-0.0216 0.01183-0.22902-0.05066-0.46101-0.13886-0.23197-0.0882-0.81522-0.19065-1.2961-0.22767-0.48089-0.03702-0.94402-0.11037-1.0292-0.163-0.16247-0.1004-2.4246-0.09565-3.4333 0.0072-2.0013 0.20408-2.5297 0.30921-3.8995 0.77587-1.9149 0.65236-3.7963 1.499-4.6721 2.1025-1.6513 1.1378-4.3364 4.1734-5.4011 6.106-0.22293 0.40467-0.46919 0.81427-0.54725 0.91024-0.25099 0.30855-0.95553 0.37344-1.424 0.13115-0.81475-0.42132-0.70931-0.97524 0.55351-2.9077 0.98332-1.5047 2.6701-3.4574 3.6703-4.2487 0.35228-0.27873 0.72219-0.58344 0.82202-0.67714 0.75381-0.7075 3.9893-2.3504 5.7799-2.9349 1.6499-0.53859 2.7438-0.76958 4.824-1.0186 0.58551-0.0701 2.4887-0.07049 3.7524-7.35e-4 1.9772 0.10909 4.2882 0.73762 6.5928 1.7931 0.59105 0.27069 1.1092 0.49216 1.1515 0.49216 0.1847 0 2.2778 1.2932 3.2184 1.9884 2.4013 1.7749 4.3569 4.0135 5.8597 6.7076 0.79594 1.4269 0.69932 1.8464-0.46113 2.0021-0.50539 0.06779-0.60732 0.02735-0.86797-0.34432z" fill="#7d7d7d"/><path d="m29.114 174.48c0.20578-0.16186 0.41392-0.2943 0.46254-0.2943s0.0057 0.13244-0.09539 0.2943c-0.10109 0.16187-0.30923 0.29431-0.46255 0.29431-0.24177 0-0.22911-0.039 0.0954-0.29431zm139.27-129.95c-0.11977-0.19166-0.33729-0.67957-0.48338-1.0842-0.47674-1.3207-0.94702-1.9356-3.3201-4.3414-1.5538-1.5752-4.4997-3.5981-5.6664-3.8909-0.22947-0.05759-0.77192-0.26696-1.2054-0.46525-2.3974-1.0966-6.0269-1.5078-9.4434-1.0699-1.4376 0.18425-3.5642 0.8254-5.1242 1.5449-0.59268 0.27336-1.128 0.49701-1.1896 0.49701-0.28163 0-1.9673 1.3158-3.0806 2.4046-1.3792 1.3489-2.6065 2.9109-3.4826 4.4321-0.50588 0.87841-0.66222 1.0391-1.0978 1.1282-0.33347 0.0682-0.64512 0.03296-0.90724-0.10259-0.76385-0.395-0.62656-0.96001 0.74888-3.0821 1.0907-1.6828 2.8424-3.5762 4.3814-4.7359 1.2425-0.93629 4.0239-2.345 5.7052-2.8896 5.5725-1.805 11.196-1.3751 16.295 1.2458 3.9662 2.0389 7.1195 5.0325 9.1396 8.6768 0.79317 1.4309 0.69535 1.8465-0.47148 2.003-0.49535 0.06644-0.61123 0.0271-0.79735-0.27074z" fill="#404040"/><path d="m29.114 174.48c0.20578-0.16186 0.41392-0.2943 0.46254-0.2943s0.0057 0.13244-0.09539 0.2943c-0.10109 0.16187-0.30923 0.29431-0.46255 0.29431-0.24177 0-0.22911-0.039 0.0954-0.29431zm139.34-129.83c-0.0848-0.10215-0.30154-0.58223-0.48169-1.0668-0.36621-0.98515-1.3251-2.4864-1.7627-2.7597-0.15744-0.09832-0.28625-0.24942-0.28625-0.33578 0-0.23952-2.8394-3.0095-3.0849-3.0095-0.0533 0-0.24224-0.1354-0.41987-0.3009-0.27543-0.2566-1.0524-0.72173-2.8227-1.6898-0.67149-0.3672-3.0024-1.2239-3.9731-1.4602-1.8623-0.45341-3.945-0.63272-5.8172-0.50085-2.6157 0.18424-4.3656 0.62621-6.6416 1.6775-0.60538 0.27964-1.1517 0.50843-1.214 0.50843-0.31242 0-2.2961 1.5788-3.3512 2.6672-1.3781 1.4217-2.3722 2.7058-3.2474 4.1949-0.52504 0.89334-0.68642 1.0598-1.084 1.1182-0.25693 0.03771-0.66301-0.02915-0.90241-0.14858-0.39635-0.19773-0.4274-0.26636-0.34724-0.76761 0.10613-0.66369 0.22401-0.89418 1.2798-2.5024 1.8265-2.7822 4.2192-4.8463 7.3457-6.3371 1.22-0.58174 1.5395-0.71177 2.6487-1.0782 2.2986-0.75928 4.1416-1.0398 6.769-1.0301 3.6486 0.01341 5.7388 0.51733 9.2705 2.235 2.9467 1.4332 5.0492 3.06 6.9963 5.4132 1.6088 1.9444 2.9575 4.2404 2.7938 4.7561-0.16094 0.50709-1.3469 0.8037-1.6677 0.41711z" fill="#3d3d3d"/><path d="m29.147 174.48c0.14649-0.16186 0.33256-0.2943 0.41349-0.2943 0.08093 0 0.0273 0.13244-0.11919 0.2943-0.14649 0.16187-0.33256 0.29431-0.41349 0.29431-0.08093 0-0.0273-0.13244 0.11919-0.29431zm139.32-129.82c-0.0801-0.10117-0.28593-0.56473-0.45745-1.0301-0.40905-1.11-0.89484-1.8472-2.1508-3.2638-1.8799-2.1204-3.3312-3.3239-5.229-4.3363-0.36389-0.19412-0.76616-0.44244-0.89393-0.55182s-0.33605-0.19886-0.46283-0.19886c-0.12679 0-0.69211-0.19642-1.2563-0.43649-2.4026-1.0224-5.4083-1.5086-8.1284-1.315-2.0874 0.14861-2.3922 0.19931-4.0467 0.67296-1.6149 0.46234-3.973 1.5153-5.1085 2.2812-1.7348 1.1701-4.2858 4.1112-5.6105 6.4687-0.46629 0.82979-1.0807 1.0148-1.7648 0.53146-0.36776-0.25982-0.40582-0.35692-0.31974-0.81578 0.0537-0.28647 0.44704-1.0559 0.874-1.7099 0.42695-0.65398 0.83571-1.2982 0.90834-1.4317 0.0726-0.13347 0.64922-0.80822 1.2813-1.4995 1.6126-1.7635 2.916-2.7229 5.5462-4.0823 3.0999-1.6022 7.5777-2.4258 11.257-2.0706 1.5204 0.1468 4.3635 0.77538 4.7028 1.0397 0.0842 0.06564 0.34952 0.16642 0.5895 0.22396 0.64488 0.15462 3.8354 1.7765 4.8573 2.4691 2.5625 1.7369 4.6928 4.0265 6.337 6.811 0.61986 1.0497 0.82031 1.5551 0.72985 1.8401-0.15607 0.49173-1.3535 0.78409-1.6544 0.40393z"/>
</svg>
