<?xml version="1.0" encoding="utf-8"?>
<svg xmlns="http://www.w3.org/2000/svg" version="1.1" viewBox="0 0 1728 2688">
	<title>A stylized page marking the first section of the book. An enlarged reproduction of the word “Cane” is printed off-center and askew on an otherwise blank page.</title>
	<path d="m1544.2 292.75c-16.866-.36679-30.567-1.6862-32.281-3.109-5.3215-4.4163-3.4579-11.047 3.8176-13.583l6.796-2.3692v-43.415c0-42.85-.058-43.444-5.0971-45.652-3.1018-1.3608-5.3716-4.6152-5.799-8.3133-1.0703-9.2714 5.2248-11.544 23.777-8.5798 8.388 1.34 19.238 1.7627 24.111.93916 10.172-1.7185 44.506.69056 48.946 3.4347 1.7901 1.1063 3.4237 8.0696 4.0956 17.455.8966 12.529.3983 16.211-2.5204 18.633-5.4089 4.4891-9.6365 1.7012-14.668-9.6744-3.8813-8.774-5.8362-10.548-14.062-12.763-13.426-3.6153-20.267-1.49-20.292 6.3038 0 3.4025-.6632 11.538-1.4475 18.079-1.3298 11.067-1.0943 11.893 3.3895 11.893 3.1571 0 6.7896-3.1233 10.538-9.0615 5.9189-9.3758 9.6014-11.013 14.271-6.3429 4.0648 4.0649 3.6274 42.763-.5453 48.385-4.9081 6.6094-9.9799 2.8843-17.145-12.592-.8667-1.8689-3.9155-3.7437-6.7786-4.1663-5.0233-.74171-5.1545-.34598-3.7525 11.326.7972 6.6525 1.4609 15.408 1.4716 19.457.018 7.2998.1073 7.3622 11.096 7.3622 13.214 0 18.588-3.7826 25.745-18.122 5.4615-10.942 9.6278-13.172 15.959-8.5419 3.4391 2.5148 3.7774 5.1726 2.4616 19.334-.8404 9.0306-2.8032 18.166-4.3639 20.3-3.0941 4.2311-10.865 4.6192-67.721 3.383zm-171.58-6.7254c-1.8515-2.1803-6.2537-9.0615-9.7823-15.291-11.998-21.178-44.48-69.091-46.839-69.091-2.2661 0-.4607 64.484 1.9183 68.526.5511.93432 2.9103 1.699 5.2445 1.699 2.3679 0 4.9351 2.1771 5.8074 4.9244 2.4562 7.7424-4.2622 10.933-23.026 10.933-19.759 0-23.538-1.2394-23.538-7.7179 0-6.3009 4.0614-10.404 10.298-10.404 4.6394 0 4.9272-1.3142 6.3335-28.883.8104-15.885 1.4769-35.764 1.4822-44.174 0-14.448-.2787-15.291-5.2008-15.291-6.2169 0-10.647-3.9257-10.647-9.4347 0-6.7896 7.2404-8.5962 28.452-7.0992 23.388 1.6506 23.299 1.5842 41.72 31.173 18.422 29.59 21.249 29.853 18.893 1.7578-1.0889-12.983-2.103-15.928-6.0956-17.686-5.6966-2.5089-7.6445-9.8359-3.3402-12.564 7.8859-4.9973 37.034.53241 37.034 7.0257 0 1.8521-2.6814 4.6526-5.9585 6.2234-5.6894 2.7269-6.028 3.9049-7.4999 26.082-.8535 12.872-.449 34.614.9098 48.77 2.7034 28.178 1.319 34.487-7.5676 34.487-2.8779 0-6.7469-1.7841-8.5985-3.9644zm-495.03-5.888c-27.353-11.308-42.784-52.432-30.134-80.305 8.8813-19.569 18.408-30.23 32.859-36.769 12.05-5.4533 15.006-5.9358 26.051-4.2535 6.8526 1.0437 17.294 2.5843 23.202 3.4234 5.909.83903 11.949 2.9792 13.424 4.7557 2.6275 3.1651 2.9266 22.727.4706 30.821-2.3626 7.7949-12.401 3.8197-18.924-7.494-11.526-19.993-31.322-22.578-36.278-4.7365-1.2442 4.474-2.2663 23.013-2.2716 41.197-.0117 37.007 1.3513 40.561 15.569 40.561 11.25 0 19.669-5.54 23.69-15.589 4.0362-10.087 11.415-13.982 16.623-8.7746 4.037 4.037 6.4356 31.544 3.2672 37.464-2.0066 3.7476-5.3171 4.25-29.014 4.4014-22.469.14455-28.636-.60898-38.535-4.7014zm241.73 3.2976c-7.4747-2.0797-8.6078-9.058-2.25-13.854 3.6791-2.7752 4.6175-5.1138 3.4841-8.6848-1.6107-5.0732-6.0379-6.0921-21.634-4.98-11.67.83239-15.478 8.5239-6.2297 12.581 3.33 1.4611 5.097 4.1992 5.097 7.8993 0 4.9872-1.081 5.742-9.0615 6.3225-4.9837.36249-13.139-.18724-18.122-1.2217-7.4917-1.5548-9.1823-2.9065-9.7572-7.8025-.4362-3.7228.8403-7.0543 3.4373-8.9723 5.5403-4.0894 9.9327-11.664 16.221-27.969 2.883-7.4754 7.0853-18.179 9.338-23.786 2.2528-5.6067 6.2781-17.318 8.9448-26.025 2.6676-8.707 6.3593-18.136 8.2061-20.954 7.9162-12.082 18.554-1.9989 27.077 25.663 3.4199 11.101 10.162 30.142 14.983 42.313 4.8209 12.172 8.7647 23.541 8.7647 25.265 0 1.7241 3.6974 6.1009 8.2166 9.7257 6.5359 5.2434 7.894 7.6042 6.6432 11.546-1.4877 4.6901-2.8071 4.9432-24.64 4.7294-12.687-.12304-25.61-.9335-28.719-1.7983zm-9.0731-51.026c0-6.88-2.1486-12.644-4.715-12.644-2.1511 0-8.8772 11.93-8.8772 15.745 0 1.3078 3.0583 2.3778 6.796 2.3778 5.6775 0 6.796-.90172 6.796-5.478z"/>
</svg>


