<?xml version="1.0" encoding="UTF-8" standalone="no"?>
<svg
   xmlns:dc="http://purl.org/dc/elements/1.1/"
   xmlns:cc="http://creativecommons.org/ns#"
   xmlns:rdf="http://www.w3.org/1999/02/22-rdf-syntax-ns#"
   xmlns:svg="http://www.w3.org/2000/svg"
   xmlns="http://www.w3.org/2000/svg"
   id="svg8"
   version="1.1"
   viewBox="0 0 210 297"
   height="297mm"
   width="210mm">
  <defs
     id="defs2" />
  <metadata
     id="metadata5">
    <rdf:RDF>
      <cc:Work
         rdf:about="">
        <dc:format>image/svg+xml</dc:format>
        <dc:type
           rdf:resource="http://purl.org/dc/dcmitype/StillImage" />
        <dc:title></dc:title>
      </cc:Work>
    </rdf:RDF>
  </metadata>
  <g
     id="layer1">
    <g
       id="g123">
      <path
         id="path141"
         d="m 76.870312,290.92604 c 0.106224,-0.0425 0.233143,-0.0373 0.28204,0.0116 0.0489,0.0489 -0.03801,0.0837 -0.193136,0.0773 -0.171424,-0.007 -0.206291,-0.0419 -0.0889,-0.0889 z m -0.63459,-0.19378 c -0.05002,-0.0809 -0.02473,-0.14715 0.05621,-0.14715 0.08093,0 0.188076,0.0662 0.238095,0.14715 0.05002,0.0809 0.02473,0.14715 -0.05621,0.14715 -0.08093,0 -0.188076,-0.0662 -0.238095,-0.14715 z m 1.545088,0 c -0.342459,-0.10967 -0.345601,-0.11883 -0.04547,-0.13248 0.177323,-0.008 0.363331,0.0515 0.413351,0.13248 0.05002,0.0809 0.07048,0.14054 0.04547,0.13248 -0.02501,-0.008 -0.211018,-0.0677 -0.413351,-0.13248 z m -1.10299,-0.25597 c -0.410308,-0.10317 -0.875785,-0.50641 -0.924498,-0.8009 -0.03611,-0.21829 0.115928,-0.24436 1.286774,-0.22073 0.772296,0.0156 1.326099,0.0884 1.323841,0.17396 -0.0065,0.24779 -0.346304,0.60661 -0.656702,0.69353 -0.161867,0.0453 -0.39363,0.11517 -0.51503,0.1552 -0.1214,0.04 -0.352873,0.0396 -0.514385,-10e-4 z m -29.136601,-1.9513 c 0.05002,-0.0809 0.120146,-0.14715 0.155836,-0.14715 0.03569,0 0.06489,0.0662 0.06489,0.14715 0,0.0809 -0.07013,0.14715 -0.155836,0.14715 -0.08571,0 -0.11491,-0.0662 -0.06489,-0.14715 z m 0.63459,0.0466 c 0.106224,-0.0425 0.233143,-0.0373 0.28204,0.0116 0.0489,0.0489 -0.03802,0.0837 -0.193136,0.0773 -0.171424,-0.007 -0.206291,-0.0419 -0.0889,-0.0889 z m 10.23008,-0.14379 c 0,-0.13016 0.07605,-0.14055 0.269778,-0.0369 0.148377,0.0794 0.269777,0.16097 0.269777,0.18125 0,0.0203 -0.1214,0.0369 -0.269777,0.0369 -0.148378,0 -0.269778,-0.0815 -0.269778,-0.18124 z M 46.6478,288.21989 c 0,-0.15593 0.05203,-0.28351 0.115619,-0.28351 0.06359,0 0.115619,0.0954 0.115619,0.21205 0,0.11662 -0.05203,0.2442 -0.115619,0.2835 -0.06359,0.0393 -0.115619,-0.0561 -0.115619,-0.21204 z m 1.380857,0.0574 c 0.106224,-0.0425 0.233144,-0.0373 0.282041,0.0116 0.0489,0.0489 -0.03802,0.0837 -0.193136,0.0773 -0.171424,-0.007 -0.206292,-0.0419 -0.0889,-0.0889 z m -0.102491,-0.38641 c -0.0094,-0.14641 -0.08329,-0.22527 -0.164221,-0.17525 -0.08093,0.05 -0.147151,-0.008 -0.147151,-0.1287 0,-0.12835 0.163468,-0.23899 0.393318,-0.2662 0.216326,-0.0256 0.425748,-0.14588 0.465384,-0.26728 0.05635,-0.17258 0.02672,-0.18458 -0.135803,-0.055 -0.124633,0.0994 -0.325715,0.11825 -0.502172,0.0471 -0.336747,-0.13573 -0.33538,-0.13645 0.40402,-0.21426 0.541932,-0.057 0.550565,-0.05 0.51503,0.42235 -0.03046,0.4049 -0.08603,0.47085 -0.35364,0.41981 -0.217428,-0.0415 -0.33959,0.0252 -0.387595,0.21151 -0.06601,0.25621 -0.07109,0.25655 -0.08717,0.006 z m 15.176302,-0.0584 c -0.182099,-0.0351 -0.33109,-0.13276 -0.33109,-0.21706 0,-0.16854 0.9478,-0.0378 1.324362,0.18271 0.235936,0.13815 -0.349289,0.15838 -0.993272,0.0344 z m -4.230599,-0.54587 c 0.497921,-0.39924 0.584474,-0.38951 0.444973,0.05 -0.06646,0.20942 -0.221002,0.30517 -0.491678,0.30467 h -0.394749 l 0.441454,-0.35396 z m -5.959628,0.15043 c 0,-0.0318 0.102766,-0.0973 0.22837,-0.14547 0.130953,-0.0503 0.190019,-0.0256 0.138466,0.0578 -0.08642,0.13982 -0.366836,0.20681 -0.366836,0.0876 z m -2.007704,-0.45929 c -0.05096,-0.1328 0.0013,-0.33542 0.116139,-0.45025 0.180295,-0.18029 0.212864,-0.15965 0.238597,0.15127 0.03536,0.4273 -0.222194,0.64439 -0.354736,0.29898 z m 1.161584,0.11507 c -0.673456,-0.0606 -0.765768,-0.18179 -0.380736,-0.49963 0.190736,-0.15744 0.2583,-0.16141 0.306564,-0.018 0.03405,0.10117 0.214852,0.18394 0.401781,0.18394 0.186931,0 0.377987,0.0993 0.424574,0.22073 0.04659,0.1214 0.03711,0.20916 -0.02104,0.19502 -0.05816,-0.0141 -0.387173,-0.0511 -0.731139,-0.082 z m 2.661661,-0.21291 c -0.311009,-0.34366 -0.172024,-0.49397 0.226575,-0.24504 0.240642,0.15029 0.342975,0.15244 0.485213,0.0102 0.259009,-0.25902 0.415697,-0.22232 0.415697,0.0973 0,0.40075 -0.800864,0.49841 -1.127485,0.1375 z m -5.547862,-0.0464 c 0.04641,-0.12093 0.143657,-0.18323 0.216108,-0.13846 0.207768,0.12841 0.153625,0.35835 -0.08438,0.35835 -0.131271,0 -0.182984,-0.0863 -0.131732,-0.21989 z m 0.74155,-0.0549 c 0.06117,-0.23391 0.124592,-0.25032 0.42653,-0.11036 0.478773,0.22193 0.44881,0.38514 -0.07071,0.38514 -0.345096,0 -0.413803,-0.0531 -0.355824,-0.27478 z m 3.064347,-0.0195 c -0.231961,-0.2563 -0.236025,-0.2943 -0.03149,-0.2943 0.129167,0 0.279707,0.0726 0.334534,0.16129 0.05483,0.0887 0.290499,0.13329 0.523714,0.0991 0.285484,-0.0419 0.424029,0.002 0.424029,0.13301 0,0.31624 -0.942496,0.24159 -1.250787,-0.0991 z m 4.193812,0.0991 c 0,-0.13323 0.140207,-0.17467 0.441454,-0.13045 0.242799,0.0356 0.441453,0.12349 0.441453,0.19524 0,0.0718 -0.198654,0.13045 -0.441453,0.13045 -0.268693,0 -0.441454,-0.0764 -0.441454,-0.19524 z M 189.17434,234.37169 c -0.14681,-0.0938 -0.15914,-0.14178 -0.0368,-0.14328 0.10116,-0.001 0.18394,-0.0724 0.18394,-0.15808 0,-0.0857 -0.0552,-0.12174 -0.12263,-0.08 -0.0675,0.0417 -0.12263,-0.0238 -0.12263,-0.14548 0,-0.19182 0.028,-0.19327 0.21035,-0.0109 0.28334,0.28334 0.18993,0.73087 -0.11225,0.53781 z m 0.18964,-0.83567 c -0.0534,-0.13925 -0.0186,-0.2743 0.0791,-0.30687 0.096,-0.032 0.13513,-0.12196 0.087,-0.19992 -0.0557,-0.0902 -0.15195,-0.0883 -0.26448,0.005 -0.12686,0.10529 -0.18298,0.0657 -0.19847,-0.14001 -0.0264,-0.35059 0.0757,-0.36095 0.42676,-0.0433 0.2339,0.21167 0.2691,0.21403 0.2691,0.018 0,-0.12403 0.0852,-0.2962 0.18929,-0.38262 0.1448,-0.12017 0.1963,-0.0725 0.21908,0.20271 0.0197,0.23809 -0.0465,0.35982 -0.19574,0.35982 -0.12405,0 -0.21478,0.0828 -0.20165,0.18394 0.0728,0.56101 -0.22615,0.7821 -0.40995,0.30313 z m 0.0296,-1.07807 c -0.0508,-0.0823 -0.17062,-0.10475 -0.26619,-0.05 -0.0956,0.0548 -0.12093,0.0416 -0.0564,-0.0292 0.0646,-0.0708 0.27939,-0.1374 0.47736,-0.14796 0.28579,-0.0153 0.3261,0.0216 0.19566,0.17871 -0.19703,0.23742 -0.23077,0.24208 -0.35047,0.0484 z M 28.153947,175.38767 c -0.03916,-0.14974 0.04985,-0.43117 0.1978,-0.62539 l 0.269003,-0.35312 -0.03102,0.4378 c -0.0264,0.37256 0.02197,0.43834 0.324592,0.44146 0.195588,0.002 0.38535,0.0928 0.421692,0.20187 0.05221,0.15663 0.0026,0.16427 -0.236322,0.0364 -0.199415,-0.10673 -0.333454,-0.11158 -0.393589,-0.0143 -0.149264,0.24152 -0.475658,0.16778 -0.552151,-0.12473 z m 0.47833,0.0696 c 0,-0.0306 -0.100843,-0.13925 -0.224096,-0.24154 -0.187375,-0.15551 -0.208907,-0.1464 -0.131407,0.0556 0.07915,0.20626 0.355503,0.35084 0.355503,0.18597 z m 0.966788,0.0722 c -0.04435,-0.0718 0.03451,-0.22075 0.175254,-0.33109 0.236439,-0.18535 0.239112,-0.17893 0.03517,0.0844 -0.20143,0.26015 -0.197546,0.27638 0.04443,0.18563 0.15929,-0.0597 0.229263,-0.0414 0.175254,0.046 -0.11168,0.18071 -0.323135,0.18806 -0.430107,0.015 z m -1.725533,-0.12703 c -0.0879,-0.42202 -0.03453,-0.87065 0.103583,-0.87065 0.09056,0 0.164658,0.0883 0.164658,0.19621 0,0.10791 -0.06291,0.1962 -0.13979,0.1962 -0.07688,0 -0.105155,0.13243 -0.06283,0.2943 0.04233,0.16187 0.05005,0.2943 0.01716,0.2943 -0.03289,0 -0.07014,-0.0497 -0.08279,-0.11036 z m 1.543551,-0.41114 c 0,-0.11784 0.05518,-0.21425 0.122627,-0.21425 0.06744,0 0.122626,0.0623 0.122626,0.13846 0,0.0762 -0.05518,0.17257 -0.122626,0.21426 -0.06744,0.0417 -0.122627,-0.0206 -0.122627,-0.13847 z m -0.679062,-0.202 c 0.04273,-0.12814 0.242246,-0.37363 0.443374,-0.54553 0.26992,-0.23069 0.317022,-0.34263 0.179852,-0.4274 -0.120832,-0.0747 -0.14911,-0.0554 -0.08084,0.055 0.06016,0.0973 0.01751,0.16989 -0.09989,0.16989 -0.112687,0 -0.204886,-0.0957 -0.204886,-0.21255 0,-0.11691 0.03863,-0.20839 0.08584,-0.2033 0.271196,0.0292 0.461156,-0.0417 0.395651,-0.14767 -0.09387,-0.15189 0.451636,-0.12202 0.606885,0.0332 0.06235,0.0624 0.04714,0.1 -0.03379,0.0837 -0.338192,-0.0682 -0.500538,0.0189 -0.421093,0.22589 0.04659,0.1214 0.147743,0.22073 0.224795,0.22073 0.07705,0 0.09336,-0.0828 0.03624,-0.18394 -0.07679,-0.13603 -0.05797,-0.14177 0.07225,-0.0221 0.133983,0.12315 0.05351,0.28444 -0.336481,0.67444 -0.53734,0.53733 -1.00397,0.68766 -0.867907,0.27958 z m 1.120516,-0.0794 c 0,-0.11783 0.05626,-0.17948 0.125027,-0.13698 0.06876,0.0425 0.08693,0.13891 0.04036,0.21425 -0.118989,0.19254 -0.165392,0.17086 -0.165392,-0.0773 z M 141.04461,69.549875 c -0.006,-0.113711 -0.0335,-0.322943 -0.0607,-0.464961 -0.0298,-0.1559 0.0137,-0.219221 0.10984,-0.159801 0.10113,0.0625 0.12495,0.0091 0.0653,-0.146451 -0.10591,-0.276008 0.11716,-0.336401 0.27847,-0.07539 0.0576,0.09321 -0.0174,0.258757 -0.16659,0.367878 -0.14923,0.109123 -0.19636,0.198404 -0.10474,0.198404 0.0916,0 0.20573,-0.06333 0.25357,-0.140725 0.0478,-0.0774 0.18379,-0.103568 0.30214,-0.05816 0.11834,0.04541 0.17581,0.146254 0.1277,0.224091 -0.0481,0.07784 -0.12512,0.103862 -0.17115,0.05783 -0.046,-0.04603 -0.20494,0.02605 -0.35314,0.160168 -0.21556,0.19507 -0.27171,0.202494 -0.28072,0.03711 z m 0.37914,0.01398 c 0.05,-0.08093 0.12014,-0.147152 0.15583,-0.147152 0.0357,0 0.0649,0.06622 0.0649,0.147152 0,0.08093 -0.0701,0.147151 -0.15583,0.147151 -0.0857,0 -0.11491,-0.06622 -0.0649,-0.147151 z M 57.621083,49.546661 c 0,-0.07839 0.09933,-0.142533 0.220726,-0.142533 0.1214,0 0.220727,0.02602 0.220727,0.05783 0,0.03181 -0.09933,0.09595 -0.220727,0.142533 -0.121399,0.04659 -0.220726,0.02056 -0.220726,-0.05783 z m 0.220726,-0.448518 c 0.251631,-0.119313 0.23512,-0.131445 -0.113876,-0.08367 -0.224496,0.03073 -0.449937,-0.01168 -0.500978,-0.09427 -0.05739,-0.09286 -0.01844,-0.104195 0.102095,-0.0297 0.136171,0.08416 0.169985,0.05554 0.112224,-0.09499 -0.05818,-0.151619 0.02014,-0.215436 0.264391,-0.215436 0.190883,0 0.316015,0.03105 0.278069,0.06899 -0.03794,0.03795 0.02787,0.176021 0.146254,0.306834 0.192977,0.213239 0.173982,0.240114 -0.183619,0.259812 -0.35513,0.01956 -0.366593,0.0067 -0.10456,-0.117575 z M 168.09182,44.725429 c -0.25909,-0.156109 -0.26789,-0.178701 -0.0419,-0.10755 0.28331,0.08921 0.28331,0.08694 0,-0.235857 -0.17307,-0.197201 -0.19888,-0.275724 -0.0653,-0.198814 0.18305,0.105427 0.18956,0.0886 0.0381,-0.09861 -0.10047,-0.124149 -0.1391,-0.269296 -0.0858,-0.32255 0.0532,-0.05325 -0.0268,-0.09682 -0.17785,-0.09682 -0.20301,0 -0.23162,-0.04307 -0.1096,-0.165083 0.22863,-0.228634 0.0673,-0.570673 -0.26912,-0.570673 -0.1532,0 -0.27856,-0.07013 -0.27856,-0.155837 0,-0.08571 0.0828,-0.106108 0.18394,-0.04533 0.12499,0.07509 0.11921,0.03071 -0.018,-0.138467 -0.11109,-0.136936 -0.15264,-0.248974 -0.0924,-0.248974 0.0603,0 0.0278,-0.0986 -0.0722,-0.219106 -0.10001,-0.120509 -0.2571,-0.174016 -0.3491,-0.118905 -0.10416,0.06239 -0.0983,0.01503 0.0154,-0.125523 0.2111,-0.260865 0.10498,-0.419373 -0.28077,-0.419373 -0.14837,0 -0.26977,-0.07013 -0.26977,-0.155837 0,-0.08571 0.0828,-0.11074 0.18394,-0.05562 0.10117,0.05512 -0.0147,-0.09825 -0.25751,-0.340809 -0.2428,-0.242561 -0.50135,-0.405952 -0.57456,-0.363092 -0.0732,0.04286 -0.0828,-0.0034 -0.0214,-0.102855 0.12786,-0.20689 -0.45186,-0.89475 -0.75409,-0.89475 -0.10729,0 -0.17853,-0.06079 -0.1583,-0.1351 0.061,-0.224147 -1.09224,-1.358152 -1.30012,-1.278384 -0.12421,0.04766 -0.16315,-0.0041 -0.10907,-0.145074 0.0572,-0.149049 -0.0629,-0.274715 -0.37537,-0.392645 -0.25272,-0.09539 -0.45949,-0.216861 -0.45949,-0.269934 0,-0.05307 -0.17261,-0.0965 -0.3836,-0.0965 -0.25598,0 -0.31951,0.0396 -0.19095,0.119048 0.10594,0.06548 0.25182,0.08246 0.32415,0.03775 0.0723,-0.04471 0.10862,0.02937 0.0806,0.164632 -0.028,0.13526 -0.11715,0.225875 -0.19808,0.201367 -0.0809,-0.02451 -0.135,-0.08104 -0.12014,-0.125626 0.0149,-0.04459 -0.11061,-0.167024 -0.27885,-0.272086 -0.26731,-0.166946 -0.29411,-0.160402 -0.21263,0.05192 0.0621,0.161857 0.0363,0.207776 -0.0773,0.137582 -0.11168,-0.06903 -0.13999,-0.02593 -0.0821,0.124993 0.0605,0.157766 0.0118,0.219101 -0.15484,0.19465 -0.338,-0.04961 -0.32933,-0.744064 0.009,-0.746151 0.13848,-8.83e-4 0.25236,-0.05052 0.25305,-0.110363 0.006,-0.497925 -0.0144,-0.535003 -0.24361,-0.447067 -0.16354,0.06275 -0.20988,0.03734 -0.13951,-0.07651 0.0688,-0.111377 0.0262,-0.140094 -0.12302,-0.08284 -0.12559,0.0482 -0.22836,0.157804 -0.22836,0.243568 0,0.08576 -0.0425,0.113387 -0.0945,0.06139 -0.052,-0.052 -0.01,-0.196987 0.0944,-0.322196 0.15821,-0.190625 0.15149,-0.21328 -0.0413,-0.139294 -0.14429,0.05537 -0.29133,-0.02578 -0.39387,-0.217359 -0.0899,-0.168143 -0.23556,-0.305715 -0.32356,-0.305715 -0.10491,0 -0.0969,0.07599 0.0232,0.220727 0.15003,0.180777 0.13997,0.220727 -0.0556,0.220727 -0.1313,0 -0.23089,-0.04966 -0.22131,-0.110364 0.071,-0.449451 -0.0386,-0.654174 -0.31194,-0.582703 -0.16197,0.04236 -0.25739,0.01697 -0.21204,-0.05641 0.12216,-0.197663 -0.13981,-0.161762 -0.36859,0.05051 -0.1622,0.150502 -0.1809,0.134892 -0.1029,-0.08587 0.0641,-0.181522 0.0351,-0.24773 -0.0887,-0.202333 -0.10123,0.03711 -0.16375,0.153182 -0.13896,0.257932 0.0345,0.145791 -0.002,0.150927 -0.15801,0.0219 -0.15327,-0.127213 -0.25283,-0.124299 -0.40587,0.01188 -0.17106,0.152225 -0.17251,0.140426 -0.009,-0.07546 0.10643,-0.140742 0.25223,-0.219608 0.324,-0.175255 0.0718,0.04435 0.13048,0.01051 0.13048,-0.0752 0,-0.08571 -0.094,-0.155837 -0.20881,-0.155837 -0.11484,0 -0.39627,-0.09528 -0.62539,-0.211724 -1.11053,-0.564403 -1.5164,-0.68359 -1.80389,-0.529727 -0.20573,0.110105 -0.3169,0.105388 -0.39232,-0.01664 -0.0697,-0.112819 -0.0402,-0.130111 0.0874,-0.05124 0.12746,0.07877 0.1571,0.06157 0.0876,-0.05084 -0.0577,-0.09344 -0.25008,-0.168874 -0.4274,-0.167635 -0.26212,0.0018 -0.28113,0.02893 -0.10168,0.144899 0.18782,0.121385 0.18165,0.142981 -0.0414,0.144898 -0.14417,0.0012 -0.29971,-0.09566 -0.34563,-0.215332 -0.0819,-0.213455 -0.53616,-0.23263 -0.73766,-0.03114 -0.0562,0.05622 -0.22346,-0.0075 -0.37166,-0.141642 -0.14821,-0.134119 -0.26946,-0.171281 -0.26946,-0.08258 0,0.0887 0.0662,0.202197 0.14715,0.252217 0.0809,0.05002 0.14715,0.157985 0.14715,0.239923 0,0.08194 -0.0993,0.04965 -0.22072,-0.07175 -0.1214,-0.1214 -0.22073,-0.295583 -0.22073,-0.387074 0,-0.09149 -0.0664,-0.125311 -0.14755,-0.07516 -0.0979,0.06051 -0.0952,0.199586 0.008,0.413351 0.13331,0.275893 0.128,0.288252 -0.037,0.08606 -0.10593,-0.129857 -0.35791,-0.28161 -0.55993,-0.33723 l -0.36731,-0.101127 0.34835,0.204496 c 0.29931,0.175703 0.31377,0.217768 0.10272,0.298756 -0.1351,0.05184 -0.20947,0.03574 -0.16526,-0.03579 0.0442,-0.07153 -0.024,-0.170094 -0.15154,-0.219043 -0.35558,-0.136446 -0.40689,-0.108094 -0.21746,0.120157 0.14236,0.171534 0.11944,0.19499 -0.12748,0.130422 -0.16558,-0.0433 -0.26478,-0.137419 -0.22045,-0.209151 0.0951,-0.153795 -0.13586,-0.17658 -0.28438,-0.02806 -0.0563,0.0563 -0.18321,0.116119 -0.28203,0.132934 -0.0988,0.01682 -0.27901,0.05923 -0.40041,0.09425 -0.1214,0.03502 -0.17809,0.03825 -0.12599,0.0072 0.0521,-0.03108 0.0609,-0.185775 0.0196,-0.343761 -0.0413,-0.157988 -0.003,-0.287248 0.0846,-0.287248 0.0878,0 0.12158,0.09933 0.075,0.220727 -0.10829,0.28219 0.0888,0.281559 0.49299,-0.0016 0.20156,-0.14118 0.35101,-0.167885 0.40955,-0.07318 0.0619,0.100099 0.18781,0.09794 0.38309,-0.0066 0.16001,-0.08564 0.42087,-0.114462 0.57968,-0.06406 0.15881,0.0504 0.28874,0.03401 0.28874,-0.03644 0,-0.07045 -0.39754,-0.135184 -0.88343,-0.143863 -0.48589,-0.0087 -0.85047,0.03756 -0.81018,0.102749 0.0403,0.06519 -0.0223,0.155203 -0.13913,0.200028 -0.14545,0.05581 -0.18514,0.01049 -0.12594,-0.143777 0.0711,-0.185347 -0.002,-0.208257 -0.41216,-0.129252 -0.27424,0.05282 -0.78682,0.102496 -1.13908,0.110402 l -0.64047,0.01438 0.34617,0.262354 0.34617,0.262355 -0.32726,-0.02386 c -0.17998,-0.01313 -0.36046,-0.110399 -0.40105,-0.216172 -0.0419,-0.109232 -0.25909,-0.178195 -0.50271,-0.159633 -0.28238,0.02152 -0.40392,0.09782 -0.35575,0.22334 0.0926,0.241343 0.36419,0.244238 0.63054,0.0067 0.17549,-0.156482 0.17719,-0.145499 0.0114,0.07358 -0.25498,0.336966 -0.53544,0.326261 -0.78495,-0.02997 -0.19961,-0.284992 -0.20552,-0.284949 -0.6823,0.005 -0.26451,0.160862 -0.43862,0.22401 -0.3869,0.140328 0.11577,-0.187325 0.006,-0.193779 -0.33,-0.01934 -0.14054,0.07304 -0.5535,0.216995 -0.9177,0.319889 -0.3642,0.102895 -0.72509,0.241783 -0.80197,0.308644 -0.0769,0.06686 -0.25899,0.121565 -0.40467,0.121565 -0.14568,0 -0.26487,0.07013 -0.26487,0.155836 0,0.08571 -0.0763,0.108702 -0.16948,0.05109 -0.0934,-0.05771 -0.26141,0.02099 -0.37421,0.175254 -0.11261,0.153999 -0.25155,0.279997 -0.30877,0.279997 -0.0572,0 -0.0837,0.06087 -0.0589,0.135272 0.0248,0.0744 -0.058,0.04974 -0.18393,-0.05481 -0.19196,-0.159312 -0.22903,-0.149689 -0.22903,0.05946 0,0.161006 0.0914,0.229555 0.25751,0.193217 0.14163,-0.03097 0.23932,-0.140078 0.21708,-0.242454 -0.0222,-0.102376 0.0232,-0.146802 0.101,-0.09873 0.2315,0.14307 0.11846,0.663755 -0.20269,0.933673 -0.29789,0.250368 -0.29798,0.249985 -0.019,-0.07951 l 0.28033,-0.331091 h -0.45965 c -0.33767,0 -0.43826,-0.05572 -0.37906,-0.20999 0.059,-0.153676 -0.002,-0.188375 -0.22764,-0.129389 -0.16952,0.04433 -0.34373,0.138068 -0.38714,0.208304 -0.0434,0.07024 0.0128,0.0925 0.12492,0.04948 0.12187,-0.04677 0.20384,0.01741 0.20384,0.159585 0,0.152599 -0.0908,0.214057 -0.25349,0.17152 -0.13941,-0.03646 -0.34359,-0.0019 -0.45371,0.07671 -0.15406,0.110022 -0.14194,0.124311 0.0526,0.06197 0.13904,-0.04457 0.28345,-0.03145 0.3209,0.02915 0.0374,0.0606 -0.0585,0.11971 -0.21312,0.13136 -0.15467,0.01165 -0.32152,-0.04404 -0.37078,-0.12375 -0.0569,-0.09201 -0.1648,-0.08251 -0.29558,0.02604 -0.11331,0.09403 -0.16871,0.231327 -0.12312,0.305094 0.0456,0.07377 0.0283,0.118442 -0.0384,0.09927 -0.0667,-0.01917 -0.2634,0.05703 -0.43708,0.169336 -0.26762,0.173053 -0.28498,0.234976 -0.11384,0.40612 0.1519,0.1519 0.2749,0.162886 0.4964,0.04434 0.23323,-0.124817 0.27828,-0.115412 0.21664,0.04522 -0.10199,0.265792 -0.91968,0.231196 -1.0911,-0.04616 -0.10417,-0.16856 -0.16457,-0.127538 -0.28724,0.195095 -0.0955,0.25115 -0.22087,0.368019 -0.32548,0.303368 -0.10553,-0.06522 -0.13028,-0.04064 -0.0652,0.06472 0.0577,0.09342 0.031,0.169873 -0.0595,0.169873 -0.0905,0 -0.1236,0.06622 -0.0736,0.147152 0.05,0.08093 -0.0162,0.147151 -0.14715,0.147151 -0.13139,0 -0.19456,0.07044 -0.14095,0.157182 0.0534,0.08645 0.19321,0.120319 0.31063,0.07526 0.12381,-0.04751 0.17417,-0.01831 0.11988,0.06953 -0.0515,0.0833 -0.21123,0.114116 -0.35501,0.06849 -0.14625,-0.04642 -0.41419,0.04075 -0.60823,0.197874 -0.29975,0.242719 -0.31966,0.313579 -0.1467,0.521993 0.11008,0.132632 0.24037,0.200922 0.28953,0.151754 0.13278,-0.132778 0.11718,-0.420118 -0.0284,-0.522633 -0.0702,-0.04944 -0.0206,-0.130935 0.1101,-0.181106 0.1913,-0.07341 0.2248,-0.01276 0.17158,0.310612 -0.0364,0.221008 -0.0794,0.434943 -0.0957,0.47541 -0.0162,0.04047 -0.017,0.139793 -0.002,0.220726 0.0154,0.08093 -0.0532,0.06748 -0.15227,-0.0299 -0.12525,-0.123062 -0.26307,-0.132701 -0.45196,-0.03161 -0.1829,0.09788 -0.27176,0.09563 -0.27176,-0.0069 0,-0.08378 -0.0621,-0.152328 -0.1379,-0.152328 -0.0759,0 -0.10029,0.231763 -0.0543,0.515029 0.0841,0.518392 -0.0517,0.65372 -0.35332,0.35208 -0.11916,-0.119164 -0.21262,-0.06974 -0.34782,0.183939 -0.15918,0.29867 -0.15527,0.322491 0.0281,0.171367 0.14988,-0.123523 0.27689,-0.13031 0.42876,-0.02291 0.17875,0.126417 0.17239,0.138706 -0.037,0.07159 -0.13904,-0.04457 -0.29261,-0.01663 -0.34126,0.06209 -0.0486,0.07872 -0.1426,0.109664 -0.20877,0.06877 -0.0662,-0.04089 -0.20214,0.02424 -0.30215,0.144751 -0.10001,0.120508 -0.12797,0.219107 -0.0621,0.219107 0.0658,0 -0.009,0.09722 -0.16592,0.216048 -0.15711,0.118824 -0.22787,0.218151 -0.15726,0.220727 0.0706,0.0026 0.0459,0.104006 -0.0548,0.225406 -0.10075,0.1214 -0.12541,0.221741 -0.0548,0.22298 0.0706,0.0012 0.0385,0.05918 -0.0713,0.128757 -0.13918,0.08819 -0.15032,0.156993 -0.0368,0.227159 0.0896,0.05536 0.16286,0.03053 0.16286,-0.05518 0,-0.08571 0.0552,-0.155836 0.12263,-0.155836 0.0674,0 0.12262,0.09642 0.12262,0.214254 0,0.11784 -0.0552,0.18015 -0.12262,0.138466 -0.0675,-0.04168 -0.12263,-0.0057 -0.12263,0.08005 0,0.08571 0.11588,0.161065 0.25752,0.167454 0.15535,0.007 0.18417,0.04118 0.0727,0.08614 -0.10167,0.04099 -0.15424,0.124053 -0.11683,0.184584 0.0374,0.06053 -0.0312,0.110058 -0.15257,0.110058 -0.12132,0 -0.18856,-0.08345 -0.14942,-0.185443 0.0391,-0.101993 -0.0408,-0.270874 -0.17761,-0.37529 -0.13682,-0.104416 -0.20013,-0.132358 -0.14069,-0.0621 0.0594,0.07026 -0.007,0.217233 -0.14715,0.326601 -0.24176,0.188353 -0.24164,0.194116 0.002,0.109168 0.14163,-0.04932 0.25751,-0.03241 0.25751,0.03758 0,0.06999 -0.47969,0.13384 -1.06599,0.141883 -0.81242,0.01114 -1.1128,-0.04163 -1.2628,-0.221877 -0.17675,-0.212409 -0.18774,-0.208149 -0.10785,0.04182 0.0753,0.23557 0.0545,0.249757 -0.13514,0.09235 -0.25206,-0.209199 -0.30179,-0.591401 -0.0769,-0.591401 0.0809,0 0.14716,-0.07013 0.14716,-0.155836 0,-0.08571 -0.0828,-0.107436 -0.18394,-0.04828 -0.10117,0.05916 -0.0534,-0.04116 0.10623,-0.222929 0.17825,-0.203007 0.21417,-0.312094 0.0931,-0.282809 -0.10837,0.02622 -0.21654,-0.06821 -0.24036,-0.209841 -0.0401,-0.238645 0.10558,-0.328731 0.43219,-0.267172 0.17544,0.03307 0.38355,-0.309208 0.28498,-0.468703 -0.0423,-0.06849 -0.18311,-0.03855 -0.31284,0.06655 -0.19725,0.159791 -0.21525,0.156866 -0.10992,-0.01786 0.0928,-0.153927 0.0654,-0.18569 -0.10419,-0.120628 -0.18122,0.06954 -0.23015,-0.01908 -0.23015,-0.416856 0,-0.277847 0.0534,-0.538192 0.11872,-0.578545 0.0653,-0.04035 0.0869,0.07571 0.0479,0.257925 -0.0658,0.308154 -0.056,0.313194 0.1415,0.07215 0.17595,-0.214798 0.24055,-0.225072 0.37752,-0.06004 0.0909,0.10951 0.12168,0.24268 0.0684,0.295935 -0.0532,0.05325 -0.009,0.09682 0.0994,0.09682 0.10791,0 0.16154,0.03467 0.11916,0.07704 -0.13733,0.137337 -0.56193,-0.103012 -0.46346,-0.262346 0.0572,-0.09261 0.0243,-0.1105 -0.0822,-0.04467 -0.26075,0.161153 -0.12231,0.416227 0.25735,0.474167 0.25559,0.03901 0.37589,-0.05786 0.53152,-0.427976 0.11064,-0.263117 0.14885,-0.544611 0.0849,-0.625545 -0.13569,-0.17178 -0.10786,-0.756373 0.0432,-0.907433 0.0573,-0.05725 0.22761,-0.113196 0.37858,-0.124318 0.27483,-0.02025 0.32941,0.260158 0.0926,0.475676 -0.0693,0.06304 -0.0826,0.03879 -0.0296,-0.0539 0.11641,-0.20366 -0.29721,-0.393213 -0.42099,-0.192932 -0.0478,0.0774 -0.004,0.140726 0.0983,0.140726 0.1441,0 0.14603,0.03924 0.009,0.176581 -0.34096,0.340962 -0.17209,0.42887 0.24851,0.129371 0.23381,-0.166479 0.46879,-0.476785 0.5222,-0.689564 0.0534,-0.212779 0.13265,-0.351316 0.17611,-0.30786 0.1367,0.136698 0.80149,-0.536715 0.72546,-0.734863 -0.0399,-0.103839 -0.0252,-0.181752 0.0326,-0.173138 0.32178,0.04796 0.49497,-0.04384 0.42529,-0.225418 -0.0471,-0.122707 0.0362,-0.236383 0.20559,-0.280686 0.29283,-0.07657 0.25456,-0.543147 -0.0445,-0.543147 -0.0944,0 -0.0895,0.07221 0.0134,0.196201 0.12223,0.147278 0.11252,0.196203 -0.0389,0.196203 -0.33255,0 -0.15945,-0.464612 0.17977,-0.482491 0.17231,-0.0091 0.278,0.04058 0.23487,0.110363 -0.18992,0.307304 0.19988,0.08507 0.60162,-0.343001 0.24253,-0.258431 0.33834,-0.431137 0.21289,-0.383789 -0.16254,0.06135 -0.22809,-0.006 -0.22809,-0.234349 0,-0.262937 0.0852,-0.320434 0.4748,-0.320434 0.26114,0 0.44197,0.05311 0.40186,0.11802 -0.0401,0.06491 -0.11803,0.09211 -0.17314,0.06046 -0.0551,-0.03166 -0.23263,-0.0043 -0.3945,0.06083 -0.26948,0.108411 -0.26395,0.119268 0.0657,0.128737 0.38741,0.01112 1.47942,-0.666644 1.47942,-0.918227 0,-0.08404 -0.15135,-0.0106 -0.33634,0.163191 -0.31763,0.298393 -0.33635,0.300423 -0.33635,0.03645 0,-0.15374 0.0549,-0.245578 0.12206,-0.204086 0.0671,0.04149 0.20194,0.01202 0.29956,-0.06548 0.0976,-0.07751 0.29369,-0.122129 0.43571,-0.09916 0.14202,0.02297 0.22088,-0.01865 0.17526,-0.09247 -0.0456,-0.07383 0.0432,-0.134234 0.19741,-0.134234 0.41871,0 1.20851,-0.434123 1.20851,-0.664274 0,-0.110696 0.0655,-0.241722 0.14546,-0.291168 0.084,-0.0519 0.11316,0.02217 0.069,0.175254 -0.0431,0.149618 -5.9e-4,0.120888 0.0977,-0.06593 0.0958,-0.1821 0.23419,-0.331091 0.30753,-0.331091 0.0734,0 0.1012,-0.05203 0.0619,-0.115618 -0.0393,-0.06359 0.0561,-0.11562 0.21204,-0.11562 0.38472,0 0.35884,0.177212 -0.0412,0.281816 -0.17856,0.04669 -0.28863,0.120935 -0.24459,0.164977 0.11895,0.118942 1.01071,-0.221442 1.01071,-0.385785 0,-0.07779 0.0524,-0.109091 0.11632,-0.06955 0.064,0.03954 0.32974,-0.03147 0.59058,-0.1578 0.37387,-0.181071 0.43916,-0.271979 0.30846,-0.429463 -0.0912,-0.109875 -0.21348,-0.170305 -0.27175,-0.13429 -0.0583,0.03601 -0.10595,-0.02988 -0.10595,-0.146435 0,-0.156314 0.0498,-0.170597 0.18975,-0.05443 0.20325,0.168678 0.55061,0.04371 0.42836,-0.1541 -0.0404,-0.06532 0.14065,-0.09165 0.40226,-0.05851 0.66427,0.08414 0.72753,0.08393 1.10499,-0.0036 0.19523,-0.04528 0.29844,-0.01851 0.24735,0.06416 -0.0482,0.07802 -0.13593,0.11204 -0.1949,0.07559 -0.059,-0.03645 -0.20339,-0.0054 -0.32092,0.06892 -0.34749,0.219825 0.32871,0.173752 0.90875,-0.06192 0.27292,-0.110886 0.57292,-0.173609 0.66667,-0.139383 0.25669,0.09371 0.41252,-0.261357 0.17948,-0.40896 -0.16781,-0.106288 -0.16472,-0.129217 0.0179,-0.132946 0.1962,-0.004 0.1962,-0.02035 0,-0.147151 -0.16735,-0.108147 -0.17296,-0.14319 -0.0232,-0.144898 0.10863,-0.0012 0.36588,0.130183 0.57166,0.292049 0.46089,0.362533 0.88151,0.374737 1.26786,0.03679 0.16192,-0.141633 0.24961,-0.180591 0.19488,-0.08657 -0.0727,0.124891 0.23381,0.164532 1.1378,0.147152 0.68053,-0.01308 1.20666,-0.07345 1.16917,-0.134152 -0.0375,-0.0607 0.0627,-0.110364 0.22258,-0.110364 0.1599,0 0.3172,-0.07943 0.34956,-0.176499 0.0362,-0.108487 0.0969,-0.07719 0.15773,0.08122 0.0591,0.154095 0.0404,0.221568 -0.0466,0.167814 -0.08,-0.04945 -0.14547,-0.02058 -0.14547,0.06415 0,0.08473 0.21521,0.136328 0.47824,0.11467 0.38204,-0.03146 0.47908,-0.104864 0.48243,-0.364895 0.002,-0.179033 0.0519,-0.326055 0.11036,-0.326713 0.42897,-0.0048 0.46632,0.0085 0.31239,0.111419 -0.18765,0.125471 -0.21919,0.648526 -0.0321,0.532923 0.0688,-0.0425 0.0874,-0.138155 0.0414,-0.212568 -0.046,-0.07441 0.0199,-0.09557 0.14642,-0.04703 0.16704,0.0641 0.20511,0.02334 0.13905,-0.148836 -0.0516,-0.134501 -0.0167,-0.237111 0.0806,-0.237111 0.0944,0 0.1336,0.06145 0.0872,0.136557 -0.0464,0.07511 0.0456,0.177823 0.20454,0.228261 0.17522,0.05561 0.25672,0.175609 0.20712,0.304896 -0.054,0.140821 0.0109,0.20925 0.19144,0.201576 0.15283,-0.0065 0.19271,-0.04415 0.0905,-0.08545 -0.13052,-0.05272 -0.14093,-0.152016 -0.0364,-0.34733 0.0875,-0.163519 0.0921,-0.307049 0.0113,-0.356924 -0.0742,-0.04588 -0.16162,-0.0035 -0.19418,0.09418 -0.0416,0.124783 -0.0889,0.129642 -0.15888,0.01634 -0.19086,-0.308815 0.31434,-0.317245 0.58378,-0.0097 0.14924,0.170321 0.18857,0.261275 0.0874,0.20212 -0.10117,-0.05916 -0.18394,-0.03743 -0.18394,0.04828 0,0.08571 0.0641,0.155836 0.14253,0.155836 0.0784,0 0.10832,0.08916 0.0665,0.198132 -0.076,0.198084 -0.0199,0.210812 1.26248,0.286501 0.28327,0.01672 0.583,0.116773 0.66607,0.222346 0.14553,0.184967 0.65829,0.104893 0.65829,-0.102802 0,-0.05505 0.14899,-0.107436 0.33109,-0.116411 0.1821,-0.009 0.24791,0.0157 0.14624,0.05483 -0.10168,0.03913 -0.1479,0.13095 -0.10273,0.204044 0.0452,0.07309 -0.014,0.09603 -0.13134,0.05097 -0.11741,-0.04506 -0.25861,-0.0089 -0.31373,0.08028 -0.14422,0.233359 0.67289,0.0654 0.84497,-0.173685 0.10001,-0.138929 0.11562,-0.124577 0.0588,0.05404 -0.0425,0.133766 0.001,0.339722 0.0965,0.457678 0.22333,0.275547 0.68886,0.439282 0.68886,0.242291 0,-0.08317 0.0673,-0.109625 0.14955,-0.05879 0.0823,0.05083 0.10737,0.160678 0.0558,0.244093 -0.0571,0.09246 0.0281,0.08646 0.21833,-0.01535 0.255,-0.136467 0.31206,-0.125695 0.31206,0.0589 0,0.243013 0.0178,0.251328 0.61848,0.288406 0.31389,0.01938 0.36379,-0.01636 0.23669,-0.169495 -0.12478,-0.150356 -0.10665,-0.173178 0.0805,-0.101359 0.31225,0.119825 0.3066,0.299042 -0.016,0.506453 -0.22142,0.142363 -0.22313,0.155005 -0.0122,0.09018 0.14252,-0.04379 0.28331,0.02354 0.33592,0.160647 0.069,0.179904 0.13144,0.195193 0.26234,0.06428 0.2343,-0.234303 0.35883,-0.215752 0.4684,0.06978 0.0775,0.201962 0.056,0.211065 -0.13141,0.05556 -0.12325,-0.102291 -0.22355,-0.128212 -0.22289,-0.0576 0,0.07061 0.26632,0.27229 0.59032,0.44818 0.32401,0.17589 0.546,0.250072 0.49334,0.164849 -0.0553,-0.08943 -0.009,-0.123545 0.10865,-0.08068 0.11244,0.04085 0.18853,0.146789 0.16911,0.235422 -0.0194,0.08863 0.0964,0.231677 0.25751,0.317875 0.16106,0.0862 0.29283,0.10655 0.29283,0.04523 0,-0.06132 0.10308,0.03568 0.22907,0.215549 0.23764,0.33926 0.6085,0.467597 0.41356,0.143106 -0.076,-0.126507 -0.0333,-0.121301 0.13683,0.01667 0.13606,0.110337 0.21108,0.259327 0.16673,0.33109 -0.0444,0.07176 0.0181,0.130478 0.13885,0.130478 0.12072,0 0.25803,-0.1214 0.30512,-0.269777 0.0471,-0.148379 0.18108,-0.269779 0.29774,-0.269779 0.11666,0 0.17803,0.05518 0.13634,0.122628 -0.11565,0.187114 0.15362,0.146028 0.3536,-0.05396 0.0971,-0.09712 0.18232,-0.146784 0.18936,-0.110364 0.0914,0.474108 0.0905,1.042648 -10e-4,0.893909 -0.0909,-0.1471 -0.13886,-0.13466 -0.21159,0.05491 -0.0517,0.134805 -0.0941,0.267258 -0.0941,0.294338 0,0.02708 0.26487,0.02796 0.5886,0.002 0.32374,-0.02601 0.58861,0.0171 0.58861,0.09579 0,0.07892 -0.14022,0.09857 -0.31273,0.04382 -0.23819,-0.0756 -0.28369,-0.05227 -0.19091,0.09786 0.067,0.108415 0.13062,0.316513 0.14138,0.462442 0.0107,0.14593 0.10212,0.345748 0.20307,0.444042 0.1459,0.142078 0.16858,0.08067 0.11061,-0.299526 -0.0401,-0.263033 -0.029,-0.477228 0.0246,-0.475989 0.22142,0.0051 0.39413,0.240432 0.43038,0.586352 0.0622,0.594241 0.15467,0.735757 0.48055,0.735757 0.16919,0 0.26848,0.06333 0.22064,0.140725 -0.0478,0.0774 -0.20073,0.101637 -0.33978,0.05386 -0.13904,-0.04777 -0.0247,0.08756 0.25403,0.30073 0.51032,0.390257 0.81432,0.481042 0.92831,0.277226 0.0339,-0.0607 0.0434,-0.03243 0.021,0.06282 -0.0618,0.26289 0.3307,0.545954 0.46213,0.333285 0.0767,-0.124131 0.13921,-0.116132 0.23157,0.02964 0.21053,0.332263 0.15057,0.409956 -0.2915,0.377664 -0.24441,-0.01785 -0.39568,-0.101011 -0.35886,-0.197265 0.035,-0.09152 -0.14134,-0.237859 -0.39186,-0.325193 -0.26588,-0.09268 -0.41916,-0.09999 -0.36821,-0.01754 0.048,0.07769 0.19376,0.141254 0.32387,0.141254 0.13011,0 0.19181,0.04475 0.13711,0.09945 -0.11975,0.119756 0.47703,0.784403 0.70145,0.781209 0.0871,-0.0012 0.0598,-0.06453 -0.0606,-0.140639 -0.17547,-0.110949 -0.15846,-0.133832 0.0858,-0.115429 0.16759,0.01262 0.30472,0.106106 0.30472,0.207739 0,0.101633 -0.0552,0.150683 -0.12264,0.108999 -0.0674,-0.04168 -0.12262,0.01424 -0.12262,0.124289 0,0.277536 0.34395,0.991958 0.47824,0.993356 0.0607,5.89e-4 0.11037,0.0721 0.11037,0.15881 0,0.08671 0.10358,0.261247 0.23018,0.387849 0.18642,0.186408 0.26338,0.194297 0.40467,0.04148 0.13294,-0.14378 0.1331,-0.16548 0,-0.09114 -0.29295,0.164475 -0.33258,-0.117186 -0.0662,-0.470358 l 0.25205,-0.334164 -0.0273,0.48543 c -0.015,0.266987 -0.0343,0.572111 -0.0428,0.678054 -0.009,0.113585 -0.0911,0.147279 -0.19953,0.08212 -0.12332,-0.07408 -0.11689,-0.02785 0.0195,0.140268 0.32095,0.395613 0.38281,1.39607 0.10527,1.702745 -0.12968,0.143303 -0.20766,0.288689 -0.17325,0.323078 0.16363,0.163644 -1.43339,0.04312 -1.72045,-0.129843 z M 133.1097,42.128823 c 0,-0.03569 -0.0662,-0.105816 -0.14715,-0.155836 -0.0809,-0.05002 -0.14715,-0.02082 -0.14715,0.06489 0,0.08571 0.0662,0.155836 0.14715,0.155836 0.0809,0 0.14715,-0.0292 0.14715,-0.06489 z m 3.97308,-1.562458 c 0,-0.166643 -0.0633,-0.26385 -0.14072,-0.216014 -0.0774,0.04783 -0.10342,0.184179 -0.0578,0.302988 0.11672,0.304178 0.19855,0.268333 0.19855,-0.08697 z m 0.66218,-0.727072 c -0.05,-0.08093 -0.15325,-0.147151 -0.22941,-0.147151 -0.0761,0 -0.13846,0.06622 -0.13846,0.147151 0,0.08093 0.10323,0.147152 0.22941,0.147152 0.12617,0 0.18848,-0.06622 0.13846,-0.147152 z m 28.71839,-1.949754 c -0.0408,-0.101167 -0.0742,-0.01839 -0.0742,0.183939 0,0.202333 0.0334,0.285105 0.0742,0.183939 0.0408,-0.101167 0.0408,-0.266712 0,-0.367878 z m -5.24775,-0.551818 c 0,-0.08093 -0.0701,-0.147151 -0.15584,-0.147151 -0.0857,0 -0.11491,0.06622 -0.0649,0.147151 0.05,0.08093 0.12015,0.147151 0.15583,0.147151 0.0357,0 0.0649,-0.06622 0.0649,-0.147151 z m 4.56169,-0.05556 c 0,-0.03056 -0.0934,-0.133099 -0.20763,-0.227871 -0.15899,-0.131947 -0.23325,-0.130842 -0.31704,0.0047 -0.0694,0.112234 -0.0472,0.138602 0.0605,0.07204 0.0934,-0.05775 0.16988,-0.03487 0.16988,0.05084 0,0.08571 0.0662,0.155836 0.14716,0.155836 0.0809,0 0.14715,-0.025 0.14715,-0.05556 z m -3.82594,-0.319379 c 0,-0.173843 -0.27822,-0.173512 -0.34496,4.41e-4 -0.0544,0.141673 -0.0104,0.185143 0.13173,0.130562 0.11728,-0.045 0.21323,-0.10394 0.21323,-0.130972 z m 2.57515,-0.507971 c -0.05,-0.08093 0.0162,-0.147151 0.14715,-0.147151 0.13095,0 0.19717,0.06622 0.14715,0.147151 -0.05,0.08093 -0.0279,0.147152 0.0491,0.147152 0.13392,0 0.32218,-0.322874 0.39947,-0.685125 0.0202,-0.0947 -0.18523,-0.03939 -0.46345,0.12477 -0.27486,0.162175 -0.46283,0.354599 -0.41772,0.427609 0.0451,0.07301 0.11515,0.132746 0.15562,0.132746 0.0405,0 0.0326,-0.06622 -0.0174,-0.147152 z m -19.88867,-3.873708 c 0.0532,0.05325 0.0968,0.01957 0.0968,-0.07485 0,-0.09442 -0.0497,-0.176743 -0.11036,-0.182936 -0.0607,-0.0062 -0.22335,-0.03302 -0.36145,-0.05961 -0.1381,-0.02659 -0.33623,0.05424 -0.4403,0.179636 -0.16453,0.19825 -0.14377,0.213567 0.15915,0.117423 0.27182,-0.08627 0.32194,-0.06669 0.22811,0.08914 -0.0978,0.162424 -0.0781,0.165606 0.10548,0.01704 0.12415,-0.100465 0.26929,-0.139092 0.32255,-0.08584 z m 2.71182,-0.715573 c -0.032,-0.09611 -0.13692,-0.200969 -0.23309,-0.233023 -0.10753,-0.03584 -0.14041,0.03143 -0.0854,0.174742 0.10264,0.267479 0.4068,0.323133 0.31851,0.05828 z m 6.36123,-0.266712 c 0,-0.08093 -0.0623,-0.147151 -0.13847,-0.147151 -0.0761,0 -0.17939,0.06622 -0.22941,0.147151 -0.05,0.08093 0.0122,0.147152 0.13847,0.147152 0.12617,0 0.22941,-0.06622 0.22941,-0.147152 z m 13.10808,11.974061 c -0.0167,-0.23831 0.38864,-0.539096 0.57294,-0.425184 0.21485,0.132776 0.0207,0.408257 -0.22205,0.315101 -0.10799,-0.04144 -0.22849,0.0037 -0.2678,0.100333 -0.0485,0.119118 -0.0752,0.122257 -0.0831,0.0098 z m -0.1092,-0.814542 c 0.0141,-0.274816 0.11485,-0.491712 0.24474,-0.527023 0.17865,-0.04857 0.18267,-0.03333 0.021,0.07997 -0.12071,0.08461 -0.16198,0.258761 -0.10437,0.440274 0.0524,0.165159 0.0321,0.339328 -0.0451,0.38704 -0.0794,0.04908 -0.12995,-0.116051 -0.11635,-0.380266 z m 2.74856,-0.887031 c -10e-4,-0.136856 0.064,-0.289755 0.1449,-0.339775 0.18624,-0.115099 0.18624,0.0797 0,0.367878 -0.12293,0.190221 -0.14296,0.186337 -0.1449,-0.0281 z m -3.73797,-0.587428 c 0.0425,-0.06876 0.13892,-0.08693 0.21426,-0.04037 0.19253,0.11899 0.17085,0.165393 -0.0773,0.165393 -0.11784,0 -0.17948,-0.05626 -0.13699,-0.125028 z m -0.18832,-0.334479 c 0,-0.11784 0.0563,-0.179482 0.12503,-0.136983 0.0688,0.0425 0.0869,0.138912 0.0404,0.214254 -0.11899,0.19253 -0.1654,0.170851 -0.1654,-0.07727 z m -32.0986,-0.25663 c -0.25055,-0.250547 -0.21965,-0.348959 0.10957,-0.348959 0.19569,0 0.24261,0.05246 0.14843,0.165945 -0.0757,0.09127 -0.0941,0.209517 -0.0409,0.262771 0.0532,0.05325 0.0659,0.09682 0.0282,0.09682 -0.0378,0 -0.14813,-0.07946 -0.24525,-0.176581 z m 31.24022,-0.559175 c 0.05,-0.08093 0.12015,-0.147151 0.15584,-0.147151 0.0357,0 0.0649,0.06622 0.0649,0.147151 0,0.08093 -0.0701,0.147151 -0.15583,0.147151 -0.0857,0 -0.11491,-0.06622 -0.0649,-0.147151 z m 0.37809,-0.06127 c -0.0984,-0.118545 -0.26483,-0.182557 -0.36986,-0.142251 -0.10504,0.04031 -0.22659,-0.01951 -0.27011,-0.132924 -0.0579,-0.150873 0.0148,-0.188258 0.27083,-0.139313 0.35734,0.06831 0.75434,0.423699 0.6216,0.556448 -0.0405,0.04047 -0.15407,-0.02341 -0.25246,-0.14196 z m 3.37427,-0.564872 c 0,-0.04047 0.0934,-0.151117 0.20763,-0.24589 0.15997,-0.132761 0.23294,-0.128451 0.31789,0.01877 0.0606,0.105097 0.0561,0.141995 -0.0101,0.082 -0.0662,-0.06 -0.20928,-0.03534 -0.31789,0.0548 -0.10861,0.09014 -0.19748,0.130783 -0.19748,0.09032 z m -29.19437,-0.52654 c -0.0417,-0.06744 0.0177,-0.122627 0.13199,-0.122627 0.11428,0 0.17368,0.05518 0.13199,0.122627 -0.0417,0.06744 -0.10108,0.122626 -0.13199,0.122626 -0.0309,0 -0.0903,-0.05518 -0.13199,-0.122626 z m 28.18877,-0.0063 c -0.1552,-0.09838 -0.14236,-0.145116 0.0614,-0.223298 0.19639,-0.07536 0.21681,-0.139726 0.0859,-0.270634 -0.25472,-0.254719 -0.20813,-0.55467 0.0858,-0.552099 0.22006,0.0019 0.22542,0.02299 0.0368,0.144899 -0.1214,0.07845 -0.15205,0.143659 -0.0681,0.144898 0.0839,0.0012 0.1626,0.134689 0.17479,0.296555 0.0122,0.161867 -0.0438,0.294303 -0.12452,0.294303 -0.0807,0 -0.10576,0.06622 -0.0557,0.147151 0.11005,0.178071 0.0628,0.182458 -0.19627,0.01823 z m -4.15595,-0.02558 c -0.006,-0.03642 -0.0328,-0.177522 -0.0591,-0.313559 -0.0733,-0.379191 0.30421,-0.43235 0.60831,-0.08566 0.22786,0.259765 0.23296,0.295386 0.0318,0.222303 -0.13177,-0.04787 -0.31387,-0.01274 -0.40467,0.07805 -0.0908,0.0908 -0.17015,0.135285 -0.17634,0.09886 z m -23.89455,-0.57108 c -0.0466,-0.07534 -0.0284,-0.171755 0.0404,-0.214253 0.0688,-0.0425 0.12503,0.01914 0.12503,0.136983 0,0.248122 -0.0464,0.2698 -0.1654,0.07727 z m -4.41048,-0.140589 c -0.0443,-0.07173 0.0549,-0.16585 0.22045,-0.209151 0.24691,-0.06457 0.26984,-0.04111 0.12748,0.130422 -0.20321,0.244851 -0.2401,0.253198 -0.34793,0.07873 z m 27.5236,-0.48511 c 0.0425,-0.06876 0.13891,-0.08693 0.21425,-0.04037 0.19253,0.11899 0.17086,0.165392 -0.0773,0.165392 -0.11784,0 -0.17948,-0.05626 -0.13698,-0.125027 z m -20.30837,-1.27291 c -0.0417,-0.06745 0.0177,-0.122627 0.132,-0.122627 0.11427,0 0.17367,0.05518 0.13199,0.122627 -0.0417,0.06744 -0.10108,0.122626 -0.13199,0.122626 -0.0309,0 -0.0903,-0.05518 -0.132,-0.122626 z m 17.49585,-0.02453 c -0.05,-0.08093 -0.0208,-0.147151 0.0649,-0.147151 0.0857,0 0.15584,0.06622 0.15584,0.147151 0,0.08093 -0.0292,0.147152 -0.0649,0.147152 -0.0357,0 -0.10581,-0.06622 -0.15583,-0.147152 z m -35.29179,-0.981009 c -0.054,-0.05395 -0.0961,-0.202945 -0.0936,-0.33109 0.004,-0.191341 0.0324,-0.184984 0.16063,0.03556 0.15845,0.272478 0.11252,0.475056 -0.067,0.295528 z m 0.41573,-0.02332 c 0.0397,-0.03973 -0.005,-0.164829 -0.0986,-0.278007 -0.24196,-0.291544 0.1781,-0.191711 0.44233,0.105126 0.17255,0.193832 0.18684,0.189924 0.11732,-0.03207 -0.0435,-0.139041 -0.025,-0.286302 0.0413,-0.327244 0.0662,-0.04094 0.11302,0.06736 0.10394,0.240674 -0.0113,0.215777 -0.12087,0.322781 -0.34753,0.339434 -0.18206,0.01338 -0.29852,-0.0082 -0.25879,-0.04791 z m 18.91014,0.03455 c 0,-0.01333 0.11204,-0.115124 0.24898,-0.226201 0.13693,-0.111075 0.20274,-0.124838 0.14623,-0.03058 -0.0565,0.09425 -0.0195,0.203387 0.0821,0.242517 0.10167,0.03913 0.0359,0.0638 -0.14624,0.05483 -0.1821,-0.009 -0.33109,-0.02723 -0.33109,-0.04056 z m 0.7028,-0.08106 c -0.086,-0.224045 0.10508,-0.697515 0.2274,-0.563558 0.0348,0.03812 0.10897,0.234859 0.1648,0.437192 0.0691,0.250319 0.0571,0.303778 -0.0375,0.167289 -0.11301,-0.163119 -0.151,-0.164508 -0.20336,-0.0074 -0.0487,0.145956 -0.0856,0.137776 -0.15135,-0.03348 z m 11.75793,-0.03695 c -0.0433,-0.112688 -0.0554,-0.327897 -0.027,-0.478241 0.0284,-0.150345 0.0567,-0.323016 0.0629,-0.383716 0.006,-0.0607 0.0754,-0.110364 0.15378,-0.110364 0.0784,0 0.10186,0.106011 0.0521,0.235578 -0.12077,0.314728 0.25563,0.54124 0.45904,0.276247 0.12943,-0.168597 0.21472,-0.170343 0.5066,-0.01037 0.22643,0.124108 0.29171,0.228986 0.18393,0.29559 -0.0919,0.05678 -0.16703,0.04019 -0.16703,-0.03686 0,-0.07705 -0.0993,-0.178208 -0.22072,-0.224794 -0.13684,-0.05251 -0.22073,7.35e-4 -0.22073,0.140092 0,0.123637 0.0552,0.190689 0.12262,0.149007 0.0675,-0.04168 0.12264,0.01958 0.12264,0.13613 0,0.143778 -0.0548,0.166481 -0.17029,0.0706 -0.11118,-0.09228 -0.23397,-0.0787 -0.35385,0.03912 -0.14523,0.142721 -0.17371,0.138143 -0.13629,-0.02189 0.026,-0.111283 -0.0355,-0.232698 -0.13675,-0.269811 -0.11793,-0.04324 -0.15192,0.01623 -0.0946,0.165545 0.0492,0.128163 0.0563,0.233023 0.0159,0.233023 -0.0405,0 -0.10897,-0.0922 -0.1522,-0.204889 z m -11.14154,-0.169225 c -0.14267,-0.171911 -0.14705,-0.268283 -0.018,-0.397308 0.0937,-0.09369 0.17586,-0.140548 0.18261,-0.104128 0.0433,0.233953 0.0805,0.728399 0.0547,0.728399 -0.017,0 -0.11573,-0.102133 -0.21933,-0.226963 z m 17.57369,-0.188482 c 0.0508,-0.08219 -0.0124,-0.254099 -0.14024,-0.382024 -0.12793,-0.127924 -0.16972,-0.23259 -0.0929,-0.23259 0.0768,0 0.24321,0.148991 0.36972,0.331091 l 0.22999,0.33109 -0.0572,-0.335021 c -0.0315,-0.184261 0,-0.299879 0.0692,-0.25693 0.21469,0.13269 0.0657,0.589117 -0.20986,0.642884 -0.14859,0.02899 -0.22125,-0.01343 -0.16867,-0.0985 z m -38.24151,-0.317454 c -0.0542,-0.08774 0.0108,-0.107719 0.16188,-0.04974 0.14606,0.05605 0.21567,0.03728 0.16511,-0.04453 -0.0484,-0.07837 0.10172,-0.138908 0.33679,-0.135782 0.23331,0.0031 0.37193,0.05791 0.30804,0.1218 -0.19023,0.190231 -0.87407,0.266404 -0.97182,0.10825 z m 14.2155,-0.05575 c -0.11359,-0.136873 -0.061,-0.18255 0.20997,-0.18255 0.39733,0 0.48142,0.157925 0.1515,0.284527 -0.11548,0.04431 -0.27814,-0.0016 -0.36147,-0.101977 z m 23.04543,-0.379059 c -0.041,-0.15664 0.007,-0.316139 0.10703,-0.354443 0.12294,-0.04718 0.15963,0.04468 0.11373,0.284799 -0.082,0.428887 -0.12339,0.44195 -0.22076,0.06964 z m -12.35993,-0.144216 c -0.0821,-0.314144 0.0968,-0.42391 0.26011,-0.15959 0.05,0.08093 0.20292,0.146138 0.33977,0.144899 0.19245,-0.0018 0.20436,-0.03044 0.0526,-0.126674 -0.16001,-0.101427 -0.15589,-0.139917 0.0223,-0.208285 0.14609,-0.05606 0.20651,-0.0019 0.18225,0.163461 -0.02,0.13603 -0.16243,0.247326 -0.31658,0.247326 -0.15415,0 -0.32075,0.05526 -0.37022,0.122802 -0.0495,0.06754 -0.12604,-0.01523 -0.17016,-0.183939 z m 4.44233,0.0751 c 0.2105,-0.253624 0.63766,-0.210254 0.71378,0.07247 0.0437,0.1625 0.0219,0.159693 -0.10013,-0.01286 -0.13875,-0.196201 -0.1566,-0.196201 -0.16061,0 -0.004,0.196202 -0.0204,0.196202 -0.14715,0 -0.0951,-0.147151 -0.1434,-0.159413 -0.1449,-0.03679 -10e-4,0.101166 -0.0766,0.183939 -0.16741,0.183939 -0.11908,0 -0.11729,-0.0577 0.006,-0.206763 z m 7.12727,-0.57901 c 0.0254,-0.411001 0.29744,-0.442257 0.63195,-0.07261 0.13429,0.148377 0.17096,0.269777 0.0815,0.269777 -0.0894,0 -0.23014,-0.115882 -0.31264,-0.257515 -0.13758,-0.236229 -0.15036,-0.236946 -0.15446,-0.0087 -0.002,0.136857 -0.0637,0.28541 -0.136,0.330118 -0.0723,0.04471 -0.122,-0.07278 -0.11036,-0.261085 z m -19.88456,-0.1823 c 0.13971,-0.145861 0.28569,-0.233526 0.3244,-0.194814 0.0387,0.03871 -0.0756,0.158053 -0.25401,0.265201 -0.30995,0.186134 -0.31308,0.182999 -0.0704,-0.07039 z m 20.71225,0.0082 c -0.1555,-0.187375 -0.1464,-0.208908 0.0556,-0.131408 0.13285,0.05098 0.24153,0.151821 0.24153,0.224096 0,0.18923 -0.0852,0.162655 -0.2971,-0.09269 z m -1.96859,-0.04568 c -0.0417,-0.06744 0.0206,-0.122627 0.13847,-0.122627 0.11784,0 0.21426,0.05518 0.21426,0.122627 0,0.06744 -0.0623,0.122626 -0.13847,0.122626 -0.0762,0 -0.17257,-0.05518 -0.21426,-0.122626 z m -0.73834,-0.428884 c -0.056,-0.05601 -0.24148,-0.10382 -0.41217,-0.10625 -0.17068,-0.0024 -0.32774,-0.08885 -0.349,-0.192039 -0.0213,-0.10319 -0.005,-0.119744 0.0361,-0.03679 0.0411,0.08296 0.18517,0.149817 0.32005,0.148578 0.21212,-0.0019 0.21545,-0.02153 0.0245,-0.144899 -0.1214,-0.07845 -0.15119,-0.143659 -0.0662,-0.144898 0.085,-0.0012 0.24371,0.08052 0.35275,0.181686 0.16157,0.149925 0.18201,0.137704 0.11049,-0.06608 -0.0653,-0.185994 -0.0269,-0.226694 0.14964,-0.158933 0.13994,0.0537 0.19992,0.0305 0.14612,-0.05654 -0.0502,-0.0812 -0.007,-0.147634 0.0966,-0.147634 0.10332,0 0.17836,0.12875 0.16678,0.286111 -0.0228,0.309257 -0.40989,0.603542 -0.57574,0.437691 z m 0.43279,-0.302979 c -0.0453,-0.04531 -0.16405,-9.4e-5 -0.26388,0.100472 -0.14423,0.14533 -0.12734,0.162232 0.0824,0.08238 0.14512,-0.05526 0.22679,-0.137541 0.1815,-0.182848 z M 79.928186,31.87098 c 0.03395,-0.05493 -0.02146,-0.133414 -0.123128,-0.174403 -0.14328,-0.05776 -0.141533,-0.07714 0.0078,-0.08614 0.105943,-0.0064 0.154527,-0.07326 0.107964,-0.148601 -0.04657,-0.07534 -0.0071,-0.1849 0.08763,-0.243463 0.1076,-0.0665 0.132866,-0.0427 0.06729,0.06341 -0.05775,0.09344 -0.03878,0.169888 0.04215,0.169888 0.08093,0 0.188076,-0.06622 0.238096,-0.147152 0.05002,-0.08093 0.169809,-0.145138 0.266199,-0.142676 0.09639,0.0025 0.06212,0.07043 -0.07615,0.151043 -0.154435,0.09004 -0.215456,0.240243 -0.158207,0.389432 0.08232,0.214533 0.106154,0.209788 0.204273,-0.04068 0.104349,-0.266368 0.111704,-0.264531 0.121419,0.03036 0.0084,0.254759 -0.07043,0.310601 -0.418346,0.296384 -0.235777,-0.0096 -0.40091,-0.06246 -0.366961,-0.117396 z m 67.710584,-0.212975 c -0.0484,-0.04838 -0.0504,-0.185782 -0.005,-0.305341 0.0509,-0.132562 0.004,-0.206269 -0.1205,-0.188905 -0.11216,0.01566 -0.36947,0.01597 -0.5718,7.36e-4 -0.33667,-0.02542 -0.34291,-0.03771 -0.0736,-0.144846 0.16187,-0.06439 0.3162,-0.06026 0.34296,0.0092 0.0268,0.06943 0.18375,0.05394 0.34885,-0.03442 0.21788,-0.116603 0.27277,-0.11628 0.20017,0.0012 -0.055,0.08901 -0.0354,0.161833 0.0436,0.161833 0.079,0 0.17697,-0.08277 0.21779,-0.183939 0.0548,-0.135828 0.0773,-0.131115 0.0858,0.01802 0.01,0.170198 0.0521,0.170597 0.26913,0.0025 0.21746,-0.1684 0.21474,-0.14922 -0.0175,0.123292 -0.15127,0.177494 -0.34992,0.308788 -0.44145,0.291767 -0.0915,-0.01702 -0.14986,0.05183 -0.12963,0.152992 0.0401,0.200251 -0.0117,0.233535 -0.14928,0.09598 z m 1.36327,-0.279912 c -0.10075,-0.121399 -0.12542,-0.22174 -0.0548,-0.222979 0.0706,-0.0012 0.0464,-0.05436 -0.0539,-0.118035 -0.1085,-0.0689 0.0405,-0.120486 0.36787,-0.1274 0.39831,-0.0084 0.46894,0.0187 0.25588,0.0982 l -0.2943,0.10982 0.2943,0.07634 c 0.25078,0.06505 0.23991,0.08039 -0.0736,0.103752 -0.34014,0.02535 -0.34568,0.03695 -0.0736,0.153879 0.22643,0.0973 0.23907,0.128852 0.0548,0.136808 -0.13172,0.0057 -0.32193,-0.08898 -0.42268,-0.210384 z m 1.05949,0.04415 c -0.0971,-0.09712 -0.17557,-0.246111 -0.17433,-0.331091 0.001,-0.103342 0.038,-0.101615 0.11036,0.0052 0.0595,0.08785 0.24055,0.234827 0.40242,0.326616 0.21822,0.12375 0.23534,0.168045 0.0662,0.171363 -0.12544,0.0025 -0.30754,-0.07499 -0.40466,-0.172106 z m 0.80509,-0.0329 c 0.0818,-0.232809 0.05,-0.264083 -0.1791,-0.176162 -0.15321,0.0588 -0.22545,0.05374 -0.16053,-0.01124 0.16173,-0.161855 0.97973,-0.168644 0.88002,-0.0073 -0.044,0.07121 -0.11651,0.09299 -0.1611,0.04839 -0.0446,-0.04459 -0.17056,0.03377 -0.27993,0.174149 -0.18482,0.237222 -0.19183,0.235257 -0.0994,-0.02783 z m 1.40785,0.111469 c -0.10209,-0.04113 -0.24994,-0.194949 -0.32854,-0.341818 -0.12213,-0.228211 -0.0957,-0.254688 0.18183,-0.182111 0.18346,0.04797 0.24298,0.112178 0.1368,0.147569 -0.13502,0.04501 -0.11323,0.119301 0.0774,0.263833 0.27415,0.207875 0.25372,0.241924 -0.0675,0.112527 z M 79.673267,31.120579 c -0.111343,-0.199723 -0.04282,-1.11785 0.08176,-1.095481 0.08771,0.01575 0.144486,-0.04945 0.126161,-0.144897 -0.03457,-0.180034 0.634189,-0.178218 0.76931,0.0021 0.04034,0.05383 0.03184,0.0674 -0.01889,0.03016 -0.05073,-0.03724 -0.281086,0.02995 -0.511904,0.149314 -0.343698,0.177733 -0.410412,0.296547 -0.368524,0.656313 0.04282,0.367737 0.0067,0.554282 -0.07791,0.402503 z M 154.52126,31.0119 c -0.0516,-0.08341 0.007,-0.108083 0.13847,-0.05783 0.25492,0.09783 0.30155,0.203299 0.0899,0.203299 -0.0761,0 -0.17892,-0.06546 -0.22836,-0.145467 z M 80.317484,30.903669 c -0.102094,-0.03644 -0.258788,-0.20296 -0.348209,-0.370044 -0.135202,-0.252628 -0.124128,-0.289035 0.06576,-0.21617 0.125586,0.04819 0.260498,0.0086 0.299803,-0.08805 0.05092,-0.125165 0.07481,-0.120293 0.08308,0.01695 0.0064,0.105943 0.07437,0.153838 0.151078,0.106433 0.07739,-0.04783 0.112189,0.0554 0.07819,0.231953 -0.07402,0.38434 -0.09354,0.403221 -0.3297,0.318927 z m 0.11205,-0.334908 c 0,-0.08093 -0.0292,-0.147151 -0.06489,-0.147151 -0.03569,0 -0.105816,0.06622 -0.155836,0.147151 -0.05002,0.08093 -0.02082,0.147152 0.06489,0.147152 0.08571,0 0.155836,-0.06622 0.155836,-0.147152 z"
         style="fill:#fcfcfc;stroke-width:0.14715131" />
      <path
         id="path139"
         d="m 76.296447,289.90745 c -0.103041,-0.12417 -0.0085,-0.18702 0.339696,-0.22576 0.622436,-0.0693 1.590668,0.0856 1.291819,0.20673 -0.437756,0.17735 -1.489932,0.18962 -1.631515,0.019 z m -28.681653,-2.40319 c 0,-0.0861 0.152302,-0.15648 0.338448,-0.15648 0.186147,0 0.424337,-0.0828 0.529312,-0.18394 0.154363,-0.14876 0.180868,-0.12765 0.13859,0.11036 -0.03738,0.21043 -0.188237,0.30745 -0.529313,0.34042 -0.267782,0.0259 -0.477037,-0.0225 -0.477037,-0.11036 z m 11.109923,-0.009 c 0.05002,-0.0809 0.190271,-0.14715 0.311671,-0.14715 0.1214,0 0.179803,0.0662 0.129783,0.14715 -0.05002,0.0809 -0.190271,0.14715 -0.311671,0.14715 -0.1214,0 -0.179802,-0.0662 -0.129783,-0.14715 z m -8.497987,-0.53891 c 0.101166,-0.0408 0.266711,-0.0408 0.367878,0 0.101167,0.0408 0.01839,0.0742 -0.183939,0.0742 -0.202333,0 -0.285106,-0.0334 -0.183939,-0.0742 z m 1.361149,-0.0404 c 0,-0.0764 0.246145,-0.0999 0.551818,-0.0528 0.764087,0.11791 0.78748,0.19065 0.06131,0.19065 -0.337222,0 -0.613131,-0.0621 -0.613131,-0.1379 z m 1.707398,0.0153 c -0.04168,-0.0675 0.15015,-0.12264 0.426296,-0.12264 0.276146,0 0.467979,0.0552 0.426296,0.12264 -0.04168,0.0674 -0.233516,0.12262 -0.426296,0.12262 -0.19278,0 -0.384614,-0.0552 -0.426296,-0.12262 z m 1.474449,0.005 c -0.03688,-0.0597 0.192287,-0.11527 0.509248,-0.12357 0.316961,-0.008 0.576293,0.0319 0.576293,0.0893 0,0.14028 -1.000495,0.17186 -1.085541,0.0342 z m 134.306514,-53.0708 c 0,-0.11784 0.0563,-0.17948 0.12503,-0.13699 0.0688,0.0425 0.0869,0.13891 0.0404,0.21426 -0.11899,0.19253 -0.1654,0.17085 -0.1654,-0.0773 z m 0.24526,-0.44793 c 0,-0.1214 0.0993,-0.22073 0.22072,-0.22073 0.1214,0 0.22073,0.0993 0.22073,0.22073 0,0.1214 -0.0993,0.22072 -0.22073,0.22072 -0.1214,0 -0.22072,-0.0993 -0.22072,-0.22072 z M 28.043671,174.92419 c -0.132626,-0.0857 -0.150775,-0.14355 -0.04547,-0.1449 0.09639,-0.001 0.21618,0.064 0.266199,0.1449 0.11291,0.18268 0.06197,0.18268 -0.220727,0 z m 0.777735,-0.19951 c 0.08027,-0.24081 0.826216,-0.74716 0.937202,-0.63618 0.139024,0.13903 -0.4909,0.78664 -0.765151,0.78664 -0.122213,0 -0.199635,-0.0677 -0.172051,-0.15046 z m 0.626488,-0.96754 c -0.04657,-0.0753 -0.0284,-0.17175 0.04036,-0.21425 0.06876,-0.0425 0.125027,0.0191 0.125027,0.13698 0,0.24813 -0.0464,0.26981 -0.165392,0.0773 z M 141.20302,69.165706 c -0.20233,-0.216186 -0.28511,-0.343571 -0.18394,-0.283075 0.10117,0.06049 0.18394,0.03986 0.18394,-0.04585 0,-0.08571 0.0717,-0.155836 0.15941,-0.155836 0.0877,0 0.12974,0.08277 0.0935,0.183939 -0.0363,0.101167 -0.006,0.299821 0.0665,0.441454 0.18046,0.350863 0.11273,0.321039 -0.31936,-0.140635 z m 27.73802,-24.299299 c -0.2428,-0.02728 -0.55991,-0.176274 -0.70471,-0.331091 -0.14478,-0.154816 -0.23157,-0.281484 -0.19287,-0.281484 0.0387,0 -0.0311,-0.297981 -0.15524,-0.662181 -0.1241,-0.364199 -0.28954,-0.66218 -0.36763,-0.66218 -0.0781,0 -0.1036,-0.06215 -0.0566,-0.138108 0.0469,-0.07596 -0.0213,-0.197793 -0.15166,-0.270742 -0.13035,-0.07295 -0.2395,-0.192902 -0.24255,-0.266559 -0.0134,-0.321106 -0.22364,-0.636435 -1.06236,-1.592723 -1.2855,-1.465696 -1.85675,-2.011677 -2.00739,-1.918573 -0.0728,0.04496 -0.0909,-0.02598 -0.0404,-0.157655 0.0675,-0.175839 0.0191,-0.226709 -0.18232,-0.191582 -0.15425,0.0269 -0.27563,-0.03874 -0.2775,-0.150061 -0.004,-0.241937 -0.82261,-0.916949 -0.98801,-0.814729 -0.0654,0.04043 -0.11892,0.0093 -0.11892,-0.06914 0,-0.131515 -1.79706,-1.346238 -1.99162,-1.346238 -0.0472,0 -0.0358,0.08277 0.0254,0.18394 0.0612,0.101166 -0.0918,-0.0175 -0.3399,-0.263694 -0.4426,-0.439139 -1.44891,-0.864327 -1.69123,-0.714571 -0.0676,0.04177 -0.12287,0.0058 -0.12287,-0.0799 0,-0.08571 -0.13244,-0.155837 -0.2943,-0.155837 -0.16187,0 -0.2943,-0.06096 -0.2943,-0.135458 0,-0.0745 -0.19932,-0.179238 -0.44294,-0.232745 -0.24361,-0.05351 -0.62437,-0.187462 -0.84612,-0.297677 -0.22175,-0.110216 -0.58344,-0.180335 -0.80374,-0.15582 -0.22032,0.02452 -0.36541,-0.01233 -0.32241,-0.08189 0.043,-0.06956 -0.0499,-0.126466 -0.20644,-0.126466 -0.15653,0 -0.50182,-0.04344 -0.76732,-0.09655 -0.33084,-0.06617 -0.45159,-0.04618 -0.3838,0.06353 0.0544,0.08804 -0.11738,0.049 -0.38179,-0.08677 -0.33859,-0.173872 -0.89398,-0.253149 -1.87865,-0.268154 -1.67477,-0.02552 -4.0102,0.210926 -4.13921,0.41907 -0.0625,0.100876 -0.11026,0.100725 -0.14715,-4.42e-4 -0.0336,-0.09232 -0.4407,-0.02813 -1.06094,0.167289 -0.55349,0.174391 -0.9734,0.350183 -0.93315,0.39065 0.0403,0.04047 -0.13598,0.08427 -0.39162,0.09734 -0.25564,0.01307 -1.04812,0.294496 -1.76107,0.625393 -0.71294,0.330894 -1.34269,0.601628 -1.39942,0.601628 -0.0567,0 -0.27746,0.161625 -0.4905,0.359168 -0.21305,0.197543 -0.41211,0.334409 -0.44237,0.304147 -0.0303,-0.03026 -0.31809,0.172311 -0.6396,0.450164 -0.32152,0.277851 -0.63661,0.505185 -0.7002,0.505185 -0.0636,0 -0.18006,0.16953 -0.25884,0.376732 -0.0872,0.22924 -0.20986,0.33556 -0.3134,0.271568 -0.10553,-0.06522 -0.13028,-0.04064 -0.0652,0.06472 0.0577,0.09342 0.031,0.169864 -0.0595,0.169864 -0.0905,0 -0.11727,0.07645 -0.0595,0.169888 0.0606,0.09802 0.0408,0.130207 -0.0468,0.07608 -0.14648,-0.09053 -2.02478,1.792233 -1.90625,1.910769 0.0322,0.03214 -0.1555,0.292017 -0.41698,0.577495 -0.50863,0.555296 -1.15115,1.696391 -1.15115,2.044411 0,0.116353 -0.0557,0.177159 -0.12367,0.135122 -0.068,-0.04204 -0.16149,0.02215 -0.20773,0.142638 -0.0462,0.120486 -0.34104,0.262484 -0.65513,0.315549 -0.46124,0.07793 -0.69252,0.0237 -1.20248,-0.281923 -0.34726,-0.208124 -0.54154,-0.379034 -0.43171,-0.379799 0.11682,-8.83e-4 0.16454,-0.09299 0.11498,-0.222119 -0.0466,-0.1214 -0.0283,-0.220727 0.0407,-0.220727 0.20613,0 0.28578,-0.550708 0.10589,-0.732066 -0.12477,-0.125782 -0.11118,-0.147216 0.0538,-0.08487 0.1536,0.05804 0.35257,-0.151865 0.6543,-0.690252 0.23847,-0.425508 0.55462,-0.903763 0.70258,-1.062788 0.14795,-0.159025 0.23503,-0.377673 0.1935,-0.485885 -0.0415,-0.108211 -0.017,-0.16058 0.0545,-0.116375 0.13213,0.08166 0.3771,-0.332621 0.32775,-0.554267 -0.0148,-0.06672 0.0316,-0.08507 0.10325,-0.0408 0.11113,0.06868 1.2014,-0.997299 1.2014,-1.17464 0,-0.07942 0.9926,-0.976707 1.71943,-1.554325 0.30878,-0.245383 0.5629,-0.523004 0.56471,-0.616935 0.002,-0.09393 0.11472,-0.15201 0.2509,-0.129066 0.13617,0.02294 0.35714,-0.125477 0.49103,-0.329826 0.1339,-0.204351 0.29927,-0.337043 0.36751,-0.294872 0.0682,0.04217 0.46003,-0.104781 0.87066,-0.326557 0.53193,-0.287285 0.72183,-0.468364 0.66046,-0.629753 -0.0657,-0.172816 -0.0452,-0.185876 0.0867,-0.05508 0.17828,0.17687 0.8083,-0.03176 2.08869,-0.691657 0.3035,-0.15642 0.55181,-0.23762 0.55181,-0.180444 0,0.05718 0.1053,-0.04637 0.23399,-0.230105 0.18508,-0.264235 0.27715,-0.298232 0.44052,-0.162649 0.15876,0.131763 0.37481,0.116368 0.93409,-0.06656 0.40015,-0.130884 0.868,-0.23797 1.03967,-0.23797 0.17167,0 0.28157,-0.04966 0.24422,-0.110364 -0.0373,-0.0607 0.30089,-0.127982 0.75163,-0.149516 0.45075,-0.02153 0.89126,-0.0905 0.97892,-0.153254 0.0877,-0.06275 1.21887,-0.0998 2.5138,-0.08231 1.7628,0.0238 2.74268,0.11324 3.89951,0.355941 0.8498,0.178286 1.68775,0.332272 1.86213,0.342193 0.17437,0.0099 0.27939,0.07896 0.23338,0.15341 -0.046,0.07445 0.0223,0.09473 0.15168,0.04505 0.12945,-0.04967 0.2574,-0.02421 0.28433,0.05658 0.0269,0.0808 0.14709,0.166226 0.26703,0.18985 0.11993,0.02362 0.41671,0.12592 0.65951,0.227325 0.2428,0.101405 0.50767,0.200906 0.5886,0.221111 0.0809,0.02021 0.25987,0.08572 0.39762,0.14558 0.13776,0.05986 0.33009,0.05963 0.4274,-4.41e-4 0.12024,-0.07431 0.13834,-0.0469 0.0565,0.08554 -0.0882,0.142694 -0.0528,0.168942 0.13206,0.098 0.13888,-0.05329 0.21569,-0.03733 0.17069,0.03547 -0.045,0.0728 0.43165,0.408991 1.05921,0.747087 0.62756,0.338098 1.52102,0.873738 1.98547,1.190312 0.46445,0.316572 0.91142,0.575588 0.99327,0.575588 0.0819,0 0.14881,0.0683 0.14881,0.151769 0,0.08347 0.11153,0.194568 0.24785,0.246876 0.13631,0.05231 0.75989,0.620389 1.38571,1.262403 0.73896,0.758071 1.20173,1.12784 1.31999,1.05475 0.116,-0.07169 0.14467,-0.05198 0.079,0.0543 -0.13324,0.215587 0.15794,0.761534 0.40617,0.761534 0.10507,0 0.19378,0.08277 0.19714,0.183939 0.006,0.182319 1.45519,2.459259 1.86524,2.930764 0.11731,0.134888 0.17466,0.283878 0.12745,0.331091 -0.0472,0.04721 -0.0215,0.08584 0.0571,0.08584 0.24467,0 0.23285,1.114281 -0.014,1.319143 -0.12308,0.102143 -0.19626,0.230243 -0.16262,0.284662 0.0658,0.106547 -0.17561,0.117277 -0.87373,0.03883 z M 144.44035,32.62888 c 0,-0.08093 -0.0292,-0.147152 -0.0649,-0.147152 -0.0357,0 -0.10582,0.06622 -0.15584,0.147152 -0.05,0.08093 -0.0208,0.147151 0.0649,0.147151 0.0857,0 0.15584,-0.06622 0.15584,-0.147151 z m -11.58944,8.904195 c 0.06,-0.06689 0.0269,-0.227035 -0.0736,-0.355881 -0.15759,-0.202112 -0.15051,-0.209194 0.0516,-0.0516 0.12884,0.100464 0.2768,0.140122 0.3288,0.08813 0.052,-0.052 -0.008,-0.169667 -0.13379,-0.261494 -0.19834,-0.145028 -0.18979,-0.166956 0.0651,-0.166956 0.16136,0 0.26472,0.04637 0.2297,0.103051 -0.035,0.05668 -0.003,0.12526 0.0708,0.152406 0.0739,0.02715 -0.0415,0.176393 -0.25659,0.331662 -0.21508,0.155268 -0.34196,0.227578 -0.28196,0.16069 z m 3.73349,-0.396346 c 0.0425,-0.06876 0.13891,-0.08693 0.21425,-0.04037 0.19253,0.11899 0.17085,0.165392 -0.0773,0.165392 -0.11784,0 -0.17948,-0.05626 -0.13698,-0.125027 z m 27.92812,-1.334224 -0.28032,-0.33109 0.33109,0.280322 c 0.31114,0.263433 0.39807,0.381859 0.28032,0.381859 -0.0279,0 -0.17692,-0.148991 -0.33109,-0.331091 z m -28.08246,-2.65507 c 0.0553,-0.145123 0.13754,-0.226792 0.18285,-0.181486 0.0453,0.04531 9e-5,0.164043 -0.10047,0.263862 -0.14533,0.144246 -0.16223,0.127344 -0.0824,-0.08238 z m 29.1813,-0.06723 c -0.18303,-0.23339 -0.17783,-0.238595 0.0556,-0.05556 0.24511,0.192234 0.32307,0.313073 0.20195,0.313073 -0.0305,0 -0.14643,-0.115882 -0.25751,-0.257515 z M 142.3077,36.015044 c -0.0516,-0.08341 0.008,-0.108082 0.13846,-0.05783 0.25493,0.09783 0.30157,0.203299 0.0899,0.203299 -0.0762,0 -0.17893,-0.06546 -0.22837,-0.145467 z m 20.23226,-0.922132 c 0,-0.04047 0.0934,-0.151117 0.20763,-0.24589 0.15997,-0.132761 0.23294,-0.128451 0.31789,0.01877 0.0606,0.105097 0.0561,0.141995 -0.0102,0.082 -0.0662,-0.06 -0.20928,-0.03534 -0.31789,0.05481 -0.10862,0.09014 -0.19748,0.130783 -0.19748,0.09032 z M 150.9547,33.963436 c 0.0118,-0.15626 0.071,-0.253467 0.13158,-0.216015 0.0606,0.03745 0.0729,0.165301 0.0273,0.284109 -0.11496,0.299578 -0.18432,0.269848 -0.15886,-0.06809 z M 80.390293,31.286258 c 0.09982,-0.100566 0.218555,-0.145779 0.263861,-0.100472 0.04531,0.04531 -0.03636,0.127587 -0.181486,0.182847 -0.20972,0.07986 -0.226622,0.06295 -0.08237,-0.08237 z m 73.811087,-0.0775 c 0,-0.14487 0.0496,-0.152713 0.19621,-0.03103 0.10791,0.08956 0.1962,0.176797 0.1962,0.193865 0,0.01707 -0.0883,0.03103 -0.1962,0.03103 -0.10792,0 -0.19621,-0.08724 -0.19621,-0.193866 z M 80.371952,30.888942 c -0.0519,-0.08398 -0.02267,-0.197009 0.06497,-0.251173 0.218681,-0.135152 0.296098,-0.02766 0.150154,0.208478 -0.07819,0.126511 -0.154023,0.141562 -0.215126,0.04269 z"
         style="fill:#fafafa;stroke-width:0.14715131" />
      <path
         id="path137"
         d="m 189.3215,233.41683 c 0,-0.1214 0.0993,-0.22073 0.22072,-0.22073 0.1214,0 0.22073,0.0993 0.22073,0.22073 0,0.1214 -0.0993,0.22072 -0.22073,0.22072 -0.1214,0 -0.22072,-0.0993 -0.22072,-0.22072 z M 29.118724,174.41395 c 0.51633,-0.46605 0.803918,-0.48961 0.507908,-0.0416 -0.120312,0.1821 -0.376707,0.34981 -0.569765,0.37267 -0.348955,0.0414 -0.348593,0.0394 0.06186,-0.33109 z M 141.14509,68.913971 c 0.0492,-0.128163 0.15407,-0.233023 0.23309,-0.233023 0.19341,0 0.0723,0.334442 -0.14767,0.407765 -0.10753,0.03584 -0.14042,-0.03143 -0.0854,-0.174742 z m 27.06476,-24.549775 c -0.67381,-1.524269 -0.83366,-1.852781 -1.13918,-2.341192 -0.41486,-0.663217 -1.82866,-2.284692 -2.91205,-3.339795 -0.7227,-0.703845 -3.48385,-2.66985 -3.74965,-2.66985 -0.0574,0 -0.28019,-0.123245 -0.49501,-0.273876 -0.21483,-0.150633 -0.65548,-0.357107 -0.97921,-0.458831 -0.32373,-0.101724 -0.78726,-0.27345 -1.03006,-0.381612 -1.18735,-0.528935 -2.0213,-0.783476 -3.09402,-0.944363 -0.64536,-0.09679 -1.45101,-0.236036 -1.79034,-0.309435 -1.0215,-0.220952 -3.17095,-0.129177 -5.63696,0.24068 -0.81955,0.122919 -3.12515,0.898987 -4.3457,1.462768 -0.61621,0.284635 -1.14658,0.517518 -1.1786,0.517518 -0.032,0 -0.46941,0.281427 -0.97199,0.625393 -1.65705,1.134092 -4.31784,4.082938 -5.40333,5.988291 -0.21313,0.374106 -0.45451,0.790544 -0.5364,0.92542 -0.0819,0.134876 -0.41317,0.287488 -0.73618,0.33914 -0.47138,0.07538 -0.66707,0.03115 -0.99153,-0.224065 -0.22234,-0.174886 -0.40279,-0.42905 -0.40101,-0.564809 0.01,-0.751452 1.5414,-3.164606 3.11083,-4.901488 5.13789,-5.686058 14.32172,-7.906914 21.68093,-5.242934 4.44166,1.607847 7.75324,3.938235 10.30096,7.248864 1.11161,1.444474 2.28024,3.457457 2.28037,3.927954 1.4e-4,0.510949 -0.4872,0.854463 -1.21223,0.854463 -0.48835,0 -0.5847,-0.05988 -0.76964,-0.478241 z M 80.362243,30.873232 c -0.04657,-0.07534 -0.01736,-0.178577 0.06489,-0.229412 0.08225,-0.05084 0.149551,0.0108 0.149551,0.136983 0,0.258476 -0.0883,0.296534 -0.214442,0.09243 z"
         style="fill:#c0c0c0;stroke-width:0.14715131" />
      <path
         id="path135"
         d="m 189.3215,233.41683 c 0,-0.1214 0.0993,-0.22073 0.22072,-0.22073 0.1214,0 0.22073,0.0993 0.22073,0.22073 0,0.1214 -0.0993,0.22072 -0.22073,0.22072 -0.1214,0 -0.22072,-0.0993 -0.22072,-0.22072 z M 29.134286,174.40822 c 0.483563,-0.41587 0.63076,-0.39235 0.387644,0.0619 -0.09067,0.1694 -0.310261,0.30682 -0.490164,0.30672 -0.309187,0 -0.303925,-0.0191 0.10252,-0.36864 z M 141.14509,68.913971 c 0.0492,-0.128163 0.15407,-0.233023 0.23309,-0.233023 0.19341,0 0.0723,0.334442 -0.14767,0.407765 -0.10753,0.03584 -0.14042,-0.03143 -0.0854,-0.174742 z m 27.08391,-24.4762 c -0.11252,-0.222566 -0.31561,-0.744523 -0.45131,-1.159904 -0.13572,-0.415381 -0.37644,-0.872616 -0.53497,-1.016078 -0.15852,-0.143462 -0.28822,-0.326112 -0.28822,-0.40589 0,-0.183121 -0.75395,-1.04829 -2.37034,-2.719999 -1.33286,-1.378467 -3.15864,-2.700534 -4.91365,-3.558029 -1.16516,-0.569294 -3.87969,-1.476129 -4.85792,-1.622873 -0.64641,-0.09697 -1.45293,-0.236357 -1.79226,-0.309756 -1.03337,-0.22352 -2.96736,-0.139458 -5.71053,0.248207 -1.36684,0.193161 -4.90747,1.569459 -6.12164,2.379572 -0.2105,0.140452 -0.5747,0.384462 -0.80933,0.542244 -1.33371,0.896886 -4.06062,4.113957 -5.14522,6.070075 -0.36816,0.663974 -0.49841,0.777725 -0.98464,0.859871 -0.6401,0.108146 -1.20214,-0.17121 -1.36279,-0.677371 -0.12065,-0.380155 0.60851,-1.92805 1.2508,-2.655225 0.24277,-0.274861 0.48467,-0.631569 0.53755,-0.792686 0.10413,-0.317257 0.58681,-0.86476 2.19265,-2.487147 1.4909,-1.506263 3.04072,-2.501516 5.88093,-3.776582 1.1324,-0.508376 4.11102,-1.306267 5.66532,-1.517588 1.55409,-0.211291 4.27385,-0.179927 5.7389,0.06618 1.17078,0.196675 3.09838,0.697662 3.30574,0.859173 0.0838,0.06525 0.35097,0.165802 0.59377,0.223445 0.63751,0.151354 3.82819,1.739804 4.80961,2.394411 1.0387,0.692818 2.9077,2.146116 2.91238,2.2646 0.002,0.04838 0.3511,0.447148 0.776,0.886143 0.4249,0.438995 0.93809,1.016958 1.14042,1.284362 0.20234,0.267403 0.48376,0.623724 0.6254,0.791824 0.14163,0.168098 0.25751,0.35699 0.25751,0.419759 0,0.06277 0.0854,0.201628 0.18986,0.308575 0.38681,0.39617 1.42881,2.365659 1.42881,2.700605 0,0.457335 -0.52071,0.804749 -1.20617,0.804749 -0.45458,0 -0.58823,-0.07147 -0.75666,-0.404667 z M 80.355958,30.863064 c -0.05002,-0.08093 -0.02082,-0.147151 0.06489,-0.147151 0.08571,0 0.155836,0.06622 0.155836,0.147151 0,0.08093 -0.0292,0.147151 -0.06489,0.147151 -0.03569,0 -0.105816,-0.06622 -0.155836,-0.147151 z"
         style="fill:#bdbdbd;stroke-width:0.14715131" />
      <path
         id="path133"
         d="m 189.3215,233.41683 c 0,-0.1349 0.0712,-0.22152 0.15818,-0.19252 0.087,0.029 0.15819,0.11563 0.15819,0.19252 0,0.0769 -0.0712,0.16353 -0.15819,0.19252 -0.087,0.029 -0.15818,-0.0576 -0.15818,-0.19252 z M 29.147306,174.42162 c 0.504608,-0.40459 0.609828,-0.39097 0.374624,0.0485 -0.09087,0.16978 -0.309855,0.30657 -0.490164,0.30616 -0.304589,0 -0.297029,-0.0239 0.11554,-0.35468 z M 141.20302,68.828099 c 0,-0.08093 0.0701,-0.147151 0.15584,-0.147151 0.0857,0 0.11491,0.06622 0.0649,0.147151 -0.05,0.08093 -0.12015,0.147152 -0.15584,0.147152 -0.0357,0 -0.0649,-0.06622 -0.0649,-0.147152 z m 27.1724,-24.20442 c -0.12031,-0.120316 -0.33178,-0.567289 -0.46994,-0.993271 -0.25301,-0.780174 -1.02089,-2.08007 -1.63101,-2.761056 -2.65623,-2.964772 -4.96396,-4.701721 -7.56045,-5.690505 -0.52606,-0.200335 -1.36627,-0.51994 -1.86712,-0.710232 -0.50086,-0.190293 -1.42792,-0.423372 -2.06012,-0.517953 -0.63221,-0.09458 -1.42712,-0.232021 -1.76645,-0.30542 -1.63794,-0.354289 -5.60761,0.05295 -7.77065,0.797176 -1.77052,0.609171 -3.57053,1.43371 -4.48132,2.052781 -0.89241,0.606572 -3.18491,2.906619 -3.99314,4.006275 -0.73737,1.003253 -1.45825,2.103888 -1.45825,2.226452 0,0.0454 -0.13334,0.269796 -0.29631,0.498668 -0.3766,0.528882 -1.01082,0.678347 -1.59549,0.376004 -0.88959,-0.460026 -0.78105,-0.906465 0.78978,-3.248275 1.13893,-1.697926 2.89712,-3.574998 4.41292,-4.711299 0.4856,-0.364025 1.80996,-1.117344 2.94303,-1.674043 4.04948,-1.989601 8.34771,-2.699706 12.50786,-2.066408 1.06077,0.161482 3.1237,0.696492 3.38448,0.877749 0.0809,0.05625 0.3458,0.149923 0.5886,0.208154 0.73636,0.176604 3.74726,1.725524 5.07672,2.611669 2.58491,1.722935 4.88366,4.259417 6.52185,7.196315 0.29778,0.533843 0.54142,1.109498 0.54142,1.279231 0,0.643966 -1.32169,1.042705 -1.81641,0.547988 z M 80.355958,30.863064 c -0.05002,-0.08093 -0.02082,-0.147151 0.06489,-0.147151 0.08571,0 0.155836,0.06622 0.155836,0.147151 0,0.08093 -0.0292,0.147151 -0.06489,0.147151 -0.03569,0 -0.105816,-0.06622 -0.155836,-0.147151 z"
         style="fill:#808080;stroke-width:0.14715131" />
      <path
         id="path131"
         d="m 189.3215,233.34787 c 0,-0.0784 0.0993,-0.10442 0.22072,-0.0578 0.1214,0.0466 0.22073,0.11072 0.22073,0.14253 0,0.0318 -0.0993,0.0578 -0.22073,0.0578 -0.1214,0 -0.22072,-0.0641 -0.22072,-0.14253 z M 29.175889,174.42168 c 0.472985,-0.40711 0.581699,-0.39188 0.346041,0.0485 -0.09034,0.16879 -0.298051,0.3069 -0.461583,0.3069 -0.266444,0 -0.254441,-0.0369 0.115542,-0.35536 z M 168.32131,44.45423 c -0.16244,-0.231619 -0.40715,-0.762294 -0.54382,-1.179278 -0.13666,-0.416984 -0.37774,-0.907196 -0.53574,-1.089362 -0.15798,-0.182165 -0.28725,-0.392167 -0.28725,-0.46667 0,-0.421872 -3.64313,-3.942859 -4.93012,-4.764822 -1.20047,-0.766709 -2.58928,-1.586343 -2.72175,-1.606301 -0.19973,-0.03009 -0.87737,-0.282948 -1.46498,-0.546642 -0.36061,-0.161827 -0.72481,-0.30479 -0.80933,-0.317695 -0.0845,-0.01291 -0.2199,-0.06348 -0.30084,-0.112386 -0.15115,-0.09134 -1.06768,-0.310002 -1.13798,-0.271491 -0.0216,0.01183 -0.22902,-0.05066 -0.46101,-0.138859 -0.23197,-0.0882 -0.81522,-0.190648 -1.29611,-0.227667 -0.48089,-0.03702 -0.94402,-0.110371 -1.02917,-0.163004 -0.16247,-0.100405 -2.42456,-0.09565 -3.43329,0.0072 -2.00131,0.204082 -2.52969,0.309212 -3.89951,0.775867 -1.91493,0.65236 -3.79627,1.498976 -4.67214,2.102503 -1.65127,1.137817 -4.33645,4.173436 -5.40106,6.105958 -0.22293,0.404666 -0.46919,0.814272 -0.54725,0.910237 -0.25099,0.308547 -0.95553,0.373435 -1.42404,0.131154 -0.81475,-0.421322 -0.70931,-0.975242 0.55351,-2.907689 0.98332,-1.504744 2.67011,-3.457371 3.6703,-4.248726 0.35228,-0.278732 0.72219,-0.583443 0.82202,-0.677135 0.75381,-0.707499 3.98929,-2.350413 5.77991,-2.934932 1.64992,-0.53859 2.74383,-0.769576 4.82395,-1.018621 0.58551,-0.0701 2.48869,-0.07049 3.75236,-7.35e-4 1.9772,0.10909 4.28815,0.737622 6.59282,1.793112 0.59105,0.270689 1.10924,0.492163 1.15154,0.492163 0.1847,0 2.27776,1.293153 3.21841,1.988435 2.40131,1.774925 4.3569,4.013504 5.85967,6.707633 0.79594,1.426941 0.69932,1.846439 -0.46113,2.002089 -0.50539,0.06779 -0.60732,0.02735 -0.86797,-0.344319 z"
         style="fill:#7d7d7d;stroke-width:0.14715131" />
      <path
         id="path129"
         d="m 29.113884,174.48273 c 0.205779,-0.16186 0.413925,-0.2943 0.462545,-0.2943 0.04862,0 0.0057,0.13244 -0.09539,0.2943 -0.101087,0.16187 -0.309233,0.29431 -0.462547,0.29431 -0.241768,0 -0.229111,-0.039 0.0954,-0.29431 z M 168.38497,44.528739 c -0.11977,-0.191665 -0.33729,-0.679573 -0.48338,-1.084239 -0.47674,-1.320668 -0.94702,-1.935594 -3.3201,-4.341383 -1.55383,-1.575243 -4.49969,-3.598052 -5.66635,-3.890865 -0.22947,-0.05759 -0.77192,-0.266955 -1.20542,-0.46525 -2.39736,-1.096573 -6.02686,-1.50778 -9.44344,-1.069902 -1.43759,0.184247 -3.56417,0.825404 -5.12425,1.544947 -0.59268,0.273356 -1.128,0.49701 -1.1896,0.49701 -0.28163,0 -1.96727,1.315783 -3.08056,2.404633 -1.37919,1.348911 -2.60651,2.91086 -3.4826,4.432131 -0.50588,0.878414 -0.66222,1.039082 -1.09784,1.128175 -0.33347,0.0682 -0.64512,0.03296 -0.90724,-0.102592 -0.76385,-0.394997 -0.62656,-0.960011 0.74888,-3.082092 1.09073,-1.682831 2.84239,-3.576215 4.38138,-4.735877 1.24254,-0.936286 4.02392,-2.345025 5.70517,-2.889612 5.5725,-1.805025 11.19616,-1.375052 16.29457,1.245848 3.96616,2.038862 7.11951,5.03254 9.13961,8.676789 0.79317,1.430907 0.69535,1.846518 -0.47148,2.003022 -0.49535,0.06644 -0.61123,0.0271 -0.79735,-0.270743 z"
         style="fill:#404040;stroke-width:0.14715131" />
      <path
         id="path127"
         d="m 29.113884,174.48273 c 0.205779,-0.16186 0.413925,-0.2943 0.462545,-0.2943 0.04862,0 0.0057,0.13244 -0.09539,0.2943 -0.101087,0.16187 -0.309233,0.29431 -0.462547,0.29431 -0.241768,0 -0.229111,-0.039 0.0954,-0.29431 z M 168.45506,44.656712 c -0.0848,-0.10215 -0.30154,-0.582231 -0.48169,-1.066847 -0.36621,-0.985146 -1.32512,-2.486435 -1.76268,-2.75969 -0.15744,-0.09832 -0.28625,-0.249422 -0.28625,-0.335777 0,-0.239524 -2.83942,-3.009526 -3.08494,-3.009526 -0.0533,0 -0.24224,-0.135402 -0.41987,-0.300895 -0.27543,-0.256603 -1.05238,-0.721733 -2.8227,-1.689825 -0.67149,-0.367204 -3.00241,-1.223866 -3.97308,-1.460185 -1.86233,-0.453406 -3.94499,-0.63272 -5.81715,-0.50085 -2.61573,0.184244 -4.36556,0.626214 -6.64156,1.677513 -0.60538,0.279635 -1.1517,0.508427 -1.21403,0.508427 -0.31242,0 -2.2961,1.578836 -3.35115,2.667222 -1.37813,1.421665 -2.37221,2.705787 -3.24738,4.194861 -0.52504,0.893342 -0.68642,1.059813 -1.084,1.118166 -0.25693,0.03771 -0.66301,-0.02915 -0.90241,-0.14858 -0.39635,-0.197729 -0.4274,-0.266356 -0.34724,-0.767608 0.10613,-0.663692 0.22401,-0.894182 1.27981,-2.502371 1.82652,-2.782162 4.21921,-4.846319 7.34573,-6.337125 1.22003,-0.581738 1.53946,-0.711766 2.64873,-1.078185 2.29857,-0.759276 4.14163,-1.039752 6.76896,-1.030097 3.64864,0.01341 5.73881,0.517329 9.27053,2.235029 2.94666,1.433151 5.04925,3.059967 6.99628,5.413162 1.60879,1.944408 2.95747,4.240359 2.7938,4.756067 -0.16094,0.507092 -1.34686,0.803705 -1.66771,0.417114 z"
         style="fill:#3d3d3d;stroke-width:0.14715131" />
      <path
         id="path125"
         d="m 29.147306,174.48273 c 0.146488,-0.16186 0.332559,-0.2943 0.413492,-0.2943 0.08093,0 0.0273,0.13244 -0.119189,0.2943 -0.146488,0.16187 -0.332559,0.29431 -0.413492,0.29431 -0.08093,0 -0.0273,-0.13244 0.119189,-0.29431 z M 168.46361,44.658498 c -0.0801,-0.101166 -0.28593,-0.564728 -0.45745,-1.030137 -0.40905,-1.110008 -0.89484,-1.847189 -2.15076,-3.263763 -1.87988,-2.12035 -3.3312,-3.323914 -5.22897,-4.336313 -0.36389,-0.194123 -0.76616,-0.442441 -0.89393,-0.551817 -0.12777,-0.109376 -0.33605,-0.198865 -0.46283,-0.198865 -0.12679,0 -0.69211,-0.196422 -1.25628,-0.436493 -2.40258,-1.022392 -5.40832,-1.50865 -8.12844,-1.314993 -2.08736,0.148607 -2.39225,0.199312 -4.04666,0.672961 -1.61491,0.462341 -3.97299,1.515344 -5.1085,2.281204 -1.7348,1.170059 -4.28577,4.11123 -5.61052,6.468699 -0.46629,0.829792 -1.08068,1.01481 -1.76485,0.531462 -0.36776,-0.259817 -0.40582,-0.356921 -0.31974,-0.815779 0.0537,-0.286469 0.44704,-1.055925 0.874,-1.709901 0.42695,-0.653975 0.83571,-1.298248 0.90834,-1.431719 0.0726,-0.133469 0.64922,-0.808224 1.28129,-1.499454 1.6126,-1.763527 2.916,-2.722912 5.54616,-4.082331 3.09992,-1.602213 7.57769,-2.425839 11.25708,-2.070591 1.5204,0.146795 4.36353,0.77538 4.70282,1.03974 0.0842,0.06564 0.34952,0.166422 0.5895,0.223961 0.64488,0.154619 3.8354,1.77647 4.85729,2.469118 2.56254,1.736942 4.69275,4.026463 6.33701,6.810954 0.61986,1.049704 0.82031,1.555089 0.72985,1.840127 -0.15607,0.491734 -1.3535,0.78409 -1.65441,0.40393 z"
         style="fill:#000000;stroke-width:0.14715131" />
    </g>
  </g>
</svg>
